<svg width="500" height="500" viewBox="0 0 500 500" fill="none" xmlns="http://www.w3.org/2000/svg">
<path d="M87.5 392.1C87.1 392.1 86.8 391.8 86.8 391.4V174.8C86.8 174.4 87.1 174.1 87.5 174.1C87.9 174.1 88.2 174.4 88.2 174.8V391.4C88.2 391.8 87.9 392.1 87.5 392.1Z" fill="#D1D3D4"/>
<path d="M171.6 392.1C171.2 392.1 170.9 391.8 170.9 391.4V174.8C170.9 174.4 171.2 174.1 171.6 174.1C172 174.1 172.3 174.4 172.3 174.8V391.4C172.3 391.8 172 392.1 171.6 392.1Z" fill="#D1D3D4"/>
<path d="M255.7 392.1C255.3 392.1 255 391.8 255 391.4V174.8C255 174.4 255.3 174.1 255.7 174.1C256.1 174.1 256.4 174.4 256.4 174.8V391.4C256.4 391.8 256 392.1 255.7 392.1Z" fill="#D1D3D4"/>
<path d="M339.7 392.1C339.3 392.1 339 391.8 339 391.4V174.8C339 174.4 339.3 174.1 339.7 174.1C340.1 174.1 340.4 174.4 340.4 174.8V391.4C340.4 391.8 340.1 392.1 339.7 392.1Z" fill="#D1D3D4"/>
<path d="M423.8 392.1C423.4 392.1 423.1 391.8 423.1 391.4V174.8C423.1 174.4 423.4 174.1 423.8 174.1C424.2 174.1 424.5 174.4 424.5 174.8V391.4C424.5 391.8 424.2 392.1 423.8 392.1Z" fill="#D1D3D4"/>
<path d="M423.8 175.5H87.5C87.1 175.5 86.8 175.2 86.8 174.8C86.8 174.4 87.1 174.1 87.5 174.1H423.8C424.2 174.1 424.5 174.4 424.5 174.8C424.5 175.2 424.2 175.5 423.8 175.5Z" fill="#D1D3D4"/>
<path d="M423.8 247.1H87.5C87.1 247.1 86.8 246.8 86.8 246.4C86.8 246 87.1 245.7 87.5 245.7H423.8C424.2 245.7 424.5 246 424.5 246.4C424.5 246.8 424.2 247.1 423.8 247.1Z" fill="#D1D3D4"/>
<path d="M423.8 318.7H87.5C87.1 318.7 86.8 318.4 86.8 318C86.8 317.6 87.1 317.3 87.5 317.3H423.8C424.2 317.3 424.5 317.6 424.5 318C424.5 318.4 424.2 318.7 423.8 318.7Z" fill="#D1D3D4"/>
<path d="M443 392.7H57C56.6 392.7 56.3 392.4 56.3 392C56.3 391.6 56.6 391.3 57 391.3H443C443.4 391.3 443.7 391.6 443.7 392C443.7 392.4 443.4 392.7 443 392.7Z" fill="#D1D3D4"/>
<path d="M117.8 385.2V400.5C117.8 406.3 134.4 411 154.8 411C175.2 411 191.8 406.3 191.8 400.5V385.2H117.8Z" fill="white"/>
<path d="M154.9 411.8C136.3 411.8 117.2 407.6 117.2 400.6V385.3C117.2 384.9 117.5 384.6 117.9 384.6H192C192.4 384.6 192.7 384.9 192.7 385.3V400.6C192.6 407.5 173.4 411.8 154.9 411.8ZM118.5 385.9V400.5C118.5 405.2 133.1 410.3 154.8 410.3C176.5 410.3 191.1 405.2 191.1 400.5V385.9C191.2 385.9 118.5 385.9 118.5 385.9Z" fill="#231F20"/>
<path d="M154.9 395.7C175.335 395.7 191.9 390.999 191.9 385.2C191.9 379.401 175.335 374.7 154.9 374.7C134.466 374.7 117.9 379.401 117.9 385.2C117.9 390.999 134.466 395.7 154.9 395.7Z" fill="#231F20"/>
<path d="M154.9 396.3C133.8 396.3 117.2 391.4 117.2 385.2C117.2 379 133.7 374.1 154.9 374.1C176.1 374.1 192.6 379 192.6 385.2C192.6 391.4 176 396.3 154.9 396.3ZM154.9 375.3C133.1 375.3 118.5 380.4 118.5 385.2C118.5 390 133.1 395.1 154.9 395.1C176.7 395.1 191.3 390 191.3 385.2C191.3 380.4 176.6 375.3 154.9 375.3Z" fill="#231F20"/>
<path d="M110.2 361.8V377.1C110.2 382.9 126.8 387.6 147.2 387.6C167.6 387.6 184.2 382.9 184.2 377.1V361.8H110.2Z" fill="white"/>
<path d="M147.3 388.3C128.7 388.3 109.6 384.1 109.6 377.1V361.8C109.6 361.4 109.9 361.1 110.3 361.1H184.4C184.8 361.1 185.1 361.4 185.1 361.8V377.1C185 384.1 165.8 388.3 147.3 388.3ZM110.9 362.5V377.1C110.9 381.8 125.5 386.9 147.2 386.9C168.9 386.9 183.5 381.8 183.5 377.1V362.5H110.9Z" fill="#231F20"/>
<path d="M147.3 372.3C167.735 372.3 184.3 367.599 184.3 361.8C184.3 356.001 167.735 351.3 147.3 351.3C126.866 351.3 110.3 356.001 110.3 361.8C110.3 367.599 126.866 372.3 147.3 372.3Z" fill="white"/>
<path d="M147.3 373C128.7 373 109.6 368.8 109.6 361.8C109.6 354.8 128.8 350.6 147.3 350.6C165.8 350.6 185 354.8 185 361.8C185 368.8 165.8 373 147.3 373ZM147.3 352C125.6 352 111 357.1 111 361.8C111 366.5 125.6 371.6 147.3 371.6C169 371.6 183.6 366.5 183.6 361.8C183.6 357.1 169 352 147.3 352Z" fill="#231F20"/>
<path d="M147.3 368.9C131.5 368.9 115.5 366.5 115.5 361.8C115.5 357.1 131.5 354.7 147.3 354.7C163.1 354.7 179.1 357.1 179.1 361.8C179.1 366.5 163.1 368.9 147.3 368.9ZM147.3 356.1C128.5 356.1 116.9 359.4 116.9 361.8C116.9 364.2 128.4 367.5 147.3 367.5C166.2 367.5 177.7 364.2 177.7 361.8C177.7 359.4 166.1 356.1 147.3 356.1Z" fill="#D1D3D4"/>
<path d="M204.8 388V403.3C204.8 409.1 221.4 413.8 241.8 413.8C262.2 413.8 278.8 409.1 278.8 403.3V388H204.8Z" fill="white"/>
<path d="M241.8 414.5C223.2 414.5 204.1 410.3 204.1 403.3V388C204.1 387.6 204.4 387.3 204.8 387.3H278.9C279.3 387.3 279.6 387.6 279.6 388V403.3C279.6 410.3 260.4 414.5 241.8 414.5ZM205.5 388.7V403.3C205.5 408 220.1 413.1 241.8 413.1C263.5 413.1 278.1 408 278.1 403.3V388.7H205.5Z" fill="#231F20"/>
<path d="M241.8 398.5C262.235 398.5 278.8 393.799 278.8 388C278.8 382.201 262.235 377.5 241.8 377.5C221.366 377.5 204.8 382.201 204.8 388C204.8 393.799 221.366 398.5 241.8 398.5Z" fill="#231F20"/>
<path d="M241.8 399.1C220.7 399.1 204.2 394.2 204.2 388C204.2 381.8 220.7 376.9 241.8 376.9C262.9 376.9 279.4 381.8 279.4 388C279.4 394.2 263 399.1 241.8 399.1ZM241.8 378.1C220 378.1 205.4 383.2 205.4 388C205.4 392.8 220 397.9 241.8 397.9C263.6 397.9 278.2 392.8 278.2 388C278.2 383.2 263.6 378.1 241.8 378.1Z" fill="#231F20"/>
<path d="M210.8 365.9V381.2C210.8 387 227.4 391.7 247.8 391.7C268.2 391.7 284.8 387 284.8 381.2V365.9H210.8Z" fill="white"/>
<path d="M247.8 392.4C229.2 392.4 210.1 388.2 210.1 381.2V365.9C210.1 365.5 210.4 365.2 210.8 365.2H284.9C285.3 365.2 285.6 365.5 285.6 365.9V381.2C285.5 388.2 266.4 392.4 247.8 392.4ZM211.5 366.6V381.2C211.5 385.9 226.1 391 247.8 391C269.5 391 284.1 385.9 284.1 381.2V366.6H211.5Z" fill="#231F20"/>
<path d="M247.8 376.4C268.235 376.4 284.8 371.699 284.8 365.9C284.8 360.101 268.235 355.4 247.8 355.4C227.366 355.4 210.8 360.101 210.8 365.9C210.8 371.699 227.366 376.4 247.8 376.4Z" fill="#231F20"/>
<path d="M247.8 377C226.7 377 210.2 372.1 210.2 365.9C210.2 359.7 226.7 354.8 247.8 354.8C268.9 354.8 285.4 359.7 285.4 365.9C285.4 372.1 268.9 377 247.8 377ZM247.8 356C226 356 211.4 361.1 211.4 365.9C211.4 370.7 226 375.8 247.8 375.8C269.6 375.8 284.2 370.7 284.2 365.9C284.2 361.1 269.6 356 247.8 356Z" fill="#231F20"/>
<path d="M204.8 343.6V359C204.8 364.8 221.4 369.5 241.8 369.5C262.2 369.5 278.8 364.8 278.8 359V343.6H204.8Z" fill="white"/>
<path d="M241.8 370.2C223.2 370.2 204.1 366 204.1 359V343.7C204.1 343.3 204.4 343 204.8 343H278.9C279.3 343 279.6 343.3 279.6 343.7V359C279.6 366 260.4 370.2 241.8 370.2ZM205.5 344.3V359C205.5 363.7 220.1 368.8 241.8 368.8C263.5 368.8 278.1 363.7 278.1 359V344.3H205.5Z" fill="#231F20"/>
<path d="M241.8 354.1C262.235 354.1 278.8 349.399 278.8 343.6C278.8 337.801 262.235 333.1 241.8 333.1C221.366 333.1 204.8 337.801 204.8 343.6C204.8 349.399 221.366 354.1 241.8 354.1Z" fill="#231F20"/>
<path d="M241.8 354.8C220.7 354.8 204.2 349.9 204.2 343.7C204.2 337.5 220.7 332.6 241.8 332.6C262.9 332.6 279.4 337.5 279.4 343.7C279.4 349.9 263 354.8 241.8 354.8ZM241.8 333.8C220 333.8 205.4 338.9 205.4 343.7C205.4 348.5 220 353.6 241.8 353.6C263.6 353.6 278.2 348.5 278.2 343.7C278.2 338.9 263.6 333.8 241.8 333.8Z" fill="#231F20"/>
<path d="M216.7 325.5V340.8C216.7 346.6 233.3 351.3 253.7 351.3C274.1 351.3 290.7 346.6 290.7 340.8V325.5H216.7Z" fill="white"/>
<path d="M253.8 352C235.2 352 216.1 347.8 216.1 340.8V325.5C216.1 325.1 216.4 324.8 216.8 324.8H290.9C291.3 324.8 291.6 325.1 291.6 325.5V340.8C291.5 347.8 272.3 352 253.8 352ZM217.4 326.2V340.8C217.4 345.5 232 350.6 253.7 350.6C275.4 350.6 290 345.5 290 340.8V326.2H217.4Z" fill="#231F20"/>
<path d="M253.8 336C274.235 336 290.8 331.299 290.8 325.5C290.8 319.701 274.235 315 253.8 315C233.366 315 216.8 319.701 216.8 325.5C216.8 331.299 233.366 336 253.8 336Z" fill="#231F20"/>
<path d="M253.8 336.6C232.7 336.6 216.1 331.7 216.1 325.5C216.1 319.3 232.6 314.4 253.7 314.4C274.8 314.4 291.3 319.3 291.3 325.5C291.3 331.7 274.9 336.6 253.8 336.6ZM253.8 315.6C232 315.6 217.4 320.7 217.4 325.5C217.4 330.3 232 335.4 253.8 335.4C275.6 335.4 290.2 330.3 290.2 325.5C290.2 320.7 275.6 315.6 253.8 315.6Z" fill="#231F20"/>
<path d="M208.6 307.3V322.6C208.6 328.4 225.2 333.1 245.6 333.1C266 333.1 282.6 328.4 282.6 322.6V307.3H208.6Z" fill="white"/>
<path d="M245.6 333.8C227 333.8 207.9 329.6 207.9 322.6V307.3C207.9 306.9 208.2 306.6 208.6 306.6H282.7C283.1 306.6 283.4 306.9 283.4 307.3V322.6C283.4 329.6 264.2 333.8 245.6 333.8ZM209.3 308V322.6C209.3 327.3 223.9 332.4 245.6 332.4C267.3 332.4 281.9 327.3 281.9 322.6V308H209.3Z" fill="#231F20"/>
<path d="M245.6 317.8C266.035 317.8 282.6 313.099 282.6 307.3C282.6 301.501 266.035 296.8 245.6 296.8C225.166 296.8 208.6 301.501 208.6 307.3C208.6 313.099 225.166 317.8 245.6 317.8Z" fill="white"/>
<path d="M245.6 318.5C227 318.5 207.9 314.3 207.9 307.3C207.9 300.3 227.1 296.1 245.6 296.1C264.1 296.1 283.3 300.3 283.3 307.3C283.3 314.3 264.2 318.5 245.6 318.5ZM245.6 297.5C223.9 297.5 209.3 302.6 209.3 307.3C209.3 312 223.9 317.1 245.6 317.1C267.3 317.1 282 312 282 307.3C282 302.6 267.4 297.5 245.6 297.5Z" fill="#231F20"/>
<path d="M245.6 314.4C229.8 314.4 213.8 312 213.8 307.3C213.8 302.6 229.8 300.2 245.6 300.2C261.4 300.2 277.4 302.6 277.4 307.3C277.4 312 261.4 314.4 245.6 314.4ZM245.6 301.6C226.8 301.6 215.2 304.9 215.2 307.3C215.2 309.7 226.8 313 245.6 313C264.4 313 276 309.7 276 307.3C276 304.9 264.5 301.6 245.6 301.6Z" fill="#D1D3D4"/>
<path d="M390.9 379.5V394.8C390.9 400.6 374.3 405.3 353.9 405.3C333.5 405.3 316.9 400.6 316.9 394.8V379.5H390.9Z" fill="white"/>
<path d="M353.9 406.1C335.4 406.1 316.2 401.9 316.2 394.9V379.6C316.2 379.2 316.5 378.9 316.9 378.9H391C391.4 378.9 391.7 379.2 391.7 379.6V394.9C391.6 401.9 372.4 406.1 353.9 406.1ZM317.5 380.2V394.8C317.5 399.5 332.1 404.6 353.8 404.6C375.5 404.6 390.1 399.5 390.1 394.8V380.2H317.5Z" fill="#231F20"/>
<path d="M353.9 390C374.334 390 390.9 385.299 390.9 379.5C390.9 373.701 374.334 369 353.9 369C333.465 369 316.9 373.701 316.9 379.5C316.9 385.299 333.465 390 353.9 390Z" fill="#231F20"/>
<path d="M353.9 390.7C332.8 390.7 316.3 385.8 316.3 379.6C316.3 373.4 332.8 368.5 353.9 368.5C375 368.5 391.5 373.4 391.5 379.6C391.5 385.8 375 390.7 353.9 390.7ZM353.9 369.7C332.1 369.7 317.5 374.8 317.5 379.6C317.5 384.4 332.1 389.5 353.9 389.5C375.7 389.5 390.3 384.4 390.3 379.6C390.3 374.8 375.6 369.6 353.9 369.7Z" fill="#231F20"/>
<path d="M379 361.4V376.7C379 382.5 362.4 387.2 342 387.2C321.6 387.2 305 382.5 305 376.7V361.4H379Z" fill="white"/>
<path d="M341.9 387.9C323.4 387.9 304.2 383.7 304.2 376.7V361.4C304.2 361 304.5 360.7 304.9 360.7H379C379.4 360.7 379.7 361 379.7 361.4V376.7C379.7 383.7 360.5 387.9 341.9 387.9ZM305.6 362.1V376.7C305.6 381.4 320.2 386.5 341.9 386.5C363.6 386.5 378.2 381.4 378.2 376.7V362.1H305.6Z" fill="#231F20"/>
<path d="M341.9 371.9C362.335 371.9 378.9 367.199 378.9 361.4C378.9 355.601 362.335 350.9 341.9 350.9C321.466 350.9 304.9 355.601 304.9 361.4C304.9 367.199 321.466 371.9 341.9 371.9Z" fill="#231F20"/>
<path d="M341.9 372.5C320.8 372.5 304.3 367.6 304.3 361.4C304.3 355.2 320.8 350.3 341.9 350.3C363 350.3 379.5 355.2 379.5 361.4C379.5 367.6 363 372.5 341.9 372.5ZM341.9 351.5C320.1 351.5 305.5 356.6 305.5 361.4C305.5 366.2 320.1 371.3 341.9 371.3C363.7 371.3 378.3 366.2 378.3 361.4C378.3 356.6 363.7 351.5 341.9 351.5Z" fill="#231F20"/>
<path d="M387.1 343.2V358.5C387.1 364.3 370.5 369 350.1 369C329.7 369 313.1 364.3 313.1 358.5V343.2H387.1Z" fill="white"/>
<path d="M350 369.7C331.5 369.7 312.3 365.5 312.3 358.5V343.2C312.3 342.8 312.6 342.5 313 342.5H387.1C387.5 342.5 387.8 342.8 387.8 343.2V358.5C387.8 365.5 368.6 369.7 350 369.7ZM313.7 343.9V358.5C313.7 363.2 328.3 368.3 350 368.3C371.7 368.3 386.3 363.2 386.3 358.5V343.9H313.7Z" fill="#231F20"/>
<path d="M350 353.7C370.435 353.7 387 348.999 387 343.2C387 337.401 370.435 332.7 350 332.7C329.565 332.7 313 337.401 313 343.2C313 348.999 329.565 353.7 350 353.7Z" fill="#231F20"/>
<path d="M350 354.3C328.9 354.3 312.4 349.4 312.4 343.2C312.4 337 328.9 332.1 350 332.1C371.1 332.1 387.7 337 387.7 343.2C387.7 349.4 371.2 354.3 350 354.3ZM350 333.3C328.2 333.3 313.6 338.4 313.6 343.2C313.6 348 328.2 353.1 350 353.1C371.8 353.1 386.4 348 386.4 343.2C386.4 338.4 371.8 333.3 350 333.3Z" fill="#231F20"/>
<path d="M388.4 322.6V338C388.4 343.8 371.8 348.5 351.4 348.5C331 348.5 314.4 343.8 314.4 338V322.6H388.4Z" fill="white"/>
<path d="M351.4 349.2C332.9 349.2 313.7 345 313.7 338V322.7C313.7 322.3 314 322 314.4 322H388.5C388.9 322 389.2 322.3 389.2 322.7V338C389.1 345 369.9 349.2 351.4 349.2ZM315 323.3V338C315 342.7 329.6 347.8 351.3 347.8C373 347.8 387.6 342.7 387.6 338V323.3H315Z" fill="#231F20"/>
<path d="M351.4 333.1C371.834 333.1 388.4 328.399 388.4 322.6C388.4 316.801 371.834 312.1 351.4 312.1C330.965 312.1 314.4 316.801 314.4 322.6C314.4 328.399 330.965 333.1 351.4 333.1Z" fill="#231F20"/>
<path d="M351.4 333.8C330.3 333.8 313.8 328.9 313.8 322.7C313.8 316.5 330.3 311.6 351.4 311.6C372.5 311.6 389 316.5 389 322.7C389 328.9 372.5 333.8 351.4 333.8ZM351.4 312.8C329.6 312.8 315 317.9 315 322.7C315 327.5 329.6 332.6 351.4 332.6C373.2 332.6 387.8 327.5 387.8 322.7C387.8 317.9 373.1 312.8 351.4 312.8Z" fill="#231F20"/>
<path d="M381.1 302.6V317.9C381.1 323.7 364.5 328.4 344.1 328.4C323.7 328.4 307.1 323.7 307.1 317.9V302.6H381.1Z" fill="white"/>
<path d="M344.1 329.1C325.6 329.1 306.4 324.9 306.4 317.9V302.6C306.4 302.2 306.7 301.9 307.1 301.9H381.2C381.6 301.9 381.9 302.2 381.9 302.6V317.9C381.8 324.9 362.6 329.1 344.1 329.1ZM307.7 303.3V317.9C307.7 322.6 322.3 327.7 344 327.7C365.7 327.7 380.3 322.6 380.3 317.9V303.3H307.7Z" fill="#231F20"/>
<path d="M344.1 313.1C364.535 313.1 381.1 308.399 381.1 302.6C381.1 296.801 364.535 292.1 344.1 292.1C323.666 292.1 307.1 296.801 307.1 302.6C307.1 308.399 323.666 313.1 344.1 313.1Z" fill="#231F20"/>
<path d="M344.1 313.7C323 313.7 306.5 308.8 306.5 302.6C306.5 296.4 323 291.5 344.1 291.5C365.2 291.5 381.7 296.4 381.7 302.6C381.7 308.8 365.2 313.7 344.1 313.7ZM344.1 292.7C322.3 292.7 307.7 297.8 307.7 302.6C307.7 307.4 322.3 312.5 344.1 312.5C365.9 312.5 380.5 307.4 380.5 302.6C380.5 297.8 365.9 292.7 344.1 292.7Z" fill="#231F20"/>
<path d="M390.9 282V297.3C390.9 303.1 374.3 307.8 353.9 307.8C333.5 307.8 316.9 303.1 316.9 297.3V282H390.9Z" fill="white"/>
<path d="M353.9 308.5C335.4 308.5 316.2 304.3 316.2 297.3V282C316.2 281.6 316.5 281.3 316.9 281.3H391C391.4 281.3 391.7 281.6 391.7 282V297.3C391.6 304.3 372.4 308.5 353.9 308.5ZM317.5 282.7V297.3C317.5 302 332.1 307.1 353.8 307.1C375.5 307.1 390.1 302 390.1 297.3V282.7H317.5Z" fill="#231F20"/>
<path d="M353.9 292.5C374.334 292.5 390.9 287.799 390.9 282C390.9 276.201 374.334 271.5 353.9 271.5C333.465 271.5 316.9 276.201 316.9 282C316.9 287.799 333.465 292.5 353.9 292.5Z" fill="white"/>
<path d="M353.9 293.2C335.4 293.2 316.2 289 316.2 282C316.2 275 335.4 270.8 353.9 270.8C372.4 270.8 391.6 275 391.6 282C391.6 289 372.4 293.2 353.9 293.2ZM353.9 272.2C332.2 272.2 317.6 277.3 317.6 282C317.6 286.7 332.2 291.8 353.9 291.8C375.6 291.8 390.2 286.7 390.2 282C390.2 277.3 375.6 272.2 353.9 272.2Z" fill="#231F20"/>
<path d="M353.9 289.1C338.1 289.1 322.1 286.7 322.1 282C322.1 277.3 338.1 274.9 353.9 274.9C369.7 274.9 385.7 277.3 385.7 282C385.7 286.7 369.6 289.1 353.9 289.1ZM353.9 276.3C335.1 276.3 323.5 279.6 323.5 282C323.5 284.4 335 287.7 353.9 287.7C372.8 287.7 384.3 284.4 384.3 282C384.3 279.6 372.7 276.3 353.9 276.3Z" fill="#D1D3D4"/>
<path d="M180.3 231.9C180.3 231.9 175.9 227.1 175.6 225.4C175.3 223.7 175 217.7 173.5 218.8C172 219.9 172.4 224.1 172.4 224.1C172.4 224.1 166.4 216.9 164.6 218.4C162.8 219.9 162.1 221.5 162 224.6C161.9 227.7 177 241 177 241" fill="white"/>
<path d="M177 241.7C176.8 241.7 176.7 241.6 176.5 241.5C173.9 239.3 161.1 227.9 161.2 224.6C161.3 221.3 162.1 219.6 164.1 217.9C164.4 217.6 164.9 217.5 165.3 217.5C167.1 217.6 169.9 220.4 171.6 222.2C171.7 220.8 172 219 173 218.2C173.3 217.9 173.8 217.9 174.2 218C175.2 218.4 175.6 220.3 176 224C176.1 224.5 176.1 224.9 176.2 225.2C176.4 226.2 178.9 229.4 180.7 231.3C181 231.6 181 232 180.7 232.3C180.4 232.6 180 232.6 179.7 232.3C178.9 231.5 175.1 227.3 174.8 225.4C174.8 225.1 174.7 224.6 174.6 224.1C174.5 223 174.1 220.1 173.7 219.3C173 220 172.9 222.4 173 223.9C173 224.2 172.8 224.5 172.6 224.6C172.3 224.7 172 224.6 171.8 224.4C170 222.3 166.7 218.9 165.2 218.8C165.1 218.8 165.1 218.8 165 218.8C163.3 220.3 162.7 221.7 162.6 224.5C162.5 226.3 170.1 233.9 177.4 240.3C177.7 240.6 177.7 241 177.5 241.3C177.4 241.6 177.2 241.7 177 241.7Z" fill="#231F20"/>
<path d="M172 230.9C171.7 230.9 171.5 230.7 171.4 230.5C170.4 228.3 170.6 225.7 171.9 223.7C172.1 223.4 172.5 223.3 172.9 223.5C173.2 223.7 173.3 224.2 173.1 224.5C172.1 226.1 171.9 228.2 172.7 229.9C172.9 230.2 172.7 230.7 172.4 230.8C172.2 230.9 172.1 230.9 172 230.9Z" fill="#231F20"/>
<path d="M251.5 371.2C251.4 373 251.4 374.8 251.5 376.6C251.7 377.3 253.1 380.7 252.9 381.7C252.7 382.7 241.3 400.9 238.4 398C235.5 395.1 242.8 381.9 242.8 380.5C242.8 379.1 241.9 371.1 241.9 371.1L251.5 371.2Z" fill="white"/>
<path d="M239.1 399.1C238.6 399.1 238.2 398.9 237.9 398.6C235.7 396.4 238 390.3 240.9 383.7C241.4 382.7 241.8 381.6 242.1 380.6C242.1 379.6 241.5 374.1 241.2 371.3C241.2 371.1 241.2 370.9 241.4 370.8C241.5 370.7 241.7 370.6 241.9 370.6H251.5C251.9 370.6 252.2 370.9 252.2 371.3C252.1 373 252.1 374.7 252.2 376.4C252.2 376.5 252.3 376.7 252.4 376.9C253.3 379.3 253.8 381 253.6 381.9C253.3 383.2 244.2 397.7 239.8 399C239.5 399 239.3 399.1 239.1 399.1ZM242.6 372C242.8 374.1 243.4 379.5 243.4 380.7C243.4 381.2 243 382.1 242 384.4C240.4 388.2 237 396 238.7 397.7C238.8 397.7 238.8 397.8 239.2 397.8C242.7 397 251.7 382.9 252.1 381.7C252.2 381.3 251.8 379.9 250.9 377.5L250.7 377C250.5 375.4 250.5 373.7 250.6 372.1L242.6 372Z" fill="#231F20"/>
<path d="M226.2 372.5C226.2 372.5 225.7 380.1 226.2 381.9C226.7 383.7 227.5 385.5 227.2 386.6C226.9 387.7 213 400 212.3 397.8C211.6 395.6 217.3 386.9 217.4 385.3C217.5 383.7 215.6 371.8 215.6 371.8L226.2 372.5Z" fill="white"/>
<path d="M212.7 398.6C212.2 398.6 211.8 398.3 211.6 397.8C211.1 396.3 212.7 393.2 214.9 389C215.6 387.8 216.2 386.4 216.7 385.1C216.8 384 215.7 376.5 214.9 371.7C214.9 371.5 214.9 371.3 215.1 371.1C215.2 370.9 215.5 370.9 215.7 370.9L226.3 371.7C226.7 371.7 227 372.1 226.9 372.4C226.8 374.5 226.5 380.2 226.9 381.5C227 382 227.2 382.4 227.3 382.9C227.8 384.1 228 385.3 227.9 386.5C227.7 387.9 215.6 398.5 212.7 398.6ZM216.4 372.4C216.9 375.3 218.2 383.8 218.1 385.2C218.1 385.9 217.4 387.2 216.1 389.7C214.8 392.2 212.9 395.8 212.9 397.2C215.3 396.7 225.9 387.5 226.6 386.2C226.5 385.2 226.3 384.3 226 383.4C225.9 382.9 225.7 382.4 225.6 382C225.2 380.5 225.4 375.1 225.5 373.1L216.4 372.4Z" fill="#231F20"/>
<path d="M317.7 237C317.7 237 322.3 232.4 322.6 230.7C322.9 229 323.5 223 324.9 224.1C326.3 225.2 325.8 229.5 325.8 229.5C325.8 229.5 332.1 222.5 333.8 224.1C335.5 225.7 336.2 227.3 336.2 230.4C336.2 233.5 320.5 246.2 320.5 246.2" fill="white"/>
<path d="M320.6 246.9C320.4 246.9 320.2 246.8 320.1 246.6C319.9 246.3 319.9 245.9 320.2 245.6C327.8 239.5 335.6 232.1 335.6 230.4C335.6 227.6 335.1 226.2 333.4 224.6C333.4 224.6 333.4 224.6 333.2 224.6C331.7 224.7 328.2 227.9 326.4 230C326.2 230.2 325.9 230.3 325.6 230.2C325.3 230.1 325.2 229.8 325.2 229.5C325.4 228 325.3 225.6 324.7 224.9C324.2 225.7 323.8 228.5 323.6 229.7C323.5 230.2 323.5 230.7 323.4 231C323 232.8 319.1 236.9 318.3 237.7C318 238 317.6 238 317.3 237.7C317 237.4 317 237 317.3 236.7C319.2 234.8 321.8 231.8 322.1 230.8C322.2 230.5 322.2 230.1 322.3 229.6C322.9 225.9 323.3 224 324.4 223.6C324.8 223.4 325.3 223.5 325.6 223.8C326.6 224.6 326.9 226.4 326.9 227.9C328.6 226.1 331.5 223.5 333.4 223.5C333.9 223.5 334.3 223.6 334.6 223.9C336.5 225.7 337.2 227.5 337.2 230.7C337.2 233.9 323.9 244.9 321.2 247C320.9 246.8 320.8 246.9 320.6 246.9Z" fill="#231F20"/>
<path d="M233 285.9L277.7 288.3C277.7 288.3 280.4 300.6 272.8 306.7C265.2 312.8 249.7 319.1 248.8 323.5C247.9 327.9 253.4 366.5 252.8 375.6L239 378.9C239 378.9 227.1 332.8 227.4 325.2C227.7 317.6 231.7 314 231.7 314C231.7 314 220.7 323.4 220.4 325.5C220.1 327.6 228.3 376.5 228.3 376.5C228.3 376.5 213.8 377.1 213.5 376.2C213.2 375.3 199.8 330.1 203.1 320.4C206.4 310.7 233 285.9 233 285.9Z" fill="#231F20"/>
<path d="M239.1 379.5C238.8 379.5 238.6 379.3 238.5 379C238 377.1 226.6 332.8 226.9 325.1C227 322.5 227.6 319.9 228.6 317.5C224.6 321.1 221.2 324.6 221.1 325.5C220.9 327.2 225.7 356.8 229 376.3C229.1 376.6 228.8 377 228.5 377C228.5 377 228.5 377 228.4 377C213.4 377.6 213.1 376.7 213 376.2C212.9 375.7 199.1 330.1 202.6 320C206 310.2 231.5 286.4 232.6 285.4C232.7 285.3 232.9 285.2 233 285.2L277.7 287.6C278 287.6 278.2 287.8 278.3 288.1C278.4 288.6 281 300.8 273.2 307.1C269.5 309.8 265.7 312.2 261.7 314.4C255.9 317.7 249.9 321.2 249.4 323.6C249 325.7 250.1 336.3 251.2 346.6C252.5 358.5 253.8 370.9 253.4 375.6C253.4 375.9 253.2 376.1 252.9 376.2L239.1 379.5ZM231.8 313.3C232 313.3 232.1 313.4 232.3 313.5C232.5 313.7 232.5 314.1 232.3 314.4C232.3 314.4 228.5 318 228.2 325.2C227.9 332.2 238.2 372.7 239.6 378.1L252.3 375.1C252.5 370.1 251.2 357.7 250 346.7C248.8 335.3 247.8 325.5 248.2 323.3C248.8 320.3 254.5 317.1 261.1 313.3C265.1 311.2 268.8 308.8 272.5 306.1C278.9 301 277.6 291.1 277.2 288.8L233.2 286.5C230.8 288.7 206.8 311.4 203.7 320.5C200.5 329.8 213.1 372.5 214 375.7C215.2 376.1 221.6 376.1 227.6 375.8C226.4 368.3 219.6 327.4 219.8 325.3C220.1 323.1 229.4 315 231.3 313.4C231.5 313.4 231.7 313.4 231.8 313.3Z" fill="#231F20"/>
<path d="M279.8 289.3C279.8 289.3 277.1 269.9 274.6 259.9C274.6 259.9 282 272.9 290.9 273.6C299.8 274.3 326 244.1 326 244.1L318.7 233.7C318.7 233.7 300.3 248.1 289.8 252.8C287.1 246.4 270.8 223.4 261.4 218.8C252 214.2 240.1 217.8 233.7 223.1C230.6 225.7 222.6 230.3 208.6 243.2C198.5 239.6 189 234.7 180.2 228.5L172.9 238.6C172.9 238.6 202.3 265.8 210.4 261.7L229.1 252.3L228.1 288.9L279.8 289.3Z" fill="#388CE0"/>
<path d="M241.8 189.2C241.8 189.2 234.2 210.9 230.8 215.4L250.5 222.8L254.2 187.8L241.8 189.2Z" fill="white"/>
<path d="M250.5 223.6C250.4 223.6 250.3 223.6 250.3 223.6L230.6 216.2C230.2 216.1 230 215.7 230.2 215.3C230.2 215.2 230.3 215.2 230.3 215.1C233.6 210.7 241.1 189.2 241.2 189C241.3 188.7 241.5 188.6 241.8 188.5L254.2 187.1C254.4 187.1 254.6 187.2 254.8 187.3C254.9 187.5 255 187.7 255 187.9L251.3 222.9C251.3 223.1 251.2 223.3 251 223.4C250.7 223.5 250.6 223.6 250.5 223.6ZM231.9 215.2L249.9 222L253.4 188.7L242.3 190C241.2 192.9 235.2 209.8 231.9 215.2Z" fill="#231F20"/>
<path d="M245.6 215.9L243.4 225.6C243.4 225.6 242.2 231.7 248.7 231.1C252.6 230.7 256.1 228.6 258.2 225.4L260.8 207.8C260.9 207 262 199.8 263.3 193.4C255.9 191.9 249.3 190 249.3 190C249.9 190.9 247.2 190.5 247.2 190.5C246 190.3 244.8 190.2 243.6 190.4C242.4 194.6 240.3 199.1 239.6 203.4C239.1 206 238.9 208.6 238.9 211.2C239 215.9 245.6 215.8 245.6 215.9Z" fill="white"/>
<path d="M247.9 231.7C246.4 231.8 244.9 231.3 243.9 230.2C242.2 228.3 242.8 225.5 242.8 225.4L244.9 216.4C242.3 216.2 238.5 214.9 238.4 210.9C238.4 208.3 238.6 205.6 239.1 203C239.7 200.1 240.5 197.3 241.6 194.5C242.1 193 242.7 191.4 243.1 189.9C243.2 189.7 243.4 189.5 243.6 189.5C244.9 189.3 246.2 189.4 247.4 189.6C247.9 189.7 248.3 189.7 248.8 189.7C248.8 189.6 248.9 189.5 248.9 189.4C249 189.2 249.3 189.1 249.6 189.2C249.7 189.2 256.2 191.1 263.6 192.6C263.8 192.6 263.9 192.7 264 192.9C264.1 193 264.1 193.2 264.1 193.4C262.9 198.9 262 205.2 261.6 207.7C261.6 207.8 260.7 213.7 259 225.5C259 225.6 259 225.7 258.9 225.7C256.6 229.1 253 231.3 248.9 231.7C248.5 231.7 248.2 231.7 247.9 231.7ZM244 225.7C243.8 227 244.1 228.3 244.8 229.4C245.6 230.3 246.8 230.6 248.6 230.5C252.2 230.1 255.5 228.2 257.6 225.2C257.8 223.6 260.2 207.9 260.2 207.7C260.6 205.2 261.5 199.3 262.6 193.8C256.8 192.6 251.6 191.2 249.8 190.7C249.6 190.9 249 191.3 247.1 191C246.1 190.8 245.1 190.7 244 190.8C243.6 192.2 243.1 193.6 242.6 195C241.6 197.7 240.7 200.5 240.2 203.3C239.7 205.8 239.5 208.4 239.5 210.9C239.6 215.2 245.2 215.1 245.5 215.2C245.7 215.2 245.9 215.3 246 215.4C246.1 215.6 246.2 215.8 246.1 215.9L244 225.7Z" fill="#231F20"/>
<path d="M249.3 200.8C249.3 200.8 245.1 205 245.7 206C246.3 207 248.6 206.8 248.6 206.8" fill="white"/>
<path d="M248.2 207.6C247.4 207.6 245.7 207.5 245.1 206.4C244.5 205.3 245.7 203.4 248.7 200.3C249 200 249.4 200 249.7 200.3C250 200.6 250 201 249.7 201.3C247.9 203.2 246.3 205.3 246.3 205.8C247 206.1 247.7 206.3 248.5 206.2C248.9 206.2 249.2 206.5 249.2 206.9C249.2 207.2 248.9 207.5 248.6 207.6H248.2Z" fill="#231F20"/>
<path d="M246.228 199.116C246.364 198.523 246.213 197.983 245.89 197.909C245.567 197.835 245.195 198.255 245.059 198.847C244.923 199.439 245.074 199.979 245.397 200.053C245.72 200.127 246.092 199.708 246.228 199.116Z" fill="#231F20"/>
<path d="M254.108 201.377C254.244 200.785 254.093 200.245 253.77 200.171C253.447 200.096 253.075 200.516 252.939 201.108C252.803 201.7 252.954 202.241 253.277 202.315C253.6 202.389 253.972 201.969 254.108 201.377Z" fill="#231F20"/>
<path d="M247.4 196.5L248.4 194.5L249.2 196.9L255.4 198.8L257.1 196.2L256.9 199.7L260.2 200C260.2 200 254 215.5 254.2 225.1C254.2 225.1 272.8 230.2 277.6 226.9C277.6 226.9 272.3 207.9 272.6 200.3C272.9 192.7 272.4 186.2 263.4 182.7C254.4 179.2 247.8 180.3 243.1 184.4C240.2 187 238.6 190.7 238.5 194.5C238.6 194.5 245.6 196.4 247.4 196.5Z" fill="white"/>
<path d="M272.2 228.6C264.9 228.6 254.8 225.8 254.2 225.7C253.9 225.6 253.7 225.4 253.7 225C253.5 216.6 258.1 203.9 259.4 200.5L257 200.3C256.6 200.3 256.4 199.9 256.4 199.6V198.6L256.1 199.1C255.9 199.4 255.6 199.5 255.3 199.4L249 197.6C248.8 197.5 248.6 197.4 248.5 197.1L248.3 196.3L248 196.8C247.9 197.1 247.6 197.2 247.3 197.2C245.4 197 238.6 195.2 238.3 195.1C238 195 237.8 194.7 237.8 194.4C237.9 190.3 239.6 186.5 242.6 183.7C247.9 179.1 254.9 178.5 263.6 181.8C273 185.4 273.5 192.2 273.3 200.1C273.1 207.5 278.3 226.3 278.3 226.5C278.4 226.8 278.3 227.1 278 227.3C276.7 228.2 274.5 228.5 272 228.5L272.2 228.6ZM255.1 224.5C260.4 225.9 272.9 228.6 277 226.5C276.1 223.3 271.9 207.2 272.1 200.2C272.3 192.6 271.8 186.6 263.3 183.3C255 180.1 248.6 180.6 243.7 184.9C241.1 187.2 239.6 190.5 239.4 194C240.9 194.4 245.2 195.5 247.1 195.8L247.9 194.2C248 193.9 248.3 193.8 248.6 193.8C248.9 193.8 249.1 194 249.2 194.3L249.8 196.3L255.2 197.9L256.6 195.7C256.8 195.4 257.3 195.3 257.6 195.5C257.8 195.6 257.9 195.9 257.9 196.1L257.8 198.9L260.4 199.2C260.6 199.2 260.8 199.3 260.9 199.5C261 199.7 261 199.9 260.9 200.1C260.9 200.4 255.1 215.1 255.1 224.5Z" fill="#231F20"/>
<path d="M242.3 207.9C242.3 207.9 247.1 213.6 251.7 207.6Z" fill="white"/>
<path d="M247.1 211C244.1 211 241.9 208.4 241.8 208.3C241.6 208 241.7 207.5 242 207.3C242.3 207.1 242.6 207.2 242.9 207.4C242.9 207.4 244.8 209.6 247.1 209.6H247.2C248.6 209.6 250 208.7 251.2 207.1C251.4 206.8 251.9 206.7 252.2 206.9C252.5 207.1 252.6 207.6 252.4 207.9C252.4 207.9 252.4 208 252.3 208C250.7 210 249 211 247.1 211Z" fill="#231F20"/>
<path d="M245.6 215.9C245.6 215.9 250.8 215.8 253 214.4C253 214.4 249.8 221.2 243.9 223.3L245.6 215.9Z" fill="#231F20"/>
<path d="M243.9 224C243.7 224 243.6 223.9 243.4 223.8C243.2 223.6 243.1 223.4 243.2 223.1L244.9 215.7C245 215.4 245.2 215.2 245.6 215.2C245.6 215.2 250.6 215.1 252.7 213.8C253 213.6 253.3 213.7 253.5 213.9C253.7 214.1 253.8 214.4 253.7 214.7C253.6 215 250.3 221.8 244.2 224C244.1 224 244 224 243.9 224ZM246.2 216.6L244.9 222.2C247.6 220.7 249.8 218.5 251.4 215.8C249.7 216.2 247.9 216.5 246.2 216.6Z" fill="#231F20"/>
<path d="M326.1 236.3C325.7 236.3 325.4 236 325.4 235.6C325.4 235.5 325.4 235.4 325.5 235.3C326.4 233.6 326.3 231.6 325.4 229.9C325.2 229.6 325.3 229.1 325.6 228.9C325.9 228.7 326.4 228.8 326.6 229.1C327.8 231.2 327.9 233.7 326.8 235.9C326.6 236.1 326.4 236.3 326.1 236.3Z" fill="#231F20"/>
<path d="M277.3 263.6C277.3 263.6 269 252.9 263.6 246.2Z" fill="white"/>
<path d="M277.3 264.3C277.1 264.3 276.9 264.2 276.8 264C276.7 263.9 268.4 253.2 263.1 246.6C262.9 246.3 262.9 245.9 263.2 245.6C263.5 245.4 263.9 245.4 264.2 245.7C269.5 252.3 277.9 263 278 263.1C278.2 263.4 278.2 263.8 277.9 264.1C277.7 264.2 277.5 264.2 277.3 264.3Z" fill="#231F20"/>
<path d="M228.3 285.1C227.9 285.1 227.6 284.8 227.6 284.4L228.7 239.8C228.7 239.4 229 239.1 229.4 239.1C229.8 239.1 230.1 239.4 230.1 239.8L228.9 284.4C229 284.8 228.7 285.1 228.3 285.1Z" fill="#231F20"/>
<path d="M312.6 183.5C339.662 183.5 361.6 161.562 361.6 134.5C361.6 107.438 339.662 85.5 312.6 85.5C285.538 85.5 263.6 107.438 263.6 134.5C263.6 161.562 285.538 183.5 312.6 183.5Z" fill="#388CE0"/>
<path d="M329.5 119.9L335.4 112.8C333.2 110.4 330.6 108.4 327.5 107.1C320.6 104.1 313.7 104.7 307 108C300.3 111.3 296.5 117 294.3 124C293.6 126.2 293.6 126.2 291.2 126.3H284.6V132.9H292.8V136.3H284.6V142.9H293.6C296.4 153.9 302.4 161.6 314.1 163.5C323 164.9 330.5 162.3 336.5 155.3L330.7 148.4C328.1 151.1 325.2 153.4 321.5 154.1C317.8 154.9 314 154.1 311 152C307.9 149.8 306.2 146.6 305.1 142.9H326V136.3H304V132.9H326V126.3H305C306.6 121.3 309.3 117.4 314.3 115.7C320.2 113.6 325.2 115.4 329.5 119.9Z" fill="white"/>
<path d="M312.6 176.6C289.3 176.6 270.5 157.7 270.5 134.5C270.5 111.3 289.4 92.3999 312.6 92.3999C335.8 92.3999 354.7 111.3 354.7 134.5C354.8 157.7 335.9 176.6 312.6 176.6ZM312.6 93.6999C290.1 93.6999 271.9 111.9 271.9 134.4C271.9 156.9 290.1 175.1 312.6 175.1C335.1 175.1 353.3 156.9 353.3 134.4C353.4 112 335.1 93.7999 312.6 93.6999Z" fill="white"/>
<path d="M187.4 183.5C214.462 183.5 236.4 161.562 236.4 134.5C236.4 107.438 214.462 85.5 187.4 85.5C160.338 85.5 138.4 107.438 138.4 134.5C138.4 161.562 160.338 183.5 187.4 183.5Z" fill="#FF3967"/>
<path d="M182.5 150.1C184.5 146.4 184.8 142 183.5 138H191.3V131.5C188.2 131.5 185.3 131.4 182.3 131.6C181.1 131.8 179.9 131 179.5 129.9C177.1 124.8 177.7 119.7 181.5 115.9C185.3 112.1 191.3 111.3 195.3 116.3C196.6 118.1 197.8 120 198.9 121.9C199.3 122.5 199.5 123.1 199.9 123.8L208.3 120.1C207.2 118.1 206.2 116.2 205.1 114.4C203.1 110.9 200.2 108 196.7 106.1C189.8 102.6 183.1 103.5 177.1 108C170.9 112.7 168.2 119 169.2 126.8C169.4 128.4 169.9 129.9 170.2 131.6H164.2V138.1H172.8C173.1 138.1 173.7 138.2 173.7 138.4C174.6 140.2 175.5 142 175 144C173.8 148.8 170.4 152.7 165.9 154.5C165.7 154.6 165.5 154.7 165.3 154.8C166.3 157.6 167.3 160.2 168.4 162.9C168.9 162.7 169.3 162.6 169.6 162.4C171.2 161.7 172.7 160.8 174.3 160.2C178.2 158.6 182.2 158.1 186.2 159.9C187.2 160.3 188.2 160.8 189.3 161.2C195.4 163.8 200.8 161.9 206 158.7L202.1 150.2C201.4 150.6 200.9 151 200.3 151.3C197.7 152.7 195 153.7 192.1 152.7C189 151.7 186.1 150.3 182.5 150.1Z" fill="white"/>
<path d="M187.4 176.6C164.1 176.6 145.3 157.7 145.3 134.5C145.3 111.3 164.2 92.3999 187.4 92.3999C210.6 92.3999 229.5 111.3 229.5 134.5C229.5 157.7 210.6 176.6 187.4 176.6ZM187.4 93.6999C164.9 93.6999 146.7 111.9 146.7 134.4C146.7 156.9 164.9 175.1 187.4 175.1C209.9 175.1 228.1 156.9 228.1 134.4C228.1 112 209.9 93.7999 187.4 93.6999Z" fill="white"/>
<path d="M98.1001 261.7C125.162 261.7 147.1 239.762 147.1 212.7C147.1 185.638 125.162 163.7 98.1001 163.7C71.0381 163.7 49.1001 185.638 49.1001 212.7C49.1001 239.762 71.0381 261.7 98.1001 261.7Z" fill="#388CE0"/>
<path d="M110.3 212.3C108.1 211.1 105.8 210 103.5 209C103 208.9 102.7 208.4 102.8 207.9C102.8 203.9 102.8 199.9 102.8 195.8C102.8 195.6 102.8 195.5 102.9 195.3C105.8 196.2 108.5 197.9 110.5 200.2C112.5 197.9 114.3 195.7 116.2 193.6C112.9 189.9 108.5 187.3 103.7 186.3C103 186.2 102.8 185.9 102.8 185.2C102.8 183.8 102.8 182.3 102.8 180.8H95.5V185.8C93.6 186.4 91.7 187 89.8 187.8C84.6 190.4 81.4 194.3 81.1 200.3C80.9 206.1 83.7 210.3 88.5 213.1C90.5 214.2 92.6 215.1 94.7 216C95.2 216.1 95.5 216.6 95.4 217.1C95.4 220.4 95.4 223.7 95.4 227.1V231.4C91.6 230.6 88.1 228.8 85.3 226L79 232.9C83.4 237.3 89.2 240 95.3 240.6V244.8H102.7V240.2C103.1 240.1 103.4 240 103.7 239.9C105.9 239.4 108 238.5 110 237.3C119.3 231.6 119.8 218 110.3 212.3ZM95.3 205.3C92.9 204.7 91.1 202.6 91 200.1C91.1 197.6 92.9 195.6 95.4 195.3L95.3 205.3ZM102.8 230.7C102.8 230.5 102.7 230.3 102.7 230.1V219.7C105.3 220.3 107.1 222.6 107.1 225.3C107.2 227.9 105.4 230.1 102.8 230.7Z" fill="white"/>
<path d="M98.1 254.9C74.8 254.9 56 236 56 212.7C56 189.4 74.9 170.6 98.1 170.6C121.3 170.6 140.2 189.5 140.2 212.7C140.2 236 121.4 254.8 98.1 254.9ZM98.1 172C75.6 172 57.4 190.2 57.4 212.7C57.4 235.2 75.6 253.4 98.1 253.4C120.6 253.4 138.8 235.2 138.8 212.7C138.8 190.2 120.6 172 98.1 172Z" fill="white"/>
<path d="M401.9 261.7C428.962 261.7 450.9 239.762 450.9 212.7C450.9 185.638 428.962 163.7 401.9 163.7C374.838 163.7 352.9 185.638 352.9 212.7C352.9 239.762 374.838 261.7 401.9 261.7Z" fill="#FF3967"/>
<path d="M424.1 187.5C419.3 196.4 414.6 205.1 409.8 214H421.6V220.3H408V223.4H421.5V229.7H408V244.5H395.9V229.8H382.3V223.5H395.8V220.3H382.3V214.1H394C389.2 205.2 384.5 196.4 379.7 187.5H385.5C387.6 187.5 389.8 187.5 391.9 187.5C392.4 187.4 392.9 187.7 393 188.2C395.8 194.7 398.6 201.2 401.5 207.7C401.6 208 401.7 208.2 402 208.6C402.2 208.1 402.4 207.8 402.6 207.5C405.5 201.1 408.3 194.7 411.2 188.3C411.3 188 411.8 187.5 412.1 187.5C415.9 187.5 419.9 187.5 424.1 187.5Z" fill="white"/>
<path d="M401.9 254.9C378.6 254.9 359.8 236.1 359.7 212.8C359.6 189.5 378.5 170.7 401.8 170.6C425.1 170.5 443.9 189.4 444 212.7C444 236 425.1 254.8 401.9 254.9ZM401.9 172C379.4 172 361.2 190.2 361.2 212.7C361.2 235.2 379.4 253.4 401.9 253.4C424.4 253.4 442.6 235.2 442.6 212.7C442.6 190.2 424.4 172 401.9 172Z" fill="white"/>
</svg>
