<svg width="24" height="24" viewBox="0 0 24 24" fill="none" xmlns="http://www.w3.org/2000/svg">
<path d="M12 15.5V11C12 10.1716 12.6716 9.5 13.5 9.5C14.3284 9.5 15 10.1716 15 11V15.5C15 17.1569 13.6569 18.5 12 18.5C10.3431 18.5 9 17.1569 9 15.5V11.5M16 5C17.6569 5 19 6.34315 19 8V16.2C19 17.8802 19 18.7202 18.673 19.362C18.3854 19.9265 17.9265 20.3854 17.362 20.673C16.7202 21 15.8802 21 14.2 21H9.8C8.11984 21 7.27976 21 6.63803 20.673C6.07354 20.3854 5.6146 19.9265 5.32698 19.362C5 18.7202 5 17.8802 5 16.2V8C5 6.34315 6.34315 5 8 5M8 7H16V4.70711C16 4.25435 15.8201 3.82014 15.5 3.5C15.1799 3.17986 14.7456 3 14.2929 3H9.70711C9.25435 3 8.82014 3.17986 8.5 3.5C8.17986 3.82014 8 4.25435 8 4.70711V7Z" stroke="#ffffff" stroke-width="2" stroke-linecap="round" stroke-linejoin="round"/>
</svg>
