<svg width="500" height="500" viewBox="0 0 500 500" fill="none" xmlns="http://www.w3.org/2000/svg">
<path d="M404.5 385.2H91.8001C91.4001 385.2 91.1001 384.9 91.1001 384.5C91.1001 384.1 91.4001 383.8 91.8001 383.8H404.5C404.9 383.8 405.2 384.1 405.2 384.5C405.2 384.9 404.9 385.2 404.5 385.2Z" fill="#D1D3D4"/>
<path d="M112.5 174.9H383.7C388.7 174.9 392.7 179 392.7 184V351.2C392.7 356.2 388.6 360.2 383.7 360.2H112.5C107.5 360.2 103.4 356.1 103.4 351.2V184C103.5 179 107.5 174.9 112.5 174.9Z" fill="white"/>
<path d="M383.7 360.9H112.5C107.1 360.9 102.8 356.5 102.7 351.1V184C102.7 178.6 107.1 174.2 112.5 174.2H383.7C389.1 174.2 393.5 178.6 393.5 184V351.1C393.5 356.5 389.1 360.9 383.7 360.9ZM112.5 175.6C107.9 175.6 104.1 179.3 104.1 184V351.1C104.1 355.7 107.8 359.4 112.5 359.5H383.7C388.3 359.5 392 355.8 392.1 351.1V184C392.1 179.4 388.4 175.6 383.7 175.6H112.5Z" fill="#231F20"/>
<path d="M392.8 331.6H103.5C103.1 331.6 102.8 331.3 102.8 330.9C102.8 330.5 103.1 330.2 103.5 330.2H392.8C393.2 330.2 393.5 330.5 393.5 330.9C393.5 331.2 393.2 331.6 392.8 331.6Z" fill="#231F20"/>
<path d="M285.1 396H211.1L224.8 360.2H271.5L285.1 396Z" fill="white"/>
<path d="M285.1 396.7H211.1C210.9 396.7 210.7 396.6 210.5 396.4C210.4 396.2 210.3 396 210.4 395.8L224 360C224.1 359.7 224.4 359.6 224.6 359.5H271.3C271.6 359.5 271.8 359.7 271.9 360L285.5 395.8C285.6 396 285.6 396.3 285.4 396.4C285.5 396.5 285.3 396.7 285.1 396.7ZM212.2 395.3H284.1L271 360.9H225.3L212.2 395.3Z" fill="#231F20"/>
<path d="M202.5 393.9H293.8C296.2 393.9 298.1 395.8 298.1 398.2V399.2C298.1 401.6 296.2 403.5 293.8 403.5H202.5C200.1 403.5 198.2 401.6 198.2 399.2V398.2C198.1 395.8 200.1 393.9 202.5 393.9Z" fill="white"/>
<path d="M293.8 404.2H202.5C199.7 404.2 197.5 402 197.5 399.2V398.2C197.5 395.4 199.7 393.2 202.5 393.2H293.8C296.6 393.2 298.8 395.4 298.8 398.2V399.2C298.8 402 296.5 404.2 293.8 404.2ZM202.5 394.6C200.5 394.6 198.9 396.2 198.9 398.2V399.2C198.9 401.2 200.5 402.8 202.5 402.8H293.8C295.8 402.8 297.4 401.2 297.4 399.2V398.2C297.4 396.2 295.8 394.6 293.8 394.6H202.5Z" fill="#231F20"/>
<path d="M382.5 183.6H113.8V319.5H382.5V183.6Z" fill="#388CE0"/>
<path d="M382.5 183.6H113.8V319.5H382.5V183.6Z" fill="#231F20"/>
<path d="M218 376.5L273.1 365.8L270.9 360.2H224.3L218 376.5Z" fill="#231F20"/>
<path d="M218 377.2C217.8 377.2 217.6 377.1 217.5 377C217.3 376.8 217.3 376.5 217.4 376.3L223.6 359.9C223.7 359.6 224 359.4 224.2 359.4H270.9C271.2 359.4 271.5 359.6 271.6 359.9L273.7 365.6C273.8 366 273.7 366.4 273.3 366.5H273.2L218.1 377.2H218ZM224.7 360.9L219.1 375.6L272.1 365.3L270.4 360.9H224.7Z" fill="#231F20"/>
<path d="M192.7 196.3C192.2 187.9 190.3 179.7 187 172C186.5 170.8 185.4 169.5 184.3 170.1C184.9 173.7 185.6 177.2 186.2 180.7C179.6 176.4 173.9 170.8 169.3 164.3C168.9 163.6 168.4 163.1 167.7 162.7C167 162.3 166.1 162.6 165.7 163.2C165.5 163.8 165.7 164.5 166.1 165C168 168.5 170.3 171.8 172.8 174.9C169.5 170.1 162.7 161.9 161.2 163.8C159.7 165.7 163.6 173.1 167.1 177.5L159 168.4C158.3 167.6 157 166.7 156.2 167.4C155.4 168.1 155.9 169.4 156.5 170.3L162.2 178.8C159.3 176.3 155.3 170.2 153.2 171.6C151.1 173 157.7 180.9 161.9 183.9C166.1 186.9 170.8 189.4 174.3 193.3C176.4 195.8 178.1 198.6 179.6 201.5" fill="white"/>
<path d="M179.4 202.3C179.2 202.3 178.9 202.2 178.8 202C177.4 199.1 175.7 196.4 173.6 193.9C171.1 191.3 168.2 189.1 165.1 187.2C163.8 186.4 162.5 185.5 161.3 184.6C157.6 181.9 151.9 175.5 151.9 172.6C151.9 172.1 152.1 171.5 152.6 171.2C153.9 170.3 155.5 171.3 157.2 173L155.7 170.8C154.6 169.2 154.6 167.8 155.5 167C156.4 166.2 157.9 166.6 159.2 168.1L162.1 171.4C160.4 168.2 159.3 164.9 160.5 163.5C160.8 163.1 161.3 163 161.7 163C163 163.3 164.2 164 165.1 165C164.8 164.4 164.7 163.7 164.9 163.1C165.1 162.7 165.5 162.3 165.9 162.2C166.5 162 167.2 162 167.7 162.3C168.5 162.7 169.1 163.4 169.5 164.1C173.7 170.1 178.9 175.3 184.9 179.5C184.3 176.5 183.8 173.4 183.2 170.4C183.2 170.1 183.3 169.9 183.5 169.7C184 169.5 184.5 169.4 185 169.6C186 170.1 186.7 170.9 187.1 172C190.4 179.8 192.4 188.1 192.9 196.5C192.9 196.9 192.7 197.2 192.3 197.2C191.9 197.2 191.6 197 191.6 196.6C191.1 188.3 189.2 180.1 185.9 172.5C185.7 171.8 185.2 171.2 184.5 170.9C185.1 174.2 185.7 177.6 186.3 180.9C186.3 181.2 186.2 181.4 186 181.5C185.8 181.6 185.5 181.6 185.3 181.5C178.7 177.1 172.9 171.5 168.3 165C168 164.4 167.5 163.9 166.9 163.6C166.6 163.5 166.3 163.5 166.1 163.6C166 163.6 165.9 163.7 165.8 163.9C165.7 164.2 165.9 164.7 166.1 165.1C167 166.8 168 168.4 169.1 169.9C170.7 171.9 172.1 173.8 172.8 174.9C173 175.2 172.8 175.6 172.5 175.8C172.3 175.9 172 175.9 171.8 175.7C170.5 174.1 169.2 172.4 168 170.7C165.2 167.4 162.5 164.7 161.3 164.6C161.2 164.6 161.2 164.6 161.1 164.7C160 166 162.9 172.4 167 177.6C167.2 177.9 167.2 178.3 166.9 178.5C166.6 178.7 166.2 178.7 166 178.4L157.8 169.2C157.3 168.7 156.3 167.8 155.8 168.3C155.3 168.8 155.9 169.8 156.2 170.4L161.9 178.9C162.1 179.2 162.1 179.6 161.8 179.8C161.5 180 161.1 180 160.9 179.7C159.9 178.8 158.9 177.8 158 176.7C156.2 174.7 153.7 171.9 152.7 172.6C152.7 172.6 152.6 172.7 152.6 172.9C152.6 175.1 157.7 181.2 161.4 183.9C162.6 184.8 163.9 185.6 165.2 186.5C168.4 188.4 171.3 190.7 173.9 193.4C176 196 177.8 198.8 179.3 201.8C179.5 202.1 179.4 202.5 179 202.7C179.6 202.3 179.5 202.3 179.4 202.3Z" fill="#231F20"/>
<path d="M331.7 172.5C330.2 166.4 328.7 160.3 327.2 154.2C322.3 134.5 315.5 114.1 293.9 108C287.5 106.2 281 106.9 276.8 112.7C272.4 109 265.6 111 261.1 114.5C251 122.3 246.4 134.4 246.2 146.6C245.9 160.4 244.5 174.8 237.2 186.8C234.2 191.7 230.4 196 227.8 201.2C225.2 206.4 224 212.6 226.8 217.7C228.5 220.5 230.8 222.8 233.6 224.4C247.6 233.5 265.3 234.5 281.9 233.4C298.9 232.2 317.4 228.3 328.3 215.1C333 209.3 335.8 202.2 336.4 194.8C336.8 186.4 333.6 180.2 331.7 172.5Z" fill="white"/>
<path d="M271.1 234.3C259 234.3 244.6 232.5 232.9 224.8C230.7 223.4 227.7 221.1 225.9 217.8C223.4 213.2 223.8 206.9 226.9 200.7C228.5 197.7 230.3 194.8 232.4 192.1C233.8 190.2 235.1 188.3 236.3 186.3C243.7 174.1 245 159.3 245.3 146.4C245.6 132.9 251.1 121.1 260.5 113.8C265 110.3 271.8 108.3 276.5 111.6C280.4 106.7 286.6 105.1 293.9 107.2C315.9 113.4 322.6 133.7 327.7 153.9L332.2 172.2C332.7 174.3 333.3 176.3 333.9 178.2C335.5 183.5 337.1 188.5 336.6 194.6C336 202.2 333.1 209.3 328.4 215.2C319.3 226.3 304.4 232.1 281.6 233.7C278.5 234.1 274.9 234.3 271.1 234.3ZM270.9 111.3C267.4 111.5 264.1 112.7 261.3 114.9C252.2 121.9 246.9 133.4 246.6 146.5C246.3 159.6 245 174.6 237.5 187.1C236.3 189.1 234.9 191.1 233.5 193C231.5 195.7 229.7 198.5 228.1 201.4C226.7 204.2 223.8 211.2 227 217.3C228.2 219.6 230.3 221.7 233.6 223.8C248.6 233.7 268.2 233.6 281.5 232.7C304 231.2 318.5 225.4 327.4 214.7C332 209 334.8 202.1 335.4 194.8C335.9 188.9 334.4 184 332.8 178.9C332.2 176.9 331.6 174.9 331 172.8L326.5 154.5C321.5 134.6 314.9 114.7 293.6 108.7C288.6 107.3 281.7 106.9 277.1 113.1C277 113.2 276.8 113.3 276.7 113.4C276.5 113.4 276.3 113.4 276.2 113.2C274.8 111.9 272.9 111.2 270.9 111.3Z" fill="#231F20"/>
<path d="M246.1 195.6C240.5 200.8 228.1 220.4 216.8 240.9L193.4 191.7L174.3 197.4C174.3 197.4 191.5 288.4 208.5 292.1C225.5 295.8 248.7 255.3 248.7 255.3L274.7 183.9C274.7 183.9 254.4 187.8 246.1 195.6Z" fill="#388CE0"/>
<path d="M313.2 319.1C310.7 294.1 305.4 235 310.2 219.5C316.4 199.7 316.2 194.2 310.2 192.2C304.2 190.2 287.8 179.8 276.6 192.2C276.6 192.2 250.9 206.7 245.9 231.6C242.3 249.9 246.5 295.8 249 319H313.2V319.1Z" fill="white"/>
<path d="M262.3 319.1C264.2 291.6 266.6 270.3 267.2 261.6C268.1 249 271.3 212.6 274.8 196.7C279.3 186.8 277.3 183.9 277.3 183.9C277.3 183.9 252 180.3 244.4 218.2C242.5 227.5 238.3 274.5 233.7 319.1H262.3Z" fill="#388CE0"/>
<path d="M274.8 177.2L274.7 196.7C274.7 196.7 276.7 207.6 288.5 204.3C295.6 202.2 301.4 197.1 304.2 190.3L302.9 156.6C302.8 155.2 300.7 150.9 300.9 138.5C286.5 138.3 275.2 127.4 275.2 127.4C275.2 127.4 270.2 134.8 268.1 137.2C266.4 139 264.9 140.9 263.6 143.1C261.6 146.9 261.7 151.5 261.8 155.7C261.8 160.6 262.3 165.5 263.3 170.4C265.2 179.5 274.8 177.2 274.8 177.2Z" fill="white"/>
<path d="M284.2 205.6C282.3 205.6 280.4 205.1 278.8 204.1C276.3 202.4 274.6 199.8 274 196.8L274.1 178C271.5 178.4 268.9 177.9 266.6 176.6C264.5 175.2 263.1 172.9 262.7 170.4C261.8 165.5 261.3 160.6 261.2 155.6C261.1 151.6 261 146.7 263.1 142.7C264.4 140.5 265.9 138.5 267.6 136.7C269.7 134.4 274.6 127.1 274.6 127C274.7 126.8 274.9 126.7 275.1 126.7C275.3 126.7 275.5 126.7 275.6 126.9C275.7 127 286.9 137.6 300.9 137.8C301.1 137.8 301.2 137.9 301.4 138C301.5 138.1 301.6 138.3 301.6 138.4C301.4 147.8 302.6 152.5 303.2 154.8C303.4 155.3 303.5 155.9 303.5 156.5C303.5 156.5 303.5 157.1 304.8 190.2C304.8 190.3 304.8 190.4 304.8 190.4C301.9 197.4 295.9 202.7 288.6 204.8C287.2 205.3 285.7 205.5 284.2 205.6ZM275.2 196.7C275.8 199.2 277.3 201.5 279.4 203C281.7 204.4 284.6 204.6 288.2 203.7C295 201.7 300.6 196.8 303.5 190.3C303.4 188 302.2 156.9 302.2 156.7C302.1 156.2 302 155.8 301.9 155.3C301.3 153 300.1 148.4 300.2 139.2C287.7 138.7 277.7 130.6 275.2 128.5C274 130.3 270.3 135.7 268.4 137.7C266.7 139.4 265.3 141.3 264 143.4C262.1 147 262.2 151.6 262.2 155.7C262.2 160.6 262.7 165.5 263.7 170.3C264 172.5 265.3 174.4 267.1 175.7C270.2 177.7 274.4 176.8 274.4 176.8C274.6 176.8 274.8 176.8 274.9 176.9C275.1 177 275.1 177.2 275.1 177.4L275.2 196.7Z" fill="#231F20"/>
<path d="M274.9 186.8C274.9 186.8 282.8 187.2 287.9 181.9C293 176.6 292.2 171.3 292.2 171.3C292.2 171.3 283.7 177 274.8 177.2L274.9 186.8Z" fill="#231F20"/>
<path d="M275.2 187.4H274.8C274.5 187.4 274.2 187.1 274.2 186.8L274.1 177.2C274.1 176.9 274.4 176.6 274.7 176.6C283.3 176.4 291.7 170.8 291.8 170.8C292 170.7 292.2 170.7 292.4 170.8C292.6 170.9 292.7 171.1 292.8 171.3C292.8 171.5 293.5 177 288.3 182.4C283.7 187.1 276.9 187.4 275.2 187.4ZM275.4 177.8L275.5 186.2C277.4 186.1 283.4 185.7 287.4 181.5C289.9 179.1 291.3 175.9 291.6 172.5C289.2 173.9 282.5 177.5 275.4 177.8Z" fill="#231F20"/>
<path d="M281.6 149.3C281.6 149.3 275.3 158.7 276.8 160.3C278.3 161.9 282.5 160.9 282.5 160.9" fill="white"/>
<path d="M279.8 161.8C278.6 161.9 277.4 161.5 276.4 160.7C274.8 158.9 279.2 151.9 281.1 149C281.2 148.7 281.6 148.5 281.9 148.6C282.2 148.7 282.4 149.1 282.3 149.4C282.3 149.5 282.2 149.6 282.1 149.6C278.9 154.4 276.6 159.2 277.3 159.8C278.3 160.9 281.3 160.4 282.3 160.2C282.6 160.1 283 160.3 283.1 160.6C283.2 160.9 283 161.3 282.7 161.4C281.7 161.6 280.7 161.7 279.8 161.8Z" fill="#231F20"/>
<path d="M270.23 147.543C270.274 146.439 269.817 145.525 269.21 145.501C268.603 145.476 268.075 146.352 268.031 147.455C267.987 148.559 268.444 149.473 269.051 149.498C269.658 149.522 270.185 148.647 270.23 147.543Z" fill="#231F20"/>
<path d="M287.924 146.08C287.968 144.976 287.512 144.061 286.905 144.037C286.297 144.013 285.77 144.888 285.725 145.992C285.681 147.095 286.138 148.01 286.745 148.034C287.352 148.058 287.88 147.183 287.924 146.08Z" fill="#231F20"/>
<path d="M277.4 165.7L282.4 164.4C282.4 164.4 283.4 171.7 280.6 172.3C277.8 172.9 277.4 165.7 277.4 165.7Z" fill="white"/>
<path d="M280.2 173C279.8 173 279.3 172.8 279 172.6C277.1 171.2 276.8 166.3 276.8 165.8C276.8 165.5 277 165.2 277.3 165.2L282.3 163.9C282.5 163.9 282.7 163.9 282.8 164C282.9 164.1 283 164.3 283.1 164.4C283.2 165.2 284.1 172.3 280.8 173C280.6 173 280.4 173 280.2 173ZM278 166.2C278.2 168.1 278.7 170.9 279.7 171.6C279.9 171.8 280.1 171.8 280.4 171.7C281.9 171.3 282 167.5 281.8 165.2L278 166.2Z" fill="#231F20"/>
<path d="M296.3 146.6C297.6 143.2 301.9 141.9 305.3 142.6C307.5 143 309.3 144.6 309.8 146.8C310.1 148.1 310.1 149.5 309.8 150.9C309.4 153.4 308.6 155.8 307.4 158C306.8 159.1 306 160.1 305 160.8C303.6 161.6 301.9 161.5 300.7 160.5" fill="white"/>
<path d="M303.2 161.9C302.2 161.9 301.2 161.6 300.4 161C300.1 160.8 300.1 160.4 300.3 160.1C300.5 159.8 300.9 159.8 301.2 159.9C302.2 160.7 303.7 160.8 304.8 160.2C305.7 159.5 306.5 158.6 307 157.6C308.2 155.5 309 153.2 309.4 150.7C309.6 149.4 309.6 148.2 309.4 146.9C309 145 307.4 143.5 305.4 143.1C302.3 142.5 298.3 143.7 297.2 146.7C297.1 147 296.8 147.2 296.4 147.2C296 147.2 295.9 146.8 295.9 146.4V146.3C297.3 142.6 301.9 141.2 305.6 141.9C308.1 142.3 310 144.2 310.6 146.6C310.9 148 310.9 149.5 310.6 150.9C310.2 153.5 309.4 155.9 308.1 158.2C307.5 159.4 306.6 160.5 305.5 161.3C304.7 161.7 303.9 161.9 303.2 161.9Z" fill="#231F20"/>
<path d="M337.9 319.1C337.8 318.3 337.7 317.5 337.7 316.7C335.7 293.6 337.7 215.1 332.8 199.5C330.4 192 305.3 186.6 305.3 186.6C305.3 186.6 289.8 269.1 283.7 319.2H337.9V319.1Z" fill="#388CE0"/>
<path d="M300.2 280.2C294.3 279.2 288.9 276.4 283.4 274.1C281.2 273.2 278.9 272.3 276.6 271.6C273.9 270.8 271.3 269.2 268.4 269.1C266.6 269.1 267.1 271.6 267.8 272.5C268.5 273.3 269.3 274 270.3 274.6C272 275.7 275.5 277.9 276.2 279.9C274 280.5 271.7 280.2 269.4 280.4C267 280.7 264.6 281 262.2 281.5C259.8 282 257.5 282.5 255.2 283.2C253.2 283.8 251 284 249.1 284.8C248.6 285 248.1 285.4 248.1 285.9C248 287.7 252.1 287.5 253.1 287.4L272 285.5C265.4 286.1 258.8 287.3 252.4 289C251.8 289.1 251.2 289.4 250.8 289.9C249.2 292.3 256 292.4 256.7 292.5C260.2 292.6 263.7 292.5 267.2 292.2L258.7 293.6C256.8 293.9 254.9 294.2 253 294.7C252 294.9 251 295.4 250.2 296.1C250.1 296.2 250 296.3 250 296.5C250 296.7 250.2 296.8 250.4 296.9C252 297.5 253.7 297.8 255.4 297.8C258.9 297.9 262.5 297.6 266 297.1L255.5 298.2C254.6 298.2 253.7 298.5 252.9 299.1C252.7 299.7 253 300.4 253.5 300.7C254 301 254.7 301.2 255.3 301.2C259.2 301.7 263 301.2 266.9 301.2C271.1 301.2 275.3 301 279.5 300.4C287.8 299.4 295.8 297 303.3 293.3" fill="white"/>
<path d="M259.5 302.3C258.1 302.3 256.7 302.2 255.3 302.1C254.6 302.1 253.8 301.8 253.2 301.5C252.4 301 252 300 252.3 299.1C252.3 299 252.4 299 252.4 298.9C252.6 298.7 252.7 298.6 252.9 298.5C251.9 298.4 250.9 298.1 250 297.7C249.6 297.6 249.3 297.2 249.2 296.7C249.2 296.4 249.3 296.1 249.6 295.9C250.5 295.1 251.5 294.6 252.7 294.4C254.3 294 255.9 293.7 257.5 293.4H256.5C252.7 293.3 250.5 292.7 249.9 291.6C249.6 291 249.7 290.4 250.1 289.9C250.6 289.3 251.3 288.8 252.1 288.7L253.8 288.2L253 288.3C252.4 288.4 249 288.6 247.8 287.4C247.4 287.1 247.2 286.6 247.3 286.1C247.4 285.3 247.9 284.7 248.7 284.5C250 283.9 251.4 283.5 252.8 283.3C253.5 283.2 254.2 283 254.9 282.8C257.2 282.1 259.6 281.6 261.9 281.1C264.2 280.6 266.8 280.2 269.2 280C270.1 279.9 271 279.9 271.8 279.9C272.9 279.9 274 279.8 275.2 279.7C274.3 278.3 272.1 276.8 270.7 275.9L269.7 275.2C268.8 274.7 268 274 267.3 273.1C266.6 272.1 266.4 270.8 266.8 269.6C267.1 269 267.8 268.6 268.4 268.7C270.4 268.9 272.3 269.4 274.2 270.3C275.1 270.7 275.9 271 276.8 271.3C279.1 272 281.4 272.9 283.6 273.8L286.6 275.1C291 277 295.5 279 300.2 279.8C300.5 279.9 300.8 280.2 300.7 280.6C300.6 280.9 300.3 281.1 300 281.1C295.1 280.3 290.5 278.2 286.1 276.3C285.1 275.9 284.1 275.4 283.1 275C280.9 274.1 278.7 273.2 276.4 272.5C275.5 272.2 274.6 271.8 273.7 271.5C272 270.7 270.2 270.2 268.4 270C268.2 270 268 270.1 267.9 270.2C267.7 270.9 267.8 271.7 268.3 272.4C268.9 273.1 269.5 273.7 270.3 274.2L271.3 274.9C273.2 276.2 276.1 278.1 276.7 280C276.8 280.2 276.8 280.3 276.7 280.5C276.6 280.6 276.5 280.8 276.3 280.8C274.9 281.2 273.4 281.3 271.9 281.3C271 281.3 270.2 281.3 269.4 281.4C267 281.7 264.6 282 262.2 282.5C259.8 283 257.5 283.5 255.3 284.2C254.6 284.4 253.9 284.6 253.1 284.7C251.8 284.9 250.5 285.3 249.3 285.8C248.9 286 248.7 286.2 248.7 286.4C248.7 286.5 248.7 286.6 248.8 286.7C249.4 287.3 251.4 287.4 253 287.2L271.9 285.3C272.2 285.2 272.6 285.5 272.6 285.8C272.7 286.1 272.4 286.5 272.1 286.5H272C265.4 287.1 258.9 288.3 252.5 290C252 290.1 251.6 290.3 251.3 290.6C251.1 290.9 251.2 291 251.2 291C251.5 291.5 253.3 292.1 256.7 292.1C260.2 292.2 263.7 292.1 267.1 291.8C267.4 291.8 267.7 292 267.8 292.4C267.8 292.7 267.6 293.1 267.3 293.1L258.8 294.5C256.9 294.8 255 295.1 253.2 295.6C252.4 295.8 251.6 296.1 250.9 296.6C252.4 297.2 253.9 297.4 255.5 297.4C257.2 297.4 258.8 297.4 260.5 297.3L266 296.7C266.3 296.7 266.7 296.9 266.7 297.2C266.8 297.5 266.5 297.9 266.2 297.9C264.3 298.2 262.5 298.4 260.6 298.5L255.7 299C255 299 254.3 299.2 253.6 299.6C253.6 299.9 253.8 300.2 254 300.4C254.5 300.7 255 300.8 255.5 300.8C258 301.1 260.6 301.1 263.2 300.9C264.5 300.9 265.8 300.8 267.1 300.8C271.3 300.8 275.5 300.6 279.6 300C287.8 299 295.8 296.6 303.2 292.9C303.5 292.7 303.9 292.9 304.1 293.2C304.3 293.5 304.1 293.9 303.8 294.1C296.3 297.8 288.1 300.2 279.8 301.3C275.6 301.9 271.3 302.1 267.1 302.1C265.8 302.1 264.5 302.1 263.3 302.2C262.1 302.3 260.7 302.3 259.5 302.3Z" fill="#231F20"/>
<path d="M332.7 199.5C332.7 199.5 382.1 289.3 364.4 295.4C357.2 297.9 292.3 301.7 292.3 301.7L285.4 273.7L334.1 266.1L332.7 199.5Z" fill="#388CE0"/>
<path d="M268.9 159C262.6 159 257.5 153.9 257.5 147.6C257.5 141.3 262.6 136.2 268.9 136.2C275.2 136.2 280.3 141.3 280.3 147.6C280.2 153.9 275.1 159 268.9 159ZM268.9 137.6C263.3 137.6 258.8 142.2 258.9 147.7C259 153.2 263.5 157.8 269 157.7C274.6 157.7 279.1 153.1 279 147.6C279 142 274.5 137.5 268.9 137.6C268.9 137.5 268.9 137.5 268.9 137.6Z" fill="#231F20"/>
<path d="M291 157.1C284.7 157.1 279.6 152 279.6 145.7C279.6 139.4 284.7 134.3 291 134.3C297.3 134.3 302.4 139.4 302.4 145.7C302.4 152 297.3 157.1 291 157.1ZM291 135.7C285.4 135.7 280.9 140.2 280.9 145.8C280.9 151.4 285.4 155.9 291 155.9C296.6 155.9 301.1 151.4 301.1 145.8C301.1 140.2 296.6 135.7 291 135.7Z" fill="#231F20"/>
<path d="M285.3 274.2C285 274.2 284.7 274 284.7 273.7C284.6 273.4 284.9 273 285.2 273L333.2 265.6L321.6 215.7C321.5 215.4 321.7 215 322.1 214.9C322.4 214.8 322.8 215 322.9 215.4L334.6 265.9C334.6 266.1 334.6 266.3 334.5 266.4C334.4 266.5 334.2 266.6 334.1 266.7L285.5 274.2H285.3Z" fill="#231F20"/>
<path d="M239.7 265.2C239.3 265.2 239 264.8 239.1 264.5C241.3 246.5 245.4 212.3 245.5 211.6H246.1L246.2 211C246.8 211.1 246.8 211.1 245.7 220L240.3 264.7C240.3 265 240.1 265.2 239.7 265.2Z" fill="#231F20"/>
<path d="M226.1 258.4C225.9 258.4 225.6 258.3 225.5 258L196.4 199.7C196.2 199.4 196.3 199 196.6 198.8C196.9 198.6 197.3 198.7 197.5 199C197.5 199 197.5 199.1 197.6 199.1L226.7 257.4C226.8 257.7 226.7 258.1 226.4 258.3C226.3 258.4 226.2 258.4 226.1 258.4Z" fill="#231F20"/>
<path d="M301.8 248C301.6 248 301.5 247.9 301.4 247.8C301.1 247.6 301.1 247.2 301.3 246.9L315.7 230.3L305.9 220.3C305.8 220.2 305.7 220 305.7 219.8C305.7 219.6 305.8 219.5 305.9 219.4L315.7 210.3C312 204.7 306.6 196.7 306.1 196.2C305.9 196 305.9 195.5 306.1 195.3C306.3 195.1 306.7 195 307 195.3C307.7 196 315.5 207.7 317 210.1C317.2 210.4 317.1 210.7 316.9 210.9L307.2 220L316.9 229.9C317.1 230.1 317.1 230.5 316.9 230.8L302.1 247.9C302.1 247.9 301.9 248 301.8 248Z" fill="#231F20"/>
<path d="M265.4 243.9C265.2 243.9 265 243.8 264.9 243.6L252.9 226.5C252.7 226.2 252.8 225.8 253 225.6L265.1 216L257.7 208.3C257.6 208.2 257.5 208 257.5 207.8C257.5 207.6 257.6 207.5 257.7 207.4L271 195.3C271.3 195.1 271.7 195.1 271.9 195.4C272.1 195.6 272.1 196 271.9 196.2L259 207.8L266.4 215.6C266.5 215.7 266.6 215.9 266.6 216.1C266.6 216.3 266.5 216.4 266.4 216.5L254.2 226.2L265.9 242.8C266.1 243.1 266 243.5 265.7 243.7C265.6 243.8 265.5 243.9 265.4 243.9Z" fill="#231F20"/>
<path d="M181.3 188.8C181 188.8 180.7 188.5 180.7 188.2C180.3 183.1 185.7 180.2 186 180.1C186.3 179.9 186.7 180.1 186.9 180.4C187.1 180.7 186.9 181.1 186.6 181.3C186.5 181.3 181.6 183.9 182 188.1C182 188.5 181.7 188.8 181.3 188.8Z" fill="#231F20"/>
<path d="M301 302.3C300.7 302.3 300.4 302 300.4 301.7C300.4 301.4 300.6 301.1 301 301L336.7 298.3C337 298.3 337.3 298.5 337.4 298.8V298.9C337.4 299.2 337.2 299.6 336.8 299.6L301 302.3Z" fill="#231F20"/>
<path d="M112.5 334.4C129.4 334.4 143.1 320.7 143.1 303.8C143.1 286.9 129.4 273.2 112.5 273.2C95.6 273.2 81.8999 286.9 81.8999 303.8C81.8999 320.7 95.6 334.4 112.5 334.4Z" fill="white"/>
<path d="M112.5 335.1C95.2 335.1 81.2 321.1 81.2 303.8C81.2 286.5 95.2 272.5 112.5 272.5C129.8 272.5 143.8 286.5 143.8 303.8C143.8 321.1 129.8 335.1 112.5 335.1ZM112.5 273.9C96 273.9 82.6 287.3 82.6 303.8C82.6 320.3 96 333.7 112.5 333.7C129 333.7 142.4 320.3 142.4 303.8C142.4 287.3 129.1 273.9 112.5 273.9Z" fill="#D1D3D4"/>
<path d="M111.4 282.1H113.9C114 282.1 114.1 282.2 114.2 282.2C117.9 282.4 121.5 283.6 124.5 285.7C131.6 290.6 134.9 297.5 134.2 306.1C133.8 310.9 131.7 315.4 128.3 318.8C123.7 323.7 117 326.2 110.3 325.4C106.8 325.1 103.5 323.9 100.6 321.9C95.3999 318.5 91.9999 313 91.0999 306.9C90.9999 306.3 90.8999 305.7 90.8999 305V302.6C90.8999 302.5 90.8999 302.3 90.9999 302.1C91.0999 301.2 91.1999 300.2 91.3999 299.3C93.2999 290.4 100.5 283.6 109.6 282.2L111.4 282.1ZM128.5 315.9C131 312.7 132.3 308.7 132.5 304.7H123.9C123.8 306.2 123.7 307.8 123.5 309.3C123.3 310.8 123 312.3 122.7 313.7L128.5 315.9ZM92.5999 304.7C92.7999 308.8 94.1999 312.7 96.6999 315.9L102.5 313.6C101.8 310.7 101.4 307.6 101.3 304.6L92.5999 304.7ZM132.5 302.9C132.7 299.7 130.3 293.4 128.4 291.7L122.6 294C123.4 296.9 123.8 300 123.8 303L132.5 302.9ZM102.5 293.9L96.6999 291.7C94.5999 293.9 92.2999 300.3 92.6999 302.9H101.3C101.4 299.9 101.8 296.9 102.5 293.9ZM113.5 312.4C114.8 312.5 116 312.6 117.3 312.7C118.6 312.8 119.8 313.1 121 313.2C121 313.1 121.1 313 121.1 312.9C121.7 310.3 122.1 307.7 122.2 305C122.2 304.6 122.1 304.5 121.8 304.5C119.2 304.5 116.6 304.5 114 304.5H113.6L113.5 312.4ZM103 304.7C103 307.6 103.4 310.5 104.1 313.3L111.6 312.4V304.7H103ZM122.1 302.9C122.1 300 121.7 297.1 121 294.4L113.5 295.3V303L122.1 302.9ZM104.1 294.4C103.4 297.2 103 300.1 103 302.9H111.6V295.2L104.1 294.4ZM120.4 292.6C119.8 290.7 118.9 288.9 117.8 287.3C117.1 286.2 116.1 285.2 114.9 284.5C114.4 284.3 113.9 284.1 113.4 283.9V293.4C115.8 293.3 118.1 293.1 120.4 292.6ZM113.4 314.3V323.7C114.4 323.5 115.4 323 116.2 322.3C117.8 320.7 119.1 318.8 119.8 316.7C120 316.2 120.2 315.7 120.4 315.2C118.1 314.6 115.8 314.3 113.4 314.3ZM111.6 323.7V314.2C109.2 314.2 106.9 314.5 104.6 315C105 316 105.4 317 105.8 317.9C106.5 319.6 107.6 321.1 109 322.3C109.8 323 110.7 323.5 111.6 323.7ZM104.6 292.6C106.9 293.1 109.3 293.4 111.7 293.4V284C111 284.1 110.3 284.4 109.7 284.9C108.3 285.9 107.1 287.3 106.4 288.9C105.7 290 105.2 291.2 104.6 292.6ZM127.2 317.4C125.6 316.6 123.9 315.9 122.1 315.5C120.5 319.7 120 320.5 117.9 323.1C121.5 322.1 124.7 320.1 127.2 317.4ZM107.1 284.6C104.9 284.7 98.8999 288.4 97.7999 290.3L102.8 292.2C103.4 290.8 104 289.4 104.6 288.2C105.3 286.9 106.2 285.7 107.1 284.6ZM97.7999 317.4C100.3 320.1 103.6 322.1 107.2 323.1C105.2 320.9 103.8 318.3 102.9 315.5C101.2 315.9 99.4999 316.5 97.7999 317.4ZM118 284.6C119 285.7 119.8 286.9 120.4 288.2C121 289.5 121.6 290.8 122.2 292.2C123.9 291.7 125.6 291.1 127.2 290.3C124.7 287.6 121.5 285.6 118 284.6Z" fill="#D1D3D4"/>
<path d="M406.3 291.2C419.389 291.2 430 280.589 430 267.5C430 254.411 419.389 243.8 406.3 243.8C393.211 243.8 382.6 254.411 382.6 267.5C382.6 280.589 393.211 291.2 406.3 291.2Z" fill="white"/>
<path d="M406.3 291.9C392.8 291.9 381.9 281 381.9 267.5C381.9 254 392.8 243.1 406.3 243.1C419.8 243.1 430.7 254 430.7 267.5C430.7 281 419.8 291.9 406.3 291.9ZM406.3 244.5C393.6 244.5 383.3 254.8 383.3 267.5C383.3 280.2 393.6 290.5 406.3 290.5C419 290.5 429.3 280.2 429.3 267.5C429.3 254.8 419 244.5 406.3 244.5Z" fill="#D1D3D4"/>
<path d="M418.9 280.1H393.7C390.7 280.1 388.2 277.7 388.2 274.7V260.4C388.2 257.4 390.6 255 393.7 255H418.9C421.9 255 424.4 257.4 424.4 260.4V274.7C424.4 277.7 421.9 280.1 418.9 280.1ZM393.7 256.3C391.5 256.3 389.7 258.1 389.7 260.3V274.6C389.7 276.8 391.5 278.6 393.7 278.6H418.9C421.1 278.6 423 276.8 423 274.6V260.3C423 258.1 421.2 256.3 418.9 256.3H393.7Z" fill="#D1D3D4"/>
<path d="M400.5 275.5C400.4 275.5 400.2 275.5 400.1 275.4C399.9 275.3 399.8 275 399.8 274.8V260.3C399.8 259.9 400.1 259.6 400.5 259.6C400.6 259.6 400.7 259.6 400.8 259.7L415.8 267C416 267.1 416.2 267.4 416.2 267.6C416.2 267.9 416 268.1 415.8 268.2L400.8 275.5C400.8 275.5 400.7 275.5 400.5 275.5ZM401.2 261.4V273.7L413.8 267.6L401.2 261.4Z" fill="#D1D3D4"/>
<path d="M112.7 254.8C136.503 254.8 155.8 235.504 155.8 211.7C155.8 187.897 136.503 168.6 112.7 168.6C88.8964 168.6 69.5999 187.897 69.5999 211.7C69.5999 235.504 88.8964 254.8 112.7 254.8Z" fill="#FF3967"/>
<path d="M112.7 255.5C88.4999 255.5 68.8999 235.9 68.8999 211.7C68.8999 187.5 88.4999 167.9 112.7 167.9C136.9 167.9 156.5 187.5 156.5 211.7C156.5 235.9 136.9 255.5 112.7 255.5ZM112.7 169.3C89.2999 169.3 70.2999 188.3 70.2999 211.7C70.2999 235.1 89.2999 254.1 112.7 254.1C136.1 254.1 155.1 235.1 155.1 211.7C155.1 188.3 136.1 169.3 112.7 169.3Z" fill="#FF3967"/>
<path d="M140.2 231.6H85.2C84.8 231.6 84.5 231.3 84.5 230.9V192.5C84.5 192.1 84.8 191.8 85.2 191.8H140.2C140.6 191.8 140.9 192.1 140.9 192.5V230.9C140.9 231.3 140.6 231.6 140.2 231.6ZM85.9 230.2H139.5V193.2H85.9V230.2Z" fill="#D1D3D4"/>
<path d="M85.1999 231.6C84.9999 231.6 84.8999 231.6 84.7999 231.5C84.4999 231.3 84.3999 230.9 84.5999 230.5L106.3 201.3C106.4 201.1 106.6 201 106.8 201C107 201 107.2 201.1 107.4 201.2L124.4 221.3C124.6 221.6 124.6 222 124.3 222.3C124 222.5 123.6 222.5 123.4 222.2L107 202.7L85.7999 231.3C85.5999 231.5 85.3999 231.6 85.1999 231.6Z" fill="#D1D3D4"/>
<path d="M119.2 217C119.1 217 118.9 217 118.8 216.9C118.5 216.7 118.4 216.3 118.6 215.9L127.4 203.2C127.5 203 127.7 202.9 127.9 202.9C128.1 202.9 128.3 203 128.5 203.1L140.7 215.8C141 216.1 141 216.5 140.7 216.8C140.4 217.1 140 217.1 139.7 216.8L128.1 204.7L119.8 216.7C119.7 216.9 119.5 217 119.2 217Z" fill="#D1D3D4"/>
<path d="M120.2 204.3C117.9 204.3 116.1 202.5 116.1 200.2C116.1 197.9 117.9 196.1 120.2 196.1C122.5 196.1 124.3 197.9 124.3 200.2C124.3 202.4 122.4 204.3 120.2 204.3ZM120.2 197.5C118.7 197.5 117.5 198.7 117.5 200.2C117.5 201.7 118.7 202.9 120.2 202.9C121.7 202.9 122.9 201.7 122.9 200.2C122.9 198.7 121.7 197.5 120.2 197.5Z" fill="#D1D3D4"/>
<path d="M390.9 214.5C412.77 214.5 430.5 196.771 430.5 174.9C430.5 153.03 412.77 135.3 390.9 135.3C369.029 135.3 351.3 153.03 351.3 174.9C351.3 196.771 369.029 214.5 390.9 214.5Z" fill="#FF3967"/>
<path d="M390.9 215.2C368.7 215.2 350.6 197.2 350.7 174.9C350.8 152.6 368.7 134.6 391 134.7C413.2 134.7 431.2 152.7 431.2 175C431.1 197.1 413.1 215.2 390.9 215.2ZM390.9 136C369.4 136 352 153.4 352 174.9C352 196.4 369.4 213.8 390.9 213.8C412.4 213.8 429.8 196.4 429.8 174.9C429.7 153.5 412.3 136.1 390.9 136Z" fill="#D1D3D4"/>
<path d="M416.7 189.8H365C364.6 189.8 364.3 189.5 364.3 189.1V160.7C364.3 160.3 364.6 160 365 160H416.6C417 160 417.3 160.3 417.3 160.7V189.1C417.3 189.5 417 189.8 416.7 189.8ZM365.7 188.4H416V161.3H365.7V188.4Z" fill="#D1D3D4"/>
<path d="M390.9 179.1C390.8 179.1 390.6 179.1 390.5 179L364.7 161.2C364.4 161 364.4 160.5 364.6 160.2C364.8 159.9 365.2 159.9 365.5 160L390.9 177.5L416.3 160C416.6 159.8 417.1 159.8 417.3 160.2C417.5 160.5 417.5 160.9 417.2 161.2L391.3 179C391.1 179.1 391 179.1 390.9 179.1Z" fill="#D1D3D4"/>
<path d="M365 189.8C364.8 189.8 364.6 189.7 364.4 189.5C364.2 189.2 364.2 188.8 364.5 188.5L385.2 174.3C385.5 174.1 386 174.2 386.2 174.5C386.4 174.8 386.4 175.3 386 175.5L365.3 189.7C365.3 189.8 365.1 189.8 365 189.8Z" fill="#D1D3D4"/>
<path d="M416.7 189.8C416.6 189.8 416.4 189.8 416.3 189.7L395.6 175.5C395.3 175.3 395.2 174.8 395.4 174.5C395.6 174.2 396.1 174.1 396.4 174.3L417.1 188.5C417.4 188.7 417.5 189.1 417.3 189.5C417.1 189.7 416.9 189.9 416.7 189.8Z" fill="#D1D3D4"/>
<path d="M184.2 161.5C202.149 161.5 216.7 146.949 216.7 129C216.7 111.051 202.149 96.5 184.2 96.5C166.251 96.5 151.7 111.051 151.7 129C151.7 146.949 166.251 161.5 184.2 161.5Z" fill="white"/>
<path d="M184.2 162.2C165.8 162.2 151 147.3 151 129C151 110.7 165.9 95.8 184.2 95.8C202.6 95.8 217.4 110.7 217.4 129C217.4 147.4 202.5 162.2 184.2 162.2ZM184.2 97.2C166.6 97.2 152.4 111.4 152.4 129C152.4 146.6 166.6 160.8 184.2 160.8C201.8 160.8 216 146.6 216 129C216 111.4 201.7 97.2 184.2 97.2Z" fill="#D1D3D4"/>
<path d="M179.9 134.3H167.5C164.3 134.3 161.6 131.7 161.6 128.4V126.8C161.6 123.6 164.2 120.9 167.5 120.9H179.9C180.3 120.9 180.6 121.2 180.6 121.6V133.5C180.6 133.9 180.2 134.3 179.9 134.3ZM167.4 122.3C164.9 122.3 162.9 124.3 162.9 126.8V128.4C162.9 130.9 164.9 132.9 167.4 132.9H179.1V122.4L167.4 122.3Z" fill="#D1D3D4"/>
<path d="M199.9 144.2C199.8 144.2 199.7 144.2 199.6 144.1L179.6 134.2C179.4 134.1 179.2 133.8 179.2 133.6V121.3C179.2 121 179.4 120.8 179.6 120.7L199.6 110.8C199.9 110.6 200.4 110.8 200.5 111.1C200.5 111.2 200.6 111.3 200.6 111.4V143.5C200.6 143.7 200.5 144 200.3 144.1C200.1 144.1 200 144.2 199.9 144.2ZM180.6 133.2L199.2 142.4V112.6L180.6 121.8V133.2Z" fill="#D1D3D4"/>
<path d="M199.9 134.4C199.5 134.4 199.2 134.1 199.2 133.7C199.2 133.3 199.5 133 199.9 133C203 133 205.4 130.5 205.4 127.5C205.4 124.4 202.9 122 199.9 122C199.5 122 199.2 121.7 199.2 121.3C199.2 120.9 199.5 120.6 199.9 120.6C203.7 120.6 206.8 123.7 206.8 127.5C206.8 131.3 203.7 134.4 199.9 134.4Z" fill="#D1D3D4"/>
<path d="M172.8 147.3C170.8 147.3 169.3 145.7 169.3 143.8V133.6C169.3 133.2 169.6 132.9 170 132.9H175.7C176.1 132.9 176.4 133.2 176.4 133.6V143.8C176.3 145.7 174.7 147.3 172.8 147.3ZM170.6 134.3V143.8C170.6 145 171.6 145.9 172.7 145.9C173.9 145.9 174.8 144.9 174.8 143.8V134.3H170.6Z" fill="#D1D3D4"/>
<path d="M171.7 126.1H166.4C166 126.1 165.7 125.8 165.7 125.4C165.7 125 166 124.7 166.4 124.7H171.7C172.1 124.7 172.4 125 172.4 125.4C172.4 125.7 172 126.1 171.7 126.1Z" fill="#D1D3D4"/>
<path d="M187.9 309.6H152.2C151.8 309.6 151.5 309.3 151.5 308.9C151.5 308.5 151.8 308.2 152.2 308.2H187.9C188.3 308.2 188.6 308.5 188.6 308.9C188.6 309.3 188.3 309.6 187.9 309.6Z" fill="#D1D3D4"/>
<path d="M196.3 300.9H152.2C151.8 300.9 151.5 300.6 151.5 300.2C151.5 299.8 151.8 299.5 152.2 299.5H196.3C196.7 299.5 197 299.8 197 300.2C197 300.6 196.7 300.9 196.3 300.9Z" fill="#D1D3D4"/>
<path d="M194.3 292.4H152.2C151.8 292.4 151.5 292.1 151.5 291.7C151.5 291.3 151.8 291 152.2 291H194.3C194.7 291 195 291.3 195 291.7C195 292 194.7 292.4 194.3 292.4Z" fill="#D1D3D4"/>
</svg>
