<svg width="24" height="24" viewBox="0 0 24 24" fill="none" xmlns="http://www.w3.org/2000/svg">
<rect x="11.6016" y="5.02356" width="9.82825" height="13.1043" rx="2" fill="#ECEFF1"/>
<path fill-rule="evenodd" clip-rule="evenodd" d="M8.20171 3.90743C4.37136 4.62862 3.37661 4.82743 3.27073 4.8929C3.19243 4.94129 3.10978 5.03715 3.06903 5.12689C3.00256 5.27322 3 5.52435 3 11.9033C3 18.2823 3.00256 18.5334 3.06903 18.6798C3.11022 18.7705 3.1925 18.8654 3.27311 18.9152C3.38229 18.9827 4.33246 19.1721 8.23927 19.9047C11.4247 20.5022 13.1106 20.8032 13.1885 20.7886C13.3815 20.7524 13.5374 20.6342 13.6137 20.4661C13.6813 20.3173 13.685 20.1994 13.6858 18.1868L13.6866 16.0644L14.6608 16.0528C15.5869 16.0419 15.6414 16.0373 15.7649 15.9604C15.9403 15.8511 16.0389 15.6732 16.0389 15.4661C16.0389 15.259 15.9403 15.0811 15.7649 14.9718C15.6414 14.8948 15.5869 14.8903 14.6608 14.8793L13.6866 14.8678V14.2785V13.6892L14.6608 13.6777C15.5869 13.6667 15.6414 13.6621 15.7649 13.5852C16.1322 13.3563 16.1322 12.8255 15.7649 12.5966C15.6414 12.5197 15.5869 12.5151 14.6608 12.5041L13.6866 12.4926V11.9033V11.314L14.6608 11.3025C15.5574 11.2919 15.6448 11.2851 15.7581 11.2168C16.1324 10.9912 16.1324 10.4403 15.7581 10.2147C15.6448 10.1464 15.5574 10.1396 14.6608 10.129L13.6866 10.1175V9.52817V8.93887L14.6608 8.92737C15.5869 8.91638 15.6414 8.91182 15.7649 8.83488C15.9403 8.72559 16.0389 8.54767 16.0389 8.34059C16.0389 8.13351 15.9403 7.95559 15.7649 7.8463C15.6414 7.76936 15.5869 7.7648 14.6608 7.75381L13.6866 7.74231V5.61847V3.49467L13.6031 3.32908C13.5124 3.14916 13.271 2.99321 13.0942 3.00023C13.0424 3.00227 10.8408 3.4105 8.20171 3.90743ZM17.6692 7.78629C17.5057 7.83557 17.333 8.01931 17.2859 8.19411C17.2049 8.49501 17.3945 8.81644 17.702 8.89923C17.7952 8.92436 18.1132 8.93542 18.5258 8.92796C19.14 8.91686 19.2089 8.90888 19.3276 8.83488C19.503 8.72559 19.6017 8.54767 19.6017 8.34059C19.6017 8.13351 19.503 7.95559 19.3276 7.8463C19.2073 7.77133 19.1457 7.7648 18.4926 7.75801C18.1048 7.754 17.7343 7.76669 17.6692 7.78629ZM11.0174 8.42498C11.2104 8.55506 11.3114 8.7306 11.3114 8.93612C11.3114 9.15816 11.3052 9.1674 10.2137 10.5673C9.74419 11.1694 9.34743 11.6827 9.33195 11.7078C9.31377 11.7374 9.62629 12.1211 10.2157 12.793C10.7173 13.3647 11.169 13.8934 11.2195 13.9679C11.5514 14.4569 10.9363 15.1072 10.4326 14.8C10.3676 14.7604 9.91806 14.2754 9.43357 13.7222C8.72796 12.9167 8.54366 12.726 8.50766 12.7645C8.48294 12.7909 8.1659 13.1967 7.80309 13.6661C6.89055 14.847 6.86427 14.8723 6.5499 14.8723C6.23912 14.8723 5.96732 14.5944 5.96732 14.2767C5.96732 14.0571 5.98517 14.0301 6.94547 12.7996C7.34925 12.2822 7.68771 11.8377 7.69766 11.8118C7.70757 11.786 7.35448 11.3518 6.913 10.847C6.47152 10.3422 6.07817 9.87654 6.03894 9.81219C5.7432 9.32713 6.36067 8.71059 6.8459 9.00649C6.9107 9.04597 7.3016 9.46397 7.71462 9.93529C8.1276 10.4066 8.47875 10.7876 8.49493 10.7818C8.51111 10.7761 8.89407 10.2955 9.34591 9.71373C9.79774 9.132 10.2036 8.61626 10.2477 8.5676C10.4659 8.32719 10.7847 8.26811 11.0174 8.42498ZM17.6692 10.1614C17.5057 10.2107 17.333 10.3945 17.2859 10.5693C17.2049 10.8702 17.3945 11.1916 17.702 11.2744C17.7952 11.2995 18.1132 11.3106 18.5258 11.3031C19.14 11.292 19.2089 11.284 19.3276 11.21C19.503 11.1007 19.6017 10.9228 19.6017 10.7157C19.6017 10.5087 19.503 10.3308 19.3276 10.2215C19.2073 10.1465 19.1457 10.14 18.4926 10.1332C18.1048 10.1292 17.7343 10.1419 17.6692 10.1614ZM17.6692 12.5366C17.5057 12.5859 17.333 12.7696 17.2859 12.9444C17.2049 13.2453 17.3945 13.5668 17.702 13.6496C17.7952 13.6747 18.1132 13.6857 18.5258 13.6783C19.14 13.6672 19.2089 13.6592 19.3276 13.5852C19.503 13.4759 19.6017 13.298 19.6017 13.0909C19.6017 12.8838 19.503 12.7059 19.3276 12.5966C19.2073 12.5217 19.1457 12.5151 18.4926 12.5083C18.1048 12.5043 17.7343 12.517 17.6692 12.5366ZM17.6692 14.9118C17.5057 14.9611 17.333 15.1448 17.2859 15.3196C17.2049 15.6205 17.3945 15.9419 17.702 16.0247C17.7952 16.0498 18.1132 16.0609 18.5258 16.0534C19.14 16.0423 19.2089 16.0344 19.3276 15.9604C19.503 15.8511 19.6017 15.6732 19.6017 15.4661C19.6017 15.259 19.503 15.0811 19.3276 14.9718C19.2073 14.8968 19.1457 14.8903 18.4926 14.8835C18.1048 14.8795 17.7343 14.8922 17.6692 14.9118Z" fill="#2E7D32"/>
</svg>
