<svg width="24" height="24" viewBox="0 0 24 24" fill="none" xmlns="http://www.w3.org/2000/svg">
<path d="M7 18H6.2C5.0799 18 4.51984 18 4.09202 17.782C3.71569 17.5903 3.40973 17.2843 3.21799 16.908C3 16.4802 3 15.9201 3 14.8V10.2C3 9.0799 3 8.51984 3.21799 8.09202C3.40973 7.71569 3.71569 7.40973 4.09202 7.21799C4.51984 7 5.0799 7 6.2 7H17.8C18.9201 7 19.4802 7 19.908 7.21799C20.2843 7.40973 20.5903 7.71569 20.782 8.09202C21 8.51984 21 9.07989 21 10.2V14.8C21 15.9201 21 16.4802 20.782 16.908C20.5903 17.2843 20.2843 17.5903 19.908 17.782C19.4802 18 18.9201 18 17.8 18H17M7 11H7.01M8.6 21H15.4C15.9601 21 16.2401 21 16.454 20.891C16.6422 20.7951 16.7951 20.6422 16.891 20.454C17 20.2401 17 19.9601 17 19.4V16.6C17 16.0399 17 15.7599 16.891 15.546C16.7951 15.3578 16.6422 15.2049 16.454 15.109C16.2401 15 15.9601 15 15.4 15H8.6C8.03995 15 7.75992 15 7.54601 15.109C7.35785 15.2049 7.20487 15.3578 7.10899 15.546C7 15.7599 7 16.0399 7 16.6V19.4C7 19.9601 7 20.2401 7.10899 20.454C7.20487 20.6422 7.35785 20.7951 7.54601 20.891C7.75992 21 8.03995 21 8.6 21ZM8.6 7H15.4C15.9601 7 16.2401 7 16.454 6.89101C16.6422 6.79513 16.7951 6.64215 16.891 6.45399C17 6.24008 17 5.96005 17 5.4V4.6C17 4.03995 17 3.75992 16.891 3.54601C16.7951 3.35785 16.6422 3.20487 16.454 3.10899C16.2401 3 15.9601 3 15.4 3H8.6C8.03995 3 7.75992 3 7.54601 3.10899C7.35785 3.20487 7.20487 3.35785 7.10899 3.54601C7 3.75992 7 4.03995 7 4.6V5.4C7 5.96005 7 6.24008 7.10899 6.45399C7.20487 6.64215 7.35785 6.79513 7.54601 6.89101C7.75992 7 8.03995 7 8.6 7Z" stroke="#0866a1" stroke-width="2" stroke-linecap="round" stroke-linejoin="round"/>
</svg>
