<svg width="500" height="500" viewBox="0 0 500 500" fill="none" xmlns="http://www.w3.org/2000/svg">
<path d="M46.7001 123H453.2C460.6 123 466.6 129 466.6 136.4V363.6C466.6 371 460.6 377 453.2 377H46.7001C39.3001 377 33.3 371 33.3 363.6V136.4C33.3 129 39.3001 123 46.7001 123Z" fill="white"/>
<path d="M447.9 377.7H52.1001C41.3001 377.7 32.6001 369 32.6001 358.2V141.8C32.6001 131 41.3001 122.3 52.1001 122.3H447.9C458.7 122.3 467.4 131 467.4 141.8V358.2C467.4 369 458.7 377.7 447.9 377.7ZM52.1001 123.7C42.1001 123.7 34.0001 131.8 34.0001 141.8V358.2C34.0001 368.2 42.1001 376.3 52.1001 376.3H447.9C457.9 376.3 466 368.2 466 358.2V141.8C466 131.8 457.9 123.7 447.9 123.7H52.1001Z" fill="#231F20"/>
<path d="M466.7 150.6H33.3001C32.9001 150.6 32.6001 150.3 32.6001 149.9C32.6001 149.5 32.9001 149.2 33.3001 149.2H466.7C467.1 149.2 467.4 149.5 467.4 149.9C467.4 150.3 467.1 150.6 466.7 150.6Z" fill="#231F20"/>
<path d="M218.2 174.9H75.8999V346.7H218.2V174.9Z" fill="white"/>
<path d="M218.2 175V346.8H75.9V175H218.2ZM218.2 173.6H75.9C75.1 173.6 74.5 174.2 74.5 175V346.8C74.5 347.6 75.1 348.2 75.9 348.2H218.2C219 348.2 219.6 347.6 219.6 346.8V175C219.6 174.2 219 173.6 218.2 173.6Z" fill="#231F20"/>
<path d="M100.6 250.2C96.6001 256.6 95.6001 264.3 95.1001 271.8H202.8C202.9 271.4 203 270.9 203 270.5C203 262.7 190.6 260.5 188.9 253.3C187.9 249 190.7 244.9 191.2 240.5C192.2 233.2 187 226.7 183.7 220.1C179.7 212 181.7 201.7 176.5 194.5C169.6 185.1 158.4 183.1 147.2 183.1C141 183 134.8 184.3 129 186.8C123.7 189.1 121.2 194.3 120 200C117.9 199.1 115.3 200.1 113.4 201.4C104.8 207.3 102.5 218.8 104.2 228.5C105 233.1 106.7 237.9 105.3 242.4C104.3 245.3 102.2 247.6 100.6 250.2Z" fill="#FF3967"/>
<path d="M202.7 272.6H95.0999C94.8999 272.6 94.6999 272.5 94.5999 272.4C94.4999 272.3 94.3999 272.1 94.3999 271.9C94.8999 264.8 95.7999 256.7 99.9999 249.9C100.5 249.1 101 248.4 101.5 247.7C102.8 246.1 103.8 244.2 104.5 242.3C105.5 239 104.8 235.3 104 231.8C103.8 230.8 103.6 229.7 103.4 228.7C101.9 219.9 103.4 207.4 112.9 200.9C115.2 199.3 117.5 198.7 119.4 199.2C121.1 192.5 124.1 188.3 128.7 186.3C134.5 183.8 140.8 182.5 147.1 182.6C157 182.6 169.4 183.9 177 194.3C180 198.4 180.7 203.4 181.4 208.3C182 212.3 182.5 216.4 184.3 220C185.1 221.5 185.9 223.1 186.8 224.6C189.7 229.7 192.7 235 191.9 240.9C191.6 242.6 191.2 244.2 190.6 245.8C189.7 248.4 188.9 250.9 189.5 253.4C190.2 256.5 193.2 258.6 196.3 260.9C199.9 263.5 203.7 266.3 203.7 270.8C203.7 271.3 203.6 271.8 203.5 272.3C203.4 272.3 203.1 272.6 202.7 272.6ZM95.7999 271.1H202.1C202.1 270.9 202.1 270.7 202.1 270.5C202.1 266.7 198.8 264.3 195.3 261.7C192.1 259.4 188.9 257 188 253.4C187.3 250.5 188.2 247.7 189.1 245C189.6 243.5 190.1 241.9 190.3 240.4C191 235 188.1 230 185.4 225C184.5 223.5 183.6 221.9 182.9 220.4C181 216.6 180.4 212.4 179.9 208.3C179.2 203.4 178.6 198.7 175.8 194.9C168.6 185.1 156.7 183.8 147.1 183.8C141 183.7 134.9 185 129.2 187.4C124.9 189.3 122.1 193.3 120.6 200.1C120.5 200.5 120.1 200.7 119.7 200.6H119.6C117.5 199.7 115 201 113.7 201.9C104.8 208 103.3 219.9 104.8 228.3C105 229.3 105.2 230.3 105.4 231.4C106.2 235.1 107 238.9 105.9 242.6C105.1 244.7 104.1 246.6 102.7 248.4C102.2 249.1 101.7 249.8 101.3 250.6C97.2999 256.9 96.3999 264.4 95.7999 271.1Z" fill="#231F20"/>
<path d="M218.2 297.1V346.7H75.8999V297.1C90.2999 283.5 110.9 278.8 128.5 277.2C135.3 276.6 141.6 276.5 147 276.5H148.3C153.3 276.5 159.1 276.7 165.2 277.2C165.3 277.2 165.4 277.2 165.5 277.2C183.2 278.9 203.8 283.5 218.2 297.1Z" fill="#388CE0"/>
<path d="M166 286.8L152.6 333.2L148.7 346.7H145.5L141.6 333.1L128.2 287L128.1 286.9C137.2 284.1 156.9 284.1 166 286.8Z" fill="#231F20"/>
<path d="M128.1 286.8C128.1 286.8 132.8 297.1 146.6 297.1C160.4 297.1 166 286.8 166 286.8L164.2 246.4H130L128.1 286.8Z" fill="white"/>
<path d="M146.6 297.8C132.5 297.8 127.5 287.2 127.4 287.1C127.4 287 127.3 286.9 127.3 286.8L129.1 246.4C129.1 246 129.4 245.7 129.8 245.7H164C164.4 245.7 164.7 246 164.7 246.4L166.6 286.8C166.6 286.9 166.6 287.1 166.5 287.2C162.3 294 154.7 298 146.6 297.8ZM128.9 286.7C129.5 288 134.3 296.4 146.7 296.4C154.2 296.6 161.2 292.9 165.3 286.6L163.5 247.1H130.7L128.9 286.7Z" fill="#231F20"/>
<path d="M130 263.7C132.4 267.5 136.3 270.5 140.3 272.8C147.1 276.6 157.2 280.8 165.4 279.5L164 262.4C158 263.2 151.9 263.2 145.9 262.5C140.6 262 135.1 261.5 130.3 259.5C129.4 259.1 128.9 262 130 263.7Z" fill="#231F20"/>
<path d="M162.3 280.4C154 280.4 145 276.1 140 273.4C135 270.7 131.6 267.6 129.4 264.1C128.4 262.6 128.5 260.1 129.3 259.2C129.6 258.8 130.1 258.7 130.6 258.9C135.5 260.9 141.1 261.4 146 261.9C152 262.6 158 262.5 164 261.8C164.2 261.8 164.4 261.8 164.5 261.9C164.7 262 164.8 262.2 164.8 262.4L166.2 279.5C166.2 279.9 166 280.2 165.6 280.2C164.5 280.3 163.4 280.4 162.3 280.4ZM130.3 260.2C130 261.2 130.1 262.4 130.6 263.3C132.6 266.6 136 269.5 140.7 272.1C146.1 275.1 156.2 279.8 164.7 278.8L163.5 263.1C157.7 263.8 151.8 263.8 145.9 263.1C140.9 262.7 135.3 262.2 130.3 260.2Z" fill="#231F20"/>
<path d="M147.1 307.8L140.6 302.8L147.1 297.8L153.6 302.8L147.1 307.8Z" fill="white"/>
<path d="M152.6 333.2L148.7 346.8H145.5L141.6 333.2L144.8 306L144.9 305.1L145 304.5H149.2L149.3 305.1L149.4 306L152.6 333.2Z" fill="white"/>
<path d="M98.9999 347.5C98.5999 347.5 98.2999 347.2 98.2999 346.9L92.7999 305.2C92.6999 304.8 92.9999 304.4 93.3999 304.4C93.7999 304.3 94.1999 304.6 94.1999 305L99.6999 346.7C99.7999 347 99.4999 347.4 98.9999 347.5Z" fill="#231F20"/>
<path d="M195.2 347.5H195.1C194.7 347.4 194.4 347.1 194.5 346.7L200 305C200.1 304.6 200.4 304.3 200.8 304.4C201.2 304.5 201.5 304.8 201.4 305.2L195.9 346.9C195.8 347.2 195.5 347.5 195.2 347.5Z" fill="#231F20"/>
<path d="M168.6 237.1C169.7 227.6 181.5 225.3 180.9 236.5C180.7 240.3 179.8 244.2 177.8 247C175.8 249.8 172.6 251 169.9 249.5" fill="white"/>
<path d="M172.4 250.8C171.4 250.8 170.4 250.5 169.6 250C169.3 249.8 169.1 249.4 169.3 249C169.5 248.7 170 248.5 170.3 248.8C172.4 250.1 175.3 249.2 177.2 246.5C178.9 244.2 180 240.6 180.2 236.4C180.4 232.4 179 229.9 176.4 229.7C173.4 229.4 169.9 232.4 169.3 237.1C169.3 237.5 168.9 237.8 168.5 237.7C168.1 237.7 167.8 237.3 167.9 236.9C168.6 231.1 172.9 227.9 176.5 228.2C179.2 228.4 181.9 230.7 181.6 236.4C181.4 239.6 180.7 244 178.3 247.3C177 249.4 174.8 250.7 172.4 250.8Z" fill="#231F20"/>
<path d="M124.4 237.1C123.3 227.6 111.5 225.3 112.1 236.5C112.3 240.3 113.2 244.2 115.2 247C117.2 249.8 120.5 251 123.1 249.5" fill="white"/>
<path d="M120.7 250.8C118.3 250.7 116 249.4 114.7 247.4C112.3 244.1 111.6 239.7 111.4 236.5C111.1 230.8 113.8 228.5 116.5 228.3C120.1 228 124.4 231.2 125.1 237C125.2 237.4 124.9 237.7 124.5 237.8C124.1 237.8 123.8 237.6 123.7 237.2C123.1 232.4 119.6 229.5 116.6 229.8C114 230 112.6 232.5 112.8 236.5C113 240.7 114.1 244.3 115.8 246.6C117.7 249.2 120.6 250.2 122.7 248.9C123 248.7 123.5 248.8 123.7 249.1C123.9 249.4 123.8 249.9 123.5 250.1C122.6 250.6 121.6 250.8 120.7 250.8Z" fill="#231F20"/>
<path d="M172.4 216.3V243.8C172.4 257 161.7 267.7 148.5 267.7H145.7C132.5 267.7 121.8 257 121.8 243.8V217.7L136.8 216.4L138.5 204.5L142.3 218L153 216.6C154.1 211.8 153 201.5 152.8 201.1L160.5 215.5L172.4 216.3Z" fill="white"/>
<path d="M148.5 268.4H145.7C132.1 268.4 121.1 257.4 121.1 243.8V217.7C121.1 217.3 121.4 217 121.8 217L136.3 215.8L137.9 204.4C138 204.1 138.2 203.8 138.6 203.8C138.9 203.8 139.3 204 139.3 204.3L142.9 217.2L152.4 215.9C153.3 211.1 152.2 201.7 152.1 201.2C152 200.8 152.3 200.4 152.7 200.3C153 200.2 153.3 200.4 153.5 200.7L161 214.8L172.4 215.6C172.8 215.6 173.1 215.9 173.1 216.3V243.8C173.1 257.3 162.1 268.4 148.5 268.4ZM122.5 218.4V243.8C122.5 256.6 132.9 267 145.7 267H148.5C161.3 267 171.7 256.6 171.7 243.8V217L160.5 216.3C160.3 216.3 160 216.1 159.9 215.9L153.9 204.7C154.2 208.3 154.4 213.7 153.7 216.8C153.6 217.1 153.4 217.3 153.1 217.4L142.4 218.8C142 218.8 141.7 218.6 141.6 218.3L138.8 208.1L137.6 216.6C137.6 216.9 137.3 217.2 137 217.2L122.5 218.4Z" fill="#231F20"/>
<path d="M192 319.7H168.6V325.9H192V319.7Z" fill="white"/>
<path d="M147.4 246.7C146.3 246.7 145.1 246.6 144 246.5C143.5 246.4 143 246.1 142.8 245.7C141 242.7 145.7 230.2 146.7 227.7C146.8 227.3 147.3 227.1 147.6 227.3C148 227.4 148.2 227.8 148 228.2C145.9 233.7 142.9 243.1 144 245C144.1 245.1 144.1 245.1 144.1 245.1C146.3 245.3 148.6 245.3 150.9 245.1C151.3 245 151.6 245.3 151.7 245.7C151.8 246.1 151.5 246.5 151.1 246.5C149.9 246.7 148.7 246.7 147.4 246.7Z" fill="#231F20"/>
<path d="M307.3 189.1H426.6C427.8 189.1 428.7 190.1 428.7 191.2V192.9C428.7 194.1 427.7 195 426.6 195H307.3C306.1 195 305.2 194 305.2 192.9V191.2C305.2 190 306.1 189.1 307.3 189.1Z" fill="#D1D3D4"/>
<path d="M307.3 236.6H378.2C379.4 236.6 380.3 237.6 380.3 238.7V240.4C380.3 241.6 379.3 242.5 378.2 242.5H307.3C306.1 242.5 305.2 241.5 305.2 240.4V238.7C305.2 237.5 306.1 236.6 307.3 236.6Z" fill="#D1D3D4"/>
<path d="M307.3 281.8H412.1C413.3 281.8 414.2 282.8 414.2 283.9V285.6C414.2 286.8 413.2 287.7 412.1 287.7H307.3C306.1 287.7 305.2 286.7 305.2 285.6V283.9C305.2 282.8 306.1 281.8 307.3 281.8Z" fill="#D1D3D4"/>
<path d="M307.3 327.1H398.5C399.7 327.1 400.6 328.1 400.6 329.2V330.9C400.6 332.1 399.6 333 398.5 333H307.3C306.1 333 305.2 332 305.2 330.9V329.2C305.2 328 306.1 327.1 307.3 327.1Z" fill="#D1D3D4"/>
<path d="M274.1 204.3V200.4C274.1 195.8 270.4 192 265.7 192C261.1 192 257.3 195.7 257.3 200.3V204.2H274.1V204.3Z" fill="white"/>
<path d="M274.1 205H257.4C257 205 256.7 204.7 256.7 204.3V200.4C256.7 195.4 260.8 191.3 265.8 191.3C270.8 191.3 274.8 195.4 274.8 200.4V204.3C274.8 204.7 274.5 205 274.1 205ZM258.1 203.6H273.4V200.4C273.4 196.2 270 192.7 265.8 192.7C261.6 192.7 258.1 196.1 258.1 200.3V203.6Z" fill="#D1D3D4"/>
<path d="M265.8 192.1C269.114 192.1 271.8 189.414 271.8 186.1C271.8 182.786 269.114 180.1 265.8 180.1C262.486 180.1 259.8 182.786 259.8 186.1C259.8 189.414 262.486 192.1 265.8 192.1Z" fill="white"/>
<path d="M265.8 192.8C262.1 192.8 259.1 189.8 259.1 186.1C259.1 182.4 262.1 179.4 265.8 179.4C269.5 179.4 272.5 182.4 272.5 186.1C272.4 189.8 269.4 192.8 265.8 192.8ZM265.8 180.8C262.9 180.8 260.5 183.1 260.5 186C260.5 188.9 262.8 191.3 265.7 191.3C268.6 191.3 271 189 271 186.1C271 183.2 268.6 180.9 265.8 180.8Z" fill="#D1D3D4"/>
<path d="M275.3 249.2H254.2V234.1L264.7 228L275.3 234.1V249.2Z" fill="white"/>
<path d="M275.3 250H254.2C253.8 250 253.5 249.7 253.5 249.3V234.1C253.5 233.8 253.6 233.6 253.9 233.5L264.5 227.4C264.7 227.3 265 227.3 265.2 227.4L275.8 233.5C276 233.6 276.1 233.9 276.2 234.1V249.2C276 249.6 275.7 250 275.3 250ZM254.9 248.6H274.6V234.6L264.7 228.9L254.8 234.6V248.6H254.9Z" fill="#D1D3D4"/>
<path d="M268.5 238.6H261.1V249.2H268.5V238.6Z" fill="white"/>
<path d="M268.4 250H261C260.6 250 260.3 249.7 260.3 249.3V238.6C260.3 238.2 260.6 237.9 261 237.9H268.4C268.8 237.9 269.1 238.2 269.1 238.6V249.2C269.1 249.6 268.8 250 268.4 250ZM261.8 248.6H267.8V239.4H261.8V248.6Z" fill="#D1D3D4"/>
<path d="M250.9 235.9L264.7 228L278.5 235.9" fill="white"/>
<path d="M278.5 236.6C278.4 236.6 278.3 236.6 278.2 236.5L264.8 228.8L251.3 236.5C251 236.7 250.5 236.6 250.3 236.2C250.1 235.8 250.2 235.4 250.6 235.2L264.4 227.3C264.6 227.2 264.9 227.2 265.1 227.3L278.8 235.2C279.1 235.4 279.3 235.8 279.1 236.1C279.1 236.1 279.1 236.1 279.1 236.2C278.9 236.5 278.7 236.6 278.5 236.6Z" fill="#D1D3D4"/>
<path d="M253.8 280.4H276C276.8 280.4 277.4 281 277.4 281.8V292.8C277.4 293.6 276.8 294.2 276 294.2H253.8C253 294.2 252.4 293.6 252.4 292.8V281.8C252.3 281 253 280.4 253.8 280.4Z" fill="white"/>
<path d="M275.4 294.9H254.4C252.9 294.9 251.7 293.7 251.7 292.2V282.4C251.7 280.9 252.9 279.7 254.4 279.7H275.4C276.9 279.7 278.1 280.9 278.1 282.4V292.2C278.1 293.7 276.9 294.9 275.4 294.9ZM254.4 281.1C253.7 281.1 253.1 281.7 253.1 282.4V292.2C253.1 292.9 253.7 293.5 254.4 293.5H275.4C276.1 293.5 276.7 292.9 276.7 292.2V282.4C276.7 281.7 276.1 281.1 275.4 281.1H254.4Z" fill="#D1D3D4"/>
<path d="M261.6 276.6H268.6C269.5 276.6 270.3 277.4 270.3 278.3V280.4H259.9V278.3C259.9 277.4 260.6 276.6 261.6 276.6Z" fill="white"/>
<path d="M270.4 281.1H259.9C259.5 281.1 259.2 280.8 259.2 280.4V279C259.2 277.3 260.6 275.9 262.3 275.9H268C269.7 275.9 271.1 277.3 271.1 279V280.4C271.1 280.8 270.8 281.1 270.4 281.1ZM260.6 279.7H269.7V279C269.7 278.1 268.9 277.3 268 277.3H262.3C261.4 277.3 260.6 278.1 260.6 279V279.7Z" fill="#D1D3D4"/>
<path d="M275.9 320.4H257.9V341.4H275.9V320.4Z" fill="white"/>
<path d="M275.9 342.1H257.9C257.5 342.1 257.2 341.8 257.2 341.4V320.4C257.2 320 257.5 319.7 257.9 319.7H275.9C276.3 319.7 276.6 320 276.6 320.4V341.4C276.6 341.8 276.3 342.1 275.9 342.1ZM258.6 340.7H275.2V321.1H258.6V340.7Z" fill="#D1D3D4"/>
<path d="M271.4 317.4H253.4V338.4H271.4V317.4Z" fill="white"/>
<path d="M271.5 339H253.5C253.1 339 252.8 338.7 252.8 338.3V317.3C252.8 316.9 253.1 316.6 253.5 316.6H271.5C271.9 316.6 272.2 316.9 272.2 317.3V338.3C272.2 338.7 271.8 339 271.5 339ZM254.1 337.6H270.7V318.1H254.1V337.6Z" fill="#D1D3D4"/>
<path d="M266.9 323.4H257.2C256.8 323.4 256.5 323.1 256.5 322.7C256.5 322.3 256.8 322 257.2 322H266.9C267.3 322 267.6 322.3 267.6 322.7C267.6 323.1 267.3 323.4 266.9 323.4Z" fill="#D1D3D4"/>
<path d="M266.9 326.9H257.2C256.8 326.9 256.5 326.6 256.5 326.2C256.5 325.8 256.8 325.5 257.2 325.5H266.9C267.3 325.5 267.6 325.8 267.6 326.2C267.6 326.6 267.3 326.9 266.9 326.9Z" fill="#D1D3D4"/>
<path d="M266.9 330.5H257.2C256.8 330.5 256.5 330.2 256.5 329.8C256.5 329.4 256.8 329.1 257.2 329.1H266.9C267.3 329.1 267.6 329.4 267.6 329.8C267.6 330.1 267.3 330.4 266.9 330.5Z" fill="#D1D3D4"/>
<path d="M266.9 334H257.2C256.8 334 256.5 333.7 256.5 333.3C256.5 332.9 256.8 332.6 257.2 332.6H266.9C267.3 332.6 267.6 332.9 267.6 333.3C267.6 333.7 267.3 334 266.9 334Z" fill="#D1D3D4"/>
</svg>
