<svg width="24" height="24" viewBox="0 0 24 24" fill="none" xmlns="http://www.w3.org/2000/svg">
<path d="M21 10V9.8C21 8.11984 21 7.27976 20.673 6.63803C20.3854 6.07354 19.9265 5.6146 19.362 5.32698C18.7202 5 17.8802 5 16.2 5H13M21 10V16.2C21 17.8802 21 18.7202 20.673 19.362C20.3854 19.9265 19.9265 20.3854 19.362 20.673C18.7202 21 17.8802 21 16.2 21H7.8C6.11984 21 5.27976 21 4.63803 20.673C4.07354 20.3854 3.6146 19.9265 3.32698 19.362C3 18.7202 3 17.8802 3 16.2V8C3 6.34315 4.34315 5 6 5M21 10H14.6C14.0399 10 13.7599 10 13.546 9.89101C13.3578 9.79513 13.2049 9.64215 13.109 9.45399C13 9.24008 13 8.96005 13 8.4V5M10.2 5H13M14 14H14.01V13.99H14V14ZM14 17H14.01V17.01H14V17ZM17 17H17.01V17.01H17V17ZM17 14H17.01V14.01H17V14ZM7.6 17H8.4C8.96005 17 9.24008 17 9.45399 16.891C9.64215 16.7951 9.79513 16.6422 9.89101 16.454C10 16.2401 10 15.9601 10 15.4V4.6C10 4.03995 10 3.75992 9.89101 3.54601C9.79513 3.35785 9.64215 3.20487 9.45399 3.10899C9.24008 3 8.96005 3 8.4 3H7.6C7.03995 3 6.75992 3 6.54601 3.10899C6.35785 3.20487 6.20487 3.35785 6.10899 3.54601C6 3.75992 6 4.03995 6 4.6V15.4C6 15.9601 6 16.2401 6.10899 16.454C6.20487 16.6422 6.35785 16.7951 6.54601 16.891C6.75992 17 7.03995 17 7.6 17Z" stroke="#0866a1" stroke-width="2" stroke-linecap="round" stroke-linejoin="round"/>
</svg>
