<svg width="500" height="500" viewBox="0 0 500 500" fill="none" xmlns="http://www.w3.org/2000/svg">
<path d="M428.5 95.3H155.9V359.9H428.5V95.3Z" fill="white"/>
<path d="M428.5 95.3V359.9H155.9V95.3H428.5ZM428.5 94H155.9C155.2 94 154.6 94.6 154.6 95.3V359.9C154.6 360.6 155.2 361.2 155.9 361.2H428.5C429.2 361.2 429.8 360.6 429.8 359.9V95.3C429.9 94.6 429.3 94 428.5 94Z" fill="#231F20"/>
<path d="M235.1 128.2H297.1C298 128.2 298.7 128.9 298.7 129.8V131.4C298.7 132.3 298 133 297.1 133H235.1C234.2 133 233.5 132.3 233.5 131.4V129.8C233.5 128.9 234.2 128.2 235.1 128.2Z" fill="#D1D3D4"/>
<path d="M259.9 150.8H235.5V178.3H259.9V150.8Z" fill="#D1D3D4"/>
<path d="M275 152.8H391.7C393.7 152.8 395.3 154.4 395.3 156.4C395.3 158.4 393.7 160 391.7 160H275C273 160 271.4 158.4 271.4 156.4C271.4 154.4 273 152.8 275 152.8Z" fill="#D1D3D4"/>
<path d="M275 166.6H354.8C356.8 166.6 358.4 168.2 358.4 170.2C358.4 172.2 356.8 173.8 354.8 173.8H275C273 173.8 271.4 172.2 271.4 170.2C271.4 168.2 273 166.6 275 166.6Z" fill="#D1D3D4"/>
<path d="M259.9 265.3H235.5V292.8H259.9V265.3Z" fill="#D1D3D4"/>
<path d="M275 267.4H391.7C393.7 267.4 395.3 269 395.3 271C395.3 273 393.7 274.6 391.7 274.6H275C273 274.6 271.4 273 271.4 271C271.4 269 273 267.4 275 267.4Z" fill="#D1D3D4"/>
<path d="M275 281.1H354.8C356.8 281.1 358.4 282.7 358.4 284.7C358.4 286.7 356.8 288.3 354.8 288.3H275C273 288.3 271.4 286.7 271.4 284.7C271.4 282.7 273 281.1 275 281.1Z" fill="#D1D3D4"/>
<path d="M259.9 308H235.5V335.5H259.9V308Z" fill="#D1D3D4"/>
<path d="M275 310H391.7C393.7 310 395.3 311.6 395.3 313.6C395.3 315.6 393.7 317.2 391.7 317.2H275C273 317.2 271.4 315.6 271.4 313.6C271.4 311.6 273 310 275 310Z" fill="#D1D3D4"/>
<path d="M275 323.8H354.8C356.8 323.8 358.4 325.4 358.4 327.4C358.4 329.4 356.8 331 354.8 331H275C273 331 271.4 329.4 271.4 327.4C271.4 325.4 273 323.8 275 323.8Z" fill="#D1D3D4"/>
<path d="M167 107.5C168.602 107.5 169.9 106.202 169.9 104.6C169.9 102.998 168.602 101.7 167 101.7C165.398 101.7 164.1 102.998 164.1 104.6C164.1 106.202 165.398 107.5 167 107.5Z" fill="#388CE0"/>
<path d="M177.2 107.5C178.802 107.5 180.1 106.202 180.1 104.6C180.1 102.998 178.802 101.7 177.2 101.7C175.599 101.7 174.3 102.998 174.3 104.6C174.3 106.202 175.599 107.5 177.2 107.5Z" fill="#D1D3D4"/>
<path d="M187.4 107.5C189.002 107.5 190.3 106.202 190.3 104.6C190.3 102.998 189.002 101.7 187.4 101.7C185.798 101.7 184.5 102.998 184.5 104.6C184.5 106.202 185.798 107.5 187.4 107.5Z" fill="#D1D3D4"/>
<path d="M214.7 113.8H213.2V359.9H214.7V113.8Z" fill="#D1D3D4"/>
<path d="M428.5 113.1H155.9V114.6H428.5V113.1Z" fill="#D1D3D4"/>
<path d="M466.8 390.6H55.9002C55.5002 390.6 55.2002 390.3 55.2002 389.9C55.2002 389.5 55.5002 389.2 55.9002 389.2H466.8C467.2 389.2 467.5 389.5 467.5 389.9C467.5 390.3 467.2 390.6 466.8 390.6Z" fill="#D1D3D4"/>
<path d="M422.1 313.9C422.3 311.2 421.7 308.5 420.5 306.1C419.5 304.4 417.9 303 417 301.2C415.5 298 416.6 294.3 416.2 290.8C415.9 287.9 414.6 285.2 412.6 283.1C410.8 281.3 408.4 280 406.7 278.1C403.8 275 403 270.5 401.4 266.6C399.1 261.1 395.1 256.4 390 253.2C393.1 259.4 386 267.4 389.2 273.6C390.2 275.6 392.2 277 392.9 279.1C394.7 284.1 388.7 289.6 390.6 294.5C391.6 297 394.2 298.4 395.5 300.8C397.2 304 395.9 307.8 396 311.4C396.2 316.4 399.2 320.8 402.8 324.2C405 326.3 407.5 328.2 409.9 330.1C412.8 332.4 414 334.8 416.5 331.1C420 326 422 320 422.1 313.9Z" fill="#FF3967"/>
<path d="M425.4 316.7C424.5 312.9 423.8 308.7 425.4 305.1C427.2 301 431.6 298.1 432.1 293.7C432.4 290.8 431 287.9 431.5 285C432 282.1 434.4 280.2 436.4 278.1C440.8 273.2 443.5 267 443.9 260.4C446.7 264.1 449.5 267.8 451 272.2C452.5 276.6 452.5 281.7 450 285.5C449.3 286.4 448.7 287.4 448.2 288.5C447.3 291.3 449.7 294 451 296.6C452.5 299.7 452.2 303.4 450.1 306.2C447.6 309.3 442.7 310.6 441.4 314.4C441.1 315.8 440.9 317.3 441 318.8C440.5 324 436.8 328.4 431.8 329.8C428.8 330.5 428.9 329.3 428.3 326.8C427.5 323.4 426.2 320.1 425.4 316.7Z" fill="#FF3967"/>
<path d="M415.8 289.1C413.7 281.7 412.8 274.1 410.6 266.7C408.7 261 406.3 255.4 403.6 250L412.7 253.9C415.6 255.1 418.8 256.6 420.2 259.4C422.6 264.4 418.3 270.8 420.8 275.7C421.7 277.4 423.3 278.7 424.4 280.2C427.1 284 426.7 289.2 425.2 293.6C424.6 295.5 421.8 305.3 419.3 302.6C418.3 301.5 418.2 297.5 417.8 296C417.3 293.7 416.5 291.5 415.8 289.1Z" fill="#FF3967"/>
<path d="M420.9 387C419.1 375 413.4 332.5 413.3 332.1L414.7 331.9C414.8 332.3 420.5 374.7 422.3 386.8L420.9 387Z" fill="#231F20"/>
<path d="M422.9 398.3H421.4C421.5 384 427.4 329.4 430.9 325.7L432 326.7C429.7 329.2 423 378.8 422.9 398.3Z" fill="#231F20"/>
<path d="M426 395.6L424.5 395.5C425.9 364.7 419.3 300 419.3 299.3L420.8 299.2C420.8 299.9 427.4 364.7 426 395.6Z" fill="#231F20"/>
<path d="M405.2 352.5H439.2L436.8 391.1C436.4 397.8 431.4 403 425.5 403H418.9C412.9 403 408 397.8 407.6 391.1L405.2 352.5Z" fill="white"/>
<path d="M425.5 403.7H418.9C412.6 403.7 407.3 398.2 406.8 391.1L404.4 352.5C404.4 352.1 404.7 351.7 405.1 351.7C405.1 351.7 405.1 351.7 405.2 351.7H439.2C439.4 351.7 439.6 351.8 439.7 351.9C439.8 352.1 439.9 352.3 439.9 352.5L437.5 391.1C437.1 398.2 431.8 403.7 425.5 403.7ZM406 353.2L408.3 391C408.7 397.3 413.3 402.2 418.9 402.2H425.5C431 402.2 435.7 397.3 436.1 391L438.4 353.2H406Z" fill="#231F20"/>
<path d="M137.5 378.8C137.3 380.1 138.6 395.1 138.6 395.1C138.6 395.1 156.9 398.3 157 397.1C157.1 395.9 162.6 390.3 162.6 390.3L155.2 386.9L154.6 368.8L137.5 378.8Z" fill="white"/>
<path d="M155.6 397.9C151.9 397.9 143.7 396.6 138.5 395.7C138.2 395.6 138 395.4 137.9 395.1C137.8 393.6 136.6 380 136.8 378.7C136.8 378.5 136.9 378.3 137.1 378.2L154.1 368.1C154.4 367.9 154.8 368 155 368.4C155.1 368.5 155.1 368.6 155.1 368.7L155.7 386.4L162.7 389.7C162.9 389.8 163 390 163.1 390.2C163.1 390.4 163.1 390.6 162.9 390.8C160.4 393.3 157.7 396.5 157.5 397.2C157.5 397.4 157.4 397.6 157.2 397.8C156.8 397.8 156.2 397.9 155.6 397.9ZM139.2 394.5C146.7 395.8 154.9 396.9 156.4 396.6C157 395.2 159.7 392.2 161.4 390.4L154.8 387.4C154.6 387.3 154.4 387.1 154.4 386.8L153.8 369.8L138 379.2C138.1 380.9 138.8 389.1 139.2 394.5Z" fill="#231F20"/>
<path d="M81.8997 380L79.1997 398.6H91.3997L98.4997 378.8L81.8997 380Z" fill="white"/>
<path d="M91.4 399.2H79.2C79 399.2 78.8 399.1 78.7 399C78.6 398.8 78.5 398.7 78.5 398.5L81.2 380C81.2 379.7 81.5 379.5 81.8 379.4L98.4 378.1C98.8 378.1 99.1 378.4 99.1 378.7C99.1 378.8 99.1 378.9 99.1 379L92 398.8C91.9 399.1 91.7 399.2 91.4 399.2ZM80 397.9H90.9L97.5 379.5L82.5 380.7L80 397.9Z" fill="#231F20"/>
<path d="M122.5 128.8C122.1 128.7 121.7 128.7 121.3 128.7C119.4 129.1 117.5 129.8 115.6 130.6C112.6 128.6 108.6 128.9 105.3 130.2C96.8999 133.2 92.2999 140.5 88.1999 147.9C86.2999 151.3 83.5999 154.8 82.2999 158.3C80.1999 163.6 79.9999 168.1 76.2999 172.9C72.7999 177.5 68.4999 181.3 64.6999 185.6C59.5999 191.5 55.4999 198.5 54.4999 206.2C52.1999 222.7 67.9999 238.9 83.9999 237.7C99.9999 236.5 117.4 232.3 127.2 219.6C138 205.5 139.1 184 137.4 167C136.5 158.1 136.7 148.6 132.9 140.3C131.5 137.3 129.3 132.9 127 130.6C125.7 129.5 124.2 128.9 122.5 128.8Z" fill="white"/>
<path d="M82.3995 238.4C75.0995 238.4 67.5996 235 61.8996 229C55.6996 222.4 52.7995 214.1 53.7995 206.1C54.7995 199.1 58.1995 192 64.1995 185.1C65.6995 183.3 67.3995 181.6 68.9995 179.9C71.3995 177.5 73.5995 175 75.6995 172.4C78.0995 169.3 78.9995 166.2 79.9995 163C80.4995 161.4 80.9995 159.7 81.6995 158C82.7995 155.6 83.9995 153.3 85.4995 151.1C86.2995 149.9 86.9995 148.7 87.6995 147.5C91.7995 140.1 96.5995 132.6 105.2 129.5C107.6 128.6 112.2 127.5 115.8 129.8C117.6 129 119.5 128.5 121.4 128C121.8 128 122.3 128 122.7 128.1C124.5 128.2 126.2 129 127.5 130.2C129.3 132 131.3 135.3 133.5 140.1C136.5 146.7 137 153.9 137.6 161C137.7 163 137.9 165 138.1 167C139.4 180 139.9 204.3 127.8 220C119.5 230.8 105.3 236.8 84.0995 238.4C83.4995 238.4 82.8995 238.4 82.3995 238.4ZM110.6 129.8C108.9 129.8 107.2 130.2 105.5 130.8C97.2996 133.7 92.6995 141 88.6995 148.2C87.9995 149.4 87.2995 150.6 86.4995 151.8C85.0995 153.9 83.7996 156.1 82.7996 158.5C82.0996 160.2 81.5995 161.8 81.1995 163.4C80.1995 166.8 79.2995 170 76.6995 173.3C74.5995 176 72.2995 178.5 69.8995 180.9C68.2995 182.5 66.6995 184.3 65.0995 186C59.2995 192.7 55.8995 199.5 54.9995 206.3C53.9995 213.9 56.7995 221.8 62.6995 228.1C68.5995 234.4 76.4996 237.6 83.7996 237.1C104.5 235.5 118.5 229.7 126.5 219.2C138.3 203.8 137.8 180 136.5 167.1C136.3 165.1 136.1 163.1 136 161.1C135.5 154.2 135 147 132.1 140.7C130 136.1 128.1 132.9 126.4 131.2C125.3 130.2 123.9 129.6 122.4 129.5C122 129.4 121.6 129.5 121.2 129.4C119.4 129.8 117.7 130.4 116 131.1C115.8 131.3 115.4 131.4 115.1 131.2C113.9 130.3 112.3 129.8 110.6 129.8Z" fill="#231F20"/>
<path d="M146.4 242.3L134 177.4L98.3999 180.2L98.4999 235.9L146.4 242.3Z" fill="white"/>
<path d="M146.4 243L98.4998 236.6C98.1998 236.6 97.8998 236.3 97.8998 235.9L97.7998 180.3C97.7998 180 98.0998 179.7 98.3998 179.6L134 176.8C134.3 176.8 134.6 177 134.7 177.3L147.1 242.2C147.1 242.4 147.1 242.6 146.9 242.8C146.7 242.9 146.5 243 146.4 243ZM99.1998 235.3L145.5 241.5L133.4 178.1L98.9998 180.8L99.1998 235.3Z" fill="#231F20"/>
<path d="M98.4997 235.9C98.4997 235.9 83.5997 341.4 79.1997 381L98.2997 384C98.2997 384 111.4 328.9 123.7 293.2L135.6 384L156.9 381.2L150.3 235.8H98.4997V235.9Z" fill="#231F20"/>
<path d="M68.5 210.6L90.2 216.9L87 271.1L111.8 270.4L106.8 183.6L127 182.8C127 183.6 133.5 254.3 135.5 271.1L159.7 263.7L149.8 213.7L163.4 206.7C163.4 206.7 155 173.3 127 174.9C101.2 176.4 110.2 176.4 110.7 176.4C110.2 176.4 90.2 176.5 81.1 188.8C71.9 201.2 68.5 210.6 68.5 210.6Z" fill="#388CE0"/>
<path d="M124.2 171.3L126.5 183.9C126.5 183.9 126.6 191.2 118.5 190.6C113.7 190.2 109.2 187.6 106.5 183.6C105.7 178.4 104.8 173.2 104 168C103 162.2 101.5 156.2 101.2 150.4C107.3 152.3 114.8 144.7 116.7 139.7C117.7 142.8 116.9 146.2 114.8 148.7C118.2 147.5 120.9 144.7 122 141.3C122.1 141.1 126.7 145.3 127 145.8C128.3 147.7 129.3 149.8 130 152C131.2 155.9 132.2 161.7 130.2 165.5C127.6 170.4 124.2 171.3 124.2 171.3Z" fill="white"/>
<path d="M119.4 191.2C119.1 191.2 118.8 191.2 118.4 191.2C113.3 190.8 108.8 188.1 106 183.8C105.9 183.7 105.9 183.6 105.9 183.6L103.3 168C103 166.2 102.6 164.3 102.3 162.5C101.4 158.5 100.8 154.4 100.5 150.3C100.5 150.1 100.6 149.9 100.8 149.7C101 149.6 101.2 149.5 101.4 149.6C107 151.4 114.2 144 116 139.3C116.1 139 116.4 138.9 116.6 138.9C116.9 138.9 117.1 139.1 117.2 139.4C118 141.9 117.8 144.6 116.6 147C118.8 145.6 120.4 143.5 121.2 141C121.3 140.8 121.5 140.6 121.7 140.5C122.6 140.4 127.3 145.3 127.4 145.3C128.8 147.3 129.8 149.4 130.5 151.7C131.3 154.4 133 161.2 130.7 165.7C129.5 168.3 127.5 170.4 124.9 171.7C125.3 174.1 127.1 183.7 127.1 183.7C127.1 185.8 126.3 187.8 124.9 189.3C123.5 190.7 121.5 191.4 119.4 191.2ZM107.1 183.3C109.8 187.1 113.9 189.5 118.5 189.9C120.4 190.2 122.4 189.7 123.9 188.4C125.1 187.2 125.7 185.6 125.7 183.9C125.7 183.9 123.4 171.6 123.4 171.4C123.3 171.1 123.5 170.7 123.9 170.6C124 170.6 127.1 169.6 129.4 165.1C131.5 161.1 129.9 154.7 129.1 152.1C128.5 150 127.5 147.9 126.2 146.1C125.9 145.7 123.3 143.3 122 142.2C120.7 145.5 118 148 114.7 149.2C114.3 149.3 114 149.1 113.9 148.8C113.8 148.6 113.9 148.3 114 148.1C115.6 146.3 116.4 144 116.2 141.6C113.5 146.3 107.3 152.1 101.7 151.1C102.1 154.8 102.6 158.5 103.4 162.2C103.8 164.1 104.1 165.9 104.4 167.8L107.1 183.3Z" fill="#231F20"/>
<path d="M104.5 159C104.1 158.1 103.5 157.4 102.6 156.9C101.8 156.5 100.9 156.2 99.9999 156.1C99.4999 156 98.9999 156 98.4999 156.1C98.1999 156.2 97.8999 156.4 97.5999 156.6C96.8999 157.1 96.3999 157.8 96.1999 158.6C96.0999 159.3 96.1999 159.9 96.3999 160.5C96.5999 161.2 96.8999 161.9 97.2999 162.5C98.8999 165 102.3 165.8 104.8 164.2C104.8 164.2 104.8 164.2 104.9 164.2" fill="white"/>
<path d="M101.9 165.6C101.5 165.6 101.1 165.6 100.6 165.5C98.9999 165.2 97.6999 164.2 96.7999 162.8C96.3999 162.1 96.0999 161.4 95.8999 160.7C95.5999 160 95.5999 159.2 95.6999 158.5C95.8999 157.6 96.4999 156.7 97.2999 156.2C97.5999 155.9 97.9999 155.7 98.3999 155.6C98.9999 155.5 99.5999 155.5 100.1 155.6C101.1 155.7 102 156 102.9 156.5C103.9 157 104.6 157.9 105 158.9C105.1 159.2 105 159.5 104.7 159.7C104.4 159.8 104.1 159.7 103.9 159.4C103.6 158.6 103 158 102.2 157.6C101.5 157.2 100.6 157 99.7999 156.9C99.3999 156.8 98.9999 156.8 98.5999 156.9C98.2999 157 98.0999 157.1 97.8999 157.3C97.2999 157.7 96.8999 158.3 96.6999 158.9C96.5999 159.5 96.6999 160 96.8999 160.6C97.0999 161.2 97.2999 161.9 97.6999 162.4C98.3999 163.5 99.4999 164.3 100.8 164.5C102.1 164.8 103.4 164.5 104.5 163.8C104.8 163.6 105.1 163.7 105.3 164C105.5 164.3 105.4 164.6 105.1 164.8C104.3 165.3 103.1 165.6 101.9 165.6Z" fill="#231F20"/>
<path d="M124.9 176.3C124.9 176.3 120 178.7 116 176C112 173.3 111.8 169.7 111.8 169.7C111.8 169.7 119.2 173.4 124.1 171.5L124.9 176.3Z" fill="#231F20"/>
<path d="M120.4 177.9C118.7 177.9 117 177.4 115.6 176.5C111.4 173.6 111.2 169.9 111.2 169.7C111.2 169.5 111.3 169.3 111.5 169.1C111.7 169 111.9 169 112.2 169.1C112.3 169.1 119.4 172.7 124 170.9C124.2 170.8 124.4 170.8 124.6 170.9C124.8 171 124.9 171.2 124.9 171.4L125.6 176.1C125.6 176.4 125.5 176.6 125.3 176.8C123.7 177.5 122 177.9 120.4 177.9ZM112.7 170.8C113.4 172.7 114.7 174.3 116.4 175.4C119.4 177.5 123 176.3 124.2 175.8L123.7 172.3C119.8 173.4 114.9 171.7 112.7 170.8Z" fill="#231F20"/>
<path d="M122.4 151.2C122.4 151.2 127.7 156.4 126.9 157.7C126.1 159 123.3 158.8 123.3 158.8" fill="white"/>
<path d="M123.7 159.4H123.3C122.9 159.3 122.7 159 122.8 158.7C122.9 158.4 123.1 158.2 123.4 158.2C124.2 158.2 126 158.1 126.4 157.4C126.5 156.8 124.4 154.1 122 151.7C121.7 151.5 121.7 151 122 150.8C122.3 150.5 122.7 150.5 122.9 150.8C125.5 153.4 128.4 156.7 127.5 158.1C126.6 159.5 124.5 159.4 123.7 159.4Z" fill="#231F20"/>
<path d="M116.271 154.17C116.777 153.949 116.937 153.195 116.627 152.487C116.318 151.778 115.657 151.383 115.151 151.604C114.645 151.825 114.485 152.579 114.795 153.287C115.104 153.996 115.765 154.391 116.271 154.17Z" fill="#231F20"/>
<path d="M127.369 152.192C127.876 151.971 128.035 151.217 127.726 150.509C127.416 149.8 126.755 149.405 126.249 149.626C125.743 149.847 125.583 150.601 125.893 151.309C126.202 152.018 126.863 152.413 127.369 152.192Z" fill="#231F20"/>
<path d="M128.8 160.8C128.8 160.8 126.2 166.9 118.8 163Z" fill="white"/>
<path d="M123.4 165C121.7 164.9 120 164.5 118.5 163.6C118.2 163.4 118.1 163.1 118.2 162.7C118.4 162.4 118.8 162.3 119.1 162.4C121.4 163.6 123.5 163.9 125.1 163.3C126.4 162.8 127.5 161.8 128.1 160.5C128.3 160.2 128.7 160.1 129 160.3C129.3 160.4 129.4 160.8 129.3 161C128.5 162.6 127.2 163.9 125.5 164.5C124.8 164.9 124.1 165 123.4 165Z" fill="#231F20"/>
<path d="M147.9 213.9C147.9 213.9 164.3 259.6 175.6 254.2C180.5 251.9 203.8 215.7 204.6 214.9C206.2 213.4 208.5 213.5 210 212C210.7 211.2 211.4 210.2 211.8 209.2C212.6 207.6 213.4 205.6 212.1 204.3C211.9 204.1 211.5 203.8 211.5 203.4C211.5 203 211.8 202.8 212.1 202.7L214.1 201.6C214.6 201.3 215.1 200.9 214.9 200.4C214.7 199.9 214 199.8 213.4 199.9C207.8 201 201.3 204.7 196.5 207.5C196.8 206 197 204.5 197.1 203C197.2 201.8 196.9 200.3 195.7 200.1C194.5 199.9 193.8 201.1 193.3 202.2C191.1 207.6 189.7 211.8 186.1 216.5C182.5 221.2 178.8 226.1 175.1 230.9C173.2 230.6 163.3 206.6 163.3 206.6" fill="white"/>
<path d="M173.6 255.4C172.8 255.4 172 255.2 171.2 254.9C160.2 250.4 147.7 215.7 147.2 214.2C147.1 213.9 147.3 213.5 147.6 213.3C147.9 213.1 148.3 213.4 148.5 213.7C148.6 214.1 161.4 249.3 171.8 253.6C172.9 254.1 174.2 254.1 175.3 253.6C178.9 251.9 194.1 229.3 200.6 219.6C203.3 215.6 204 214.6 204.2 214.4C205.1 213.7 206.1 213.1 207.1 212.8C208 212.6 208.8 212.1 209.5 211.5C210.2 210.7 210.8 209.8 211.2 208.8C212.2 206.8 212.4 205.4 211.6 204.6L211.5 204.5C211.1 204.2 210.9 203.7 210.9 203.3C211 202.7 211.3 202.3 211.8 202L213.8 200.9C214.2 200.7 214.3 200.5 214.3 200.4C214.1 200.4 213.8 200.4 213.6 200.4C208.2 201.5 201.8 205 196.9 208C196.6 208.2 196.2 208.1 196 207.8C195.9 207.7 195.9 207.5 195.9 207.3C196.2 205.8 196.4 204.4 196.5 202.9C196.5 202.1 196.4 200.8 195.7 200.7C195 200.6 194.2 202 194.1 202.4C193.7 203.3 193.4 204.1 193.1 205C191.4 209.2 189.9 212.9 186.9 216.9C183.3 221.7 179.6 226.5 175.9 231.3C175.7 231.5 175.5 231.6 175.3 231.5C173.3 231.2 166.7 215.9 163 206.8C162.9 206.5 163 206.1 163.4 205.9C163.7 205.8 164.1 205.9 164.3 206.3C168.6 216.7 173.7 227.8 175.4 229.9C178.9 225.3 182.5 220.7 186 216C188.9 212.1 190.4 208.5 192.1 204.4C192.4 203.6 192.8 202.7 193.2 201.8C194 199.9 195.1 199.1 196.3 199.3C197.9 199.6 198.3 201.4 198.2 202.9C198.1 204 198 205 197.9 206.1C202.7 203.3 208.6 200.2 213.8 199.1C215 198.9 215.9 199.2 216.1 200.1C216.2 200.5 216.2 201.3 214.9 202.1L212.9 203.2C212.7 203.3 212.6 203.4 212.6 203.4C212.6 203.4 212.8 203.5 212.8 203.6L212.9 203.7C214.6 205.5 213.2 208.4 212.7 209.4C212.2 210.5 211.5 211.5 210.8 212.4C210 213.2 208.9 213.7 207.8 214C206.9 214.2 206 214.7 205.3 215.3C205.1 215.5 203.6 217.7 201.9 220.3C190.6 237.2 179.6 253.1 176.1 254.7C175.2 255.2 174.4 255.4 173.6 255.4Z" fill="#231F20"/>
<path d="M87.9999 254.3C87.5999 254.3 87.3999 254 87.3999 253.6L90.1999 193.1C90.1999 192.7 90.4999 192.5 90.8999 192.5C91.2999 192.5 91.5999 192.8 91.4999 193.2L88.6999 253.7C88.6999 254 88.3999 254.3 87.9999 254.3Z" fill="#231F20"/>
<path d="M144.7 205.5C144.4 205.5 144.2 205.3 144.1 205.1L139.1 193.4C139 193 139.2 192.7 139.6 192.6C139.9 192.5 140.2 192.6 140.4 192.9L145.4 204.6C145.5 204.9 145.4 205.3 145 205.5C144.9 205.5 144.8 205.5 144.7 205.5Z" fill="#231F20"/>
<path d="M93.5996 390.6C93.5996 390.6 82.6996 384.6 78.0996 390.6C73.4996 396.6 73.0996 404.3 73.0996 404.3C73.0996 404.3 95.9996 408.1 96.1996 404.3C96.3996 400.5 93.5996 390.6 93.5996 390.6Z" fill="#231F20"/>
<path d="M37.3 294.1L130.2 269C133.2 268.2 136.3 270 137.1 273L148.3 314.5C149.1 317.5 147.3 320.6 144.3 321.4L51.4 346.5C48.4 347.3 45.3 345.5 44.5 342.5L33.4 301C32.5 298 34.3 294.9 37.3 294.1Z" fill="white"/>
<path d="M49.9998 347.3C47.1998 347.3 44.6998 345.4 43.8998 342.6L32.6998 301.1C31.7998 297.7 33.7998 294.3 37.0998 293.4L129.9 268.3C133.3 267.4 136.7 269.4 137.6 272.7L148.9 314.2C149.8 317.6 147.8 321 144.5 321.9L51.5998 347C51.0998 347.3 50.5998 347.3 49.9998 347.3ZM131.7 269.5C131.3 269.5 130.8 269.6 130.4 269.7L37.4998 294.8C34.8998 295.5 33.2998 298.2 33.9998 300.9L45.1998 342.4C45.8998 345 48.5998 346.6 51.2998 345.9L144.2 320.8C146.8 320.1 148.4 317.4 147.7 314.7L136.5 273.2C135.9 271 133.9 269.5 131.7 269.5Z" fill="#231F20"/>
<path d="M72.4869 299.618L48.9287 305.974L56.0925 332.526L79.6507 326.169L72.4869 299.618Z" fill="#D1D3D4"/>
<path d="M83.5996 298.1L123.8 287.3C125.7 286.8 127.6 287.9 128.1 289.8L128.2 290C128.7 291.9 127.6 293.8 125.7 294.3L85.4996 305C83.5996 305.5 81.6996 304.4 81.1996 302.5L81.0996 302.3C80.6996 300.5 81.7996 298.6 83.5996 298.1Z" fill="#D1D3D4"/>
<path d="M86.8998 311.4L118.3 302.9C120 302.4 121.7 303.4 122.1 305.1L122.3 306C122.8 307.7 121.8 309.4 120.1 309.8L88.6998 318.3C86.9998 318.8 85.2998 317.8 84.8998 316.1L84.6998 315.2C84.1998 313.6 85.1998 311.9 86.8998 311.4Z" fill="#D1D3D4"/>
<path d="M68.4996 210.6C68.4996 210.6 52.5996 248.6 54.2996 253C55.8996 257.4 72.2996 284.7 72.2996 284.7C72.2996 284.7 77.0996 299.6 83.5996 296.2C87.7996 294 85.5996 281.2 85.5996 281.2L90.3996 279.9C90.3996 279.9 82.4996 276.6 81.5996 275.1C80.6996 273.6 72.2996 250.3 72.2996 250.3L86.7996 216" fill="white"/>
<path d="M81.5996 297.3C80.9996 297.3 80.3996 297.2 79.7996 296.9C75.0996 295 71.9996 285.9 71.5996 284.9C70.4996 283.1 55.1996 257.5 53.5996 253.2C51.8996 248.7 66.1996 214.3 67.7996 210.4C67.8996 210 68.2996 209.8 68.5996 209.9C68.9996 210 69.1996 210.4 69.0996 210.7C69.0996 210.7 69.0996 210.8 68.9996 210.8C62.6996 226 53.6996 249.6 54.7996 252.7C56.3996 257 72.5996 284 72.6996 284.3C72.6996 284.3 72.6996 284.4 72.7996 284.4C72.7996 284.5 75.8996 293.9 80.1996 295.6C81.1996 296 82.1996 295.9 83.0996 295.4C86.1996 293.8 85.2996 284.5 84.6996 281.1C84.5996 280.8 84.7996 280.4 85.1996 280.3L88.0996 279.5C85.5996 278.4 81.4996 276.4 80.7996 275.2C79.8996 273.6 71.7996 251.3 71.3996 250.3C71.2996 250.1 71.2996 250 71.3996 249.8L85.8996 215.5C86.0996 215.2 86.4996 215 86.7996 215.2C87.0996 215.4 87.1996 215.7 87.0996 216L72.6996 250C75.0996 256.6 81.1996 273.2 81.8996 274.4C82.3996 275.3 86.5996 277.4 90.2996 278.9C90.5996 279 90.7996 279.4 90.6996 279.8C90.5996 280 90.3996 280.2 90.1996 280.2L85.9996 281.3C86.3996 284.1 87.6996 294.3 83.5996 296.4C83.1996 297.1 82.3996 297.3 81.5996 297.3Z" fill="#231F20"/>
<path d="M160.1 385.7L154.3 393.2L135.4 389.4L134.6 399.2C134.6 399.2 174.7 407.5 176.3 403.1C177.9 398.7 160.1 385.7 160.1 385.7Z" fill="#231F20"/>
<path d="M206.5 182.7H360C364.5 182.7 368.1 186.3 368.1 190.8V228.8C368.1 233.3 364.5 236.9 360 236.9H206.5C202 236.9 198.4 233.3 198.4 228.8V190.8C198.4 186.3 202 182.7 206.5 182.7Z" fill="white"/>
<path d="M360 237.6H206.5C201.7 237.6 197.7 233.7 197.7 228.8V190.8C197.7 186 201.6 182 206.5 182H360C364.8 182 368.8 185.9 368.8 190.8V228.8C368.8 233.7 364.8 237.6 360 237.6ZM206.5 183.4C202.4 183.4 199.1 186.7 199.1 190.8V228.8C199.1 232.9 202.4 236.2 206.5 236.2H360C364.1 236.2 367.4 232.9 367.4 228.8V190.8C367.4 186.7 364.1 183.4 360 183.4H206.5Z" fill="#231F20"/>
<path d="M236.5 196.1H212.1V223.6H236.5V196.1Z" fill="#FF3967"/>
<path d="M255.4 199.4H335.2C337.2 199.4 338.8 201 338.8 203C338.8 205 337.2 206.6 335.2 206.6H255.4C253.4 206.6 251.8 205 251.8 203C251.8 201 253.4 199.4 255.4 199.4Z" fill="#D1D3D4"/>
<path d="M255.4 213.1H309.2C311.2 213.1 312.8 214.7 312.8 216.7C312.8 218.7 311.2 220.3 309.2 220.3H255.4C253.4 220.3 251.8 218.7 251.8 216.7C251.8 214.7 253.4 213.1 255.4 213.1Z" fill="#D1D3D4"/>
</svg>
