<svg width="500" height="500" viewBox="0 0 500 500" fill="none" xmlns="http://www.w3.org/2000/svg">
<path d="M411.3 382.6H88.7C88.3 382.6 88 382.3 88 381.9C88 381.5 88.3 381.2 88.7 381.2H411.3C411.7 381.2 412 381.5 412 381.9C412 382.3 411.7 382.6 411.3 382.6Z" fill="#D1D3D4"/>
<path d="M406.9 141.9V336.3C406.9 343.8 400.8 349.9 393.3 349.9H106.7C99.2001 349.9 93.1001 343.8 93.1001 336.3V141.9C93.1001 134.4 99.2001 128.3 106.7 128.3H393.3C400.8 128.3 406.9 134.4 406.9 141.9Z" fill="white"/>
<path d="M393.3 350.5H106.7C98.8 350.5 92.5 344.1 92.5 336.3V141.9C92.5 134 98.9 127.7 106.7 127.7H393.3C401.2 127.7 407.5 134.1 407.5 141.9V336.3C407.5 344.2 401.2 350.5 393.3 350.5ZM106.7 128.9C99.5 128.9 93.7 134.7 93.7 141.9V336.3C93.7 343.5 99.5 349.3 106.7 349.3H393.3C400.5 349.3 406.3 343.5 406.3 336.3V141.9C406.3 134.7 400.5 128.9 393.3 128.9H106.7Z" fill="#231F20"/>
<path d="M406.9 141.9V314.5H93.1001V141.9C93.1001 134.4 99.2001 128.3 106.7 128.3H393.3C400.8 128.3 406.9 134.4 406.9 141.9Z" fill="#231F20"/>
<path d="M390.3 144.4H106V301.6H390.3V144.4Z" fill="white"/>
<path d="M390.3 302.3H106C105.7 302.3 105.4 302 105.4 301.7V144.4C105.4 144 105.7 143.8 106 143.8H390.3C390.7 143.8 390.9 144.1 390.9 144.4V301.7C390.9 302 390.6 302.3 390.3 302.3ZM106.6 301H389.6V145H106.6V301Z" fill="#231F20"/>
<path d="M250 339.4C246 339.4 242.8 336.2 242.8 332.2C242.8 328.2 246 325 250 325C254 325 257.2 328.2 257.2 332.2C257.2 336.2 254 339.4 250 339.4ZM250 326.4C246.8 326.4 244.2 329 244.2 332.2C244.2 335.4 246.8 338 250 338C253.2 338 255.8 335.4 255.8 332.2C255.8 329 253.2 326.4 250 326.4Z" fill="#D1D3D4"/>
<path d="M295.7 374.6C292 370.2 291.4 349.9 291.4 349.9H208.7C208.7 349.9 208.1 370.1 204.4 374.6C200.7 379.1 186 386.2 186 388.8C186 391.4 188.2 392.3 198.7 392.3H301.3C311.8 392.3 314 391.4 314 388.8C314 386.2 299.4 379 295.7 374.6Z" fill="#FF3967"/>
<path d="M301.3 392.9H198.7C188.2 392.9 185.3 392 185.3 388.8C185.3 387.2 188.5 385 194.1 381.4C198 378.9 202.1 376.2 203.7 374.2C207.2 370 207.9 350.1 207.9 349.9C207.9 349.6 208.2 349.3 208.5 349.3H291.2C291.5 349.3 291.8 349.6 291.8 349.9C291.8 350.1 292.5 370 296 374.2C297.7 376.2 301.7 378.8 305.6 381.4C311.2 385.1 314.4 387.2 314.4 388.8C314.6 392 311.8 392.9 301.3 392.9ZM209.3 350.5C209.2 354 208.3 370.8 204.8 374.9C203 377 198.9 379.7 194.9 382.3C191.6 384.4 186.7 387.7 186.7 388.7C186.7 390.4 187.6 391.6 198.8 391.6H301.3C312.5 391.6 313.4 390.4 313.4 388.7C313.4 387.7 308.4 384.5 305.2 382.3C301.2 379.7 297.1 377 295.3 374.9C291.8 370.8 291 354 290.8 350.5H209.3Z" fill="#231F20"/>
<path d="M422.7 389.1H357.9L366.3 337.6H414.3L422.7 389.1Z" fill="white"/>
<path d="M422.7 389.8H357.9C357.7 389.8 357.5 389.7 357.4 389.6C357.3 389.4 357.2 389.2 357.2 389L365.6 337.5C365.7 337.2 365.9 336.9 366.3 336.9H414.3C414.6 336.9 414.9 337.1 415 337.5L423.4 389C423.4 389.2 423.4 389.4 423.2 389.6C423.1 389.7 422.9 389.8 422.7 389.8ZM358.7 388.4H421.8L413.7 338.3H366.9L358.7 388.4Z" fill="#231F20"/>
<path d="M375.8 345.2H375.7C375.3 345.1 375.1 344.8 375.1 344.4C375.2 343.5 378.6 323.6 390.3 323.6C402 323.6 405.4 343.5 405.5 344.4C405.6 344.8 405.3 345.1 404.9 345.2C404.5 345.3 404.2 345 404.1 344.6C404.1 344.4 400.7 325 390.3 325C379.9 325 376.5 344.4 376.4 344.6C376.4 345 376.1 345.3 375.8 345.2Z" fill="#231F20"/>
<path d="M377.6 393.4H333.1L338.8 357.9H371.9L377.6 393.4Z" fill="white"/>
<path d="M377.6 394.1H333C332.8 394.1 332.6 394 332.5 393.9C332.4 393.7 332.3 393.5 332.3 393.3L338.1 357.9C338.2 357.6 338.4 357.3 338.8 357.3H371.8C372.1 357.3 372.4 357.5 372.5 357.9L378.3 393.3C378.3 393.5 378.3 393.7 378.1 393.9C378 394 377.8 394 377.6 394.1ZM333.9 392.7H376.8L371.3 358.7H339.4L333.9 392.7Z" fill="#231F20"/>
<path d="M365.4 363.4C365.1 363.4 364.8 363.1 364.7 362.8C364.7 362.7 362.4 349.5 355.4 349.5C348.4 349.5 346.1 362.7 346.1 362.8C346 363.2 345.7 363.4 345.3 363.4C344.9 363.3 344.7 363 344.7 362.6C344.8 362 347.2 348.1 355.4 348.1C363.6 348.1 366 362 366.1 362.6C366.2 363 365.9 363.3 365.5 363.4H365.4Z" fill="#231F20"/>
<path d="M155.9 168C155.8 170.4 161.5 217.6 113.3 247.1C113.3 247.1 141.3 268.6 155.9 301.8H106V163.9L155.9 168Z" fill="white"/>
<path d="M155.9 302.3H106C105.7 302.3 105.4 302 105.4 301.7V163.9C105.4 163.7 105.5 163.6 105.6 163.4C105.7 163.3 105.9 163.2 106.1 163.2L156.1 167.3C156.4 167.3 156.7 167.6 156.7 168C156.7 168.1 156.7 168.5 156.7 168.9C157.5 184.1 154.8 222 114.5 247.1C119 250.7 143.4 271.5 156.6 301.4C156.7 301.7 156.6 302.1 156.3 302.2C156.1 302.3 156 302.3 155.9 302.3ZM106.6 301H155C140.5 268.9 113.2 247.7 112.9 247.5C112.7 247.4 112.6 247.2 112.7 247C112.7 246.8 112.8 246.6 113 246.5C153.5 221.8 156.1 184.1 155.4 169C155.4 168.8 155.4 168.7 155.4 168.6L106.7 164.6L106.6 301Z" fill="#231F20"/>
<path d="M131 293.5C130.6 293.5 130.3 293.2 130.3 292.8C129.7 279.2 119.2 258.8 113.1 247.9C112.6 247 112.6 247 112.6 246.7C112.7 246.3 113 246.1 113.4 246.1C113.6 246.1 113.8 246.3 113.9 246.5L114.3 247.2C120.5 258.2 131.1 278.8 131.7 292.7C131.7 293.2 131.4 293.5 131 293.5Z" fill="#D1D3D4"/>
<path d="M111.3 243.4C110.9 243.4 110.6 243.1 110.6 242.7C110.6 242.5 110.7 242.4 110.8 242.3C110.9 242.2 119.8 230.8 125 205.9C125.1 205.5 125.5 205.3 125.8 205.4C126.2 205.5 126.4 205.9 126.3 206.2C121 231.4 112.2 242.7 111.9 243.2C111.7 243.3 111.5 243.4 111.3 243.4Z" fill="#D1D3D4"/>
<path d="M106 242.6H117.7C119.4 242.6 120.7 243.9 120.7 245.6V248C120.7 249.7 119.4 251 117.7 251H106V242.6Z" fill="white"/>
<path d="M116.4 251.7H106C105.6 251.7 105.4 251.4 105.4 251.1V242.7C105.4 242.3 105.7 242.1 106 242.1H116.4C119.1 242 121.4 244.1 121.5 246.7C121.6 249.3 119.5 251.7 116.9 251.8C116.7 251.7 116.6 251.7 116.4 251.7ZM106.6 250.5H116.4C118.4 250.6 120.1 249.1 120.2 247.1C120.3 245.1 118.8 243.4 116.8 243.3C116.7 243.3 116.5 243.3 116.4 243.3H106.6V250.5Z" fill="#231F20"/>
<path d="M129.6 223.8C129.5 223.8 129.3 223.8 129.2 223.7C128.9 223.5 128.8 223.1 128.9 222.8C128.9 222.8 128.9 222.8 128.9 222.7C134.5 213.8 139.2 198.2 139.2 198C139.3 197.6 139.7 197.4 140.1 197.6C140.4 197.7 140.6 198.1 140.5 198.4C140.4 198.6 135.7 214.3 130 223.4C130.1 223.6 129.9 223.7 129.6 223.8Z" fill="#D1D3D4"/>
<path d="M340.3 168C340.4 170.4 334.7 217.6 382.9 247.1C382.9 247.1 354.9 268.6 340.3 301.8H390.3V163.9L340.3 168Z" fill="white"/>
<path d="M390.3 302.3H340.3C340.1 302.3 339.9 302.2 339.8 302C339.7 301.8 339.7 301.6 339.8 301.4C353 271.5 377.4 250.7 381.9 247.1C341.6 222 338.9 184.1 339.7 168.9C339.7 168.4 339.7 168.1 339.7 168C339.7 167.7 340 167.4 340.3 167.3L390.3 163.2C390.7 163.2 391 163.5 391 163.8V301.6C390.9 302 390.6 302.3 390.3 302.3ZM341.3 301H389.6V164.6L340.9 168.6C340.9 168.7 340.9 168.9 340.9 169C340.1 184.1 342.8 221.8 383.3 246.5C383.5 246.6 383.6 246.8 383.6 247C383.6 247.2 383.5 247.4 383.4 247.5C383.1 247.7 355.8 269 341.3 301Z" fill="#231F20"/>
<path d="M365.2 293.5C364.8 293.5 364.5 293.2 364.5 292.8C365.1 278.9 375.7 258.3 381.9 247.3C382.1 247 382.2 246.7 382.3 246.7C382.4 246.5 382.6 246.3 382.8 246.3C383.2 246.3 383.5 246.5 383.6 246.9C383.6 247.1 383.6 247.1 383.1 248.1C376.9 259 366.5 279.4 365.9 293C365.9 293.2 365.6 293.5 365.2 293.5Z" fill="#D1D3D4"/>
<path d="M385 243.4C384.8 243.4 384.6 243.3 384.5 243.1C384.1 242.6 375.3 231.4 370 206.1C369.9 205.7 370.2 205.4 370.5 205.3C370.9 205.2 371.2 205.5 371.3 205.8C376.5 230.7 385.4 242.1 385.5 242.2C385.7 242.5 385.7 242.9 385.4 243.2C385.3 243.3 385.2 243.3 385 243.4Z" fill="#D1D3D4"/>
<path d="M390.3 251.1H378.6C376.9 251.1 375.6 249.8 375.6 248.1V245.7C375.6 244 376.9 242.7 378.6 242.7H390.3V251.1Z" fill="white"/>
<path d="M390.3 251.7H379.8C377.1 251.8 374.8 249.7 374.7 247.1C374.6 244.4 376.7 242.1 379.3 242C379.4 242 379.6 242 379.7 242H390.2C390.6 242 390.8 242.3 390.8 242.6V251C390.9 251.5 390.6 251.7 390.3 251.7ZM379.8 243.3C377.8 243.2 376.1 244.7 376 246.7C375.9 248.7 377.4 250.4 379.4 250.5C379.5 250.5 379.7 250.5 379.8 250.5H389.6V243.3H379.8Z" fill="#231F20"/>
<path d="M366.7 223.8C366.5 223.8 366.2 223.7 366.1 223.5C360.4 214.4 355.7 198.6 355.6 198.5C355.5 198.1 355.7 197.7 356.1 197.7C356.5 197.6 356.8 197.8 356.9 198.1C356.9 198.2 361.7 213.9 367.2 222.8C367.4 223.1 367.3 223.6 366.9 223.8C366.9 223.7 366.8 223.8 366.7 223.8Z" fill="#D1D3D4"/>
<path d="M334.5 259.8H165.5C165.1 259.8 164.8 259.5 164.8 259.1V206C164.8 205.6 165.1 205.3 165.5 205.3H334.6C335 205.3 335.3 205.6 335.3 206V259.1C335.2 259.5 334.9 259.8 334.5 259.8ZM166.2 258.4H333.9V206.7H166.2V258.4Z" fill="#D1D3D4"/>
<path d="M334.5 300.6C334.1 300.6 333.8 300.3 333.8 299.9V266.6H166.2V299.9C166.2 300.3 165.9 300.6 165.5 300.6C165.1 300.6 164.8 300.3 164.8 299.9V265.9C164.8 265.5 165.1 265.2 165.5 265.2H334.6C335 265.2 335.3 265.5 335.3 265.9V299.9C335.2 300.3 334.9 300.6 334.5 300.6Z" fill="#D1D3D4"/>
<path d="M326.5 220.3H238.6C238.2 220.3 237.9 220 237.9 219.6C237.9 219.2 238.2 218.9 238.6 218.9H326.5C326.9 218.9 327.2 219.2 327.2 219.6C327.2 220 326.9 220.3 326.5 220.3Z" fill="#D1D3D4"/>
<path d="M326.5 230H238.6C238.2 230 237.9 229.7 237.9 229.3C237.9 228.9 238.2 228.6 238.6 228.6H326.5C326.9 228.6 327.2 228.9 327.2 229.3C327.2 229.7 326.9 230 326.5 230Z" fill="#D1D3D4"/>
<path d="M218.3 300.6H218.2C217.8 300.5 217.6 300.2 217.6 299.8L219.3 291.1C219.4 290.9 219.5 290.7 219.7 290.6C219.9 290.5 220.2 290.5 220.4 290.7L224.6 293.8L230.1 287.6C227.8 284.6 225.1 281.8 222.3 279.3C219.8 277.2 217 275.5 214 274.3C213 274.9 209.5 276.7 203.6 276.7C197.7 276.7 194.2 274.9 193.2 274.3C190.7 275.3 188.4 276.5 186.1 277.8C181.9 280.1 178.5 284.9 177.6 286.3L182.1 292.4L187.2 290C187.4 289.9 187.6 289.9 187.8 290C188 290.1 188.1 290.3 188.2 290.5L189.6 299.8C189.6 300.2 189.4 300.5 189 300.6C188.6 300.6 188.3 300.4 188.2 300.1L186.9 291.8L182.2 294C181.9 294.1 181.5 294 181.3 293.8L176.1 286.9C175.9 286.7 175.9 286.4 176.1 286.1C176.3 285.8 180.1 279.7 185.3 276.7C187.7 275.2 190.3 274 193 273C193.2 272.9 193.4 273 193.6 273.1C193.6 273.1 197.1 275.4 203.6 275.4C210.1 275.4 213.5 273.1 213.6 273.1C213.8 273 214 273 214.2 273C217.5 274.2 220.6 276 223.3 278.4C226.4 281.1 229.2 284.1 231.7 287.4C231.9 287.7 231.9 288 231.7 288.3L225.4 295.4C225.2 295.7 224.7 295.7 224.5 295.5L220.7 292.6L219 300C219 300.4 218.6 300.6 218.3 300.6Z" fill="#D1D3D4"/>
<path d="M202.4 283.3C195.4 283.3 192.7 274.2 192.6 273.8C192.5 273.4 192.7 273 193.1 272.9C193.5 272.8 193.9 273 194 273.4C194 273.5 196.5 281.9 202.5 281.9C209.1 282 213.4 273.4 213.4 273.3C213.6 273 214 272.8 214.3 273C214.6 273.2 214.8 273.6 214.6 273.9C214.4 274.3 209.8 283.3 202.4 283.3Z" fill="#D1D3D4"/>
<path d="M295.8 236.9H323.3C325.1 236.9 326.5 238.3 326.5 240.1V242.7C326.5 244.5 325.1 245.9 323.3 245.9H295.8C294 245.9 292.6 244.5 292.6 242.7V240.1C292.5 238.3 294 236.9 295.8 236.9Z" fill="#388CE0"/>
<path d="M326.5 281.8H238.6C238.2 281.8 237.9 281.5 237.9 281.1C237.9 280.7 238.2 280.4 238.6 280.4H326.5C326.9 280.4 327.2 280.7 327.2 281.1C327.2 281.5 326.9 281.8 326.5 281.8Z" fill="#D1D3D4"/>
<path d="M309.5 291.5H238.5C238.1 291.5 237.8 291.2 237.8 290.8C237.8 290.4 238.1 290.1 238.5 290.1H309.5C309.9 290.1 310.2 290.4 310.2 290.8C310.2 291.2 309.9 291.5 309.5 291.5Z" fill="#D1D3D4"/>
<path d="M221.8 249.4H204.4C204 249.4 203.7 249.1 203.7 248.8L202.8 240.1L201.3 248.8C201.2 249.1 200.9 249.4 200.6 249.4H184.3C184.1 249.4 183.9 249.3 183.8 249.2C183.7 249 183.6 248.8 183.6 248.6L187.4 216.7C187.4 216.3 187.7 216.1 188.1 216.1H218C218.4 216.1 218.6 216.4 218.7 216.7L222.5 248.6C222.5 248.8 222.5 249 222.3 249.2C222.2 249.3 222 249.4 221.8 249.4ZM205.1 248H221L217.4 217.5H188.8L185.2 248H200L202.3 235C202.4 234.7 202.7 234.4 203 234.4C203.4 234.4 203.6 234.7 203.7 235L205.1 248Z" fill="#D1D3D4"/>
<path d="M218.3 222.6H187.5C187.1 222.6 186.8 222.3 186.8 221.9C186.8 221.5 187.1 221.2 187.5 221.2H218.3C218.7 221.2 219 221.5 219 221.9C219 222.3 218.7 222.6 218.3 222.6Z" fill="#D1D3D4"/>
<path d="M206.6 226.6C206.3 226.6 206.1 226.4 206 226.2L203.7 220.6L200.6 225.8C200.4 226.1 200 226.3 199.6 226.1C199.3 225.9 199.1 225.5 199.3 225.2C199.3 225.2 199.3 225.2 199.3 225.1L203.1 218.7C203.2 218.5 203.5 218.3 203.7 218.4C204 218.4 204.2 218.6 204.3 218.8L207.1 225.7C207.2 226.1 207.1 226.5 206.7 226.6C206.8 226.6 206.7 226.6 206.6 226.6Z" fill="#D1D3D4"/>
<path d="M211.6 296C209.5 296 207.8 294.3 207.8 292.2C207.8 290.1 209.5 288.4 211.6 288.4C213.7 288.4 215.4 290.1 215.4 292.2C215.4 294.3 213.7 296 211.6 296ZM211.6 289.7C210.3 289.7 209.2 290.8 209.2 292.1C209.2 293.4 210.3 294.5 211.6 294.5C212.9 294.5 214 293.4 214 292.1C214.1 290.8 213 289.7 211.6 289.7Z" fill="#D1D3D4"/>
<path d="M92.5999 401.3H140.5L135.2 331.8H87.3999L92.5999 401.3Z" fill="#231F20"/>
<path d="M77.1001 401.3H125L135.2 331.8H87.4001L77.1001 401.3Z" fill="white"/>
<path d="M125 401.9H77.1C76.7 401.9 76.5 401.6 76.5 401.3V401.2L86.7 331.7C86.7 331.4 87 331.2 87.3 331.2H135.2C135.4 331.2 135.6 331.3 135.7 331.4C135.8 331.5 135.9 331.7 135.8 331.9L125.6 401.4C125.6 401.7 125.3 402 125 401.9ZM77.8 400.7H124.4L134.4 332.5H87.9L77.8 400.7Z" fill="#231F20"/>
<path d="M118 393H84.8001C84.6001 393 84.4001 392.9 84.3001 392.8C84.2001 392.6 84.1001 392.4 84.1001 392.2L92.5001 338.5C92.6001 338.2 92.8001 337.9 93.2001 337.9H126.8C127 337.9 127.2 338 127.3 338.1C127.4 338.3 127.5 338.5 127.5 338.7L118.6 392.4C118.6 392.7 118.3 393 118 393ZM85.7001 391.6H117.4L126.1 339.3H93.9001L85.7001 391.6Z" fill="#D1D3D4"/>
<path d="M118.6 351.9H98.0999C97.6999 351.9 97.3999 351.6 97.3999 351.2C97.3999 350.8 97.6999 350.5 98.0999 350.5H118.6C119 350.5 119.3 350.8 119.3 351.2C119.3 351.6 118.9 351.9 118.6 351.9Z" fill="#D1D3D4"/>
<path d="M114.6 360H96.9C96.5 360 96.2 359.7 96.2 359.3C96.2 358.9 96.5 358.6 96.9 358.6H114.6C115 358.6 115.3 358.9 115.3 359.3C115.3 359.7 115 360 114.6 360Z" fill="#D1D3D4"/>
<path d="M116.2 368.6H95.7C95.3 368.6 95 368.3 95 367.9C95 367.5 95.3 367.2 95.7 367.2H116.2C116.6 367.2 116.9 367.5 116.9 367.9C116.9 368.3 116.6 368.6 116.2 368.6Z" fill="#D1D3D4"/>
<path d="M112.2 376.7H94.5C94.1 376.7 93.8 376.4 93.8 376C93.8 375.6 94.1 375.3 94.5 375.3H112.2C112.6 375.3 112.9 375.6 112.9 376C112.9 376.4 112.6 376.7 112.2 376.7Z" fill="#D1D3D4"/>
<path d="M112.8 98.7002H387.2C392.3 98.7002 396.4 102.8 396.4 107.9V116.9H103.6V107.9C103.6 102.8 107.7 98.7002 112.8 98.7002Z" fill="#FF3967"/>
<path d="M396.4 117.6H103.6C103.3 117.6 103 117.3 103 117V111.6C103 104.1 109.1 98.1001 116.5 98.1001H383.5C391 98.1001 397 104.2 397 111.6V117C397.1 117.3 396.8 117.6 396.4 117.6ZM104.2 116.3H395.7V111.6C395.7 104.8 390.2 99.4001 383.4 99.4001H116.4C109.6 99.4001 104.2 104.9 104.1 111.6L104.2 116.3Z" fill="#FF3967"/>
<path d="M102.1 116.9L65.6001 157.5H92.0001L123.2 116.9H102.1Z" fill="white"/>
<path d="M92 158.1H65.6C65.3 158.1 65.1 157.9 65 157.7C64.9 157.5 64.9 157.2 65.1 157L101.5 116.5C101.6 116.4 101.8 116.3 102 116.3H123.1C123.5 116.3 123.7 116.6 123.7 117C123.7 117.1 123.7 117.2 123.6 117.3L92.4 157.9C92.4 158 92.2 158.1 92 158.1ZM67.1 156.8H91.7L121.9 117.6H102.3L67.1 156.8Z" fill="#231F20"/>
<path d="M123.2 116.9L92 157.5H118.3L144.3 116.9H123.2Z" fill="#388CE0"/>
<path d="M118.3 158.1H91.9999C91.7999 158.1 91.4999 158 91.3999 157.7C91.2999 157.5 91.2999 157.2 91.4999 157L122.7 116.5C122.8 116.3 123 116.3 123.2 116.3H144.3C144.6 116.3 144.9 116.6 145 116.9C145 117 145 117.2 144.9 117.3L118.9 157.8C118.8 158 118.5 158.1 118.3 158.1ZM93.2999 156.8H118L143.2 117.6H123.5L93.2999 156.8Z" fill="#231F20"/>
<path d="M144.3 116.9L118.3 157.5H144.6L165.5 116.9H144.3Z" fill="white"/>
<path d="M144.6 158.1H118.3C118.1 158.1 117.9 158 117.7 157.8C117.6 157.6 117.6 157.3 117.7 157.2L143.7 116.7C143.8 116.5 144 116.4 144.2 116.4H165.3C165.5 116.4 165.7 116.5 165.9 116.7C166 116.9 166 117.1 165.9 117.3L145.1 157.8C145 158 144.9 158.1 144.6 158.1ZM119.5 156.8H144.3L164.5 117.6H144.8L119.5 156.8Z" fill="#231F20"/>
<path d="M165.5 116.9L144.6 157.5H171L186.6 116.9H165.5Z" fill="#388CE0"/>
<path d="M171 158.1H144.6C144.4 158.1 144.2 158 144 157.8C143.9 157.6 143.9 157.4 144 157.2L164.8 116.7C164.9 116.5 165.1 116.4 165.4 116.4H186.5C186.8 116.4 187.1 116.7 187.1 117C187.1 117.1 187.1 117.2 187.1 117.2L171.5 157.7C171.5 157.9 171.3 158.1 171 158.1ZM145.7 156.8H170.6L185.7 117.6H165.9L145.7 156.8Z" fill="#231F20"/>
<path d="M186.6 116.9L171 157.5H197.3L207.7 116.9H186.6Z" fill="white"/>
<path d="M197.3 158.1H171C170.8 158.1 170.6 158 170.5 157.8C170.4 157.6 170.4 157.4 170.4 157.2L186 116.7C186.1 116.5 186.3 116.3 186.6 116.3H207.7C207.9 116.3 208.1 116.4 208.2 116.5C208.3 116.7 208.4 116.9 208.3 117.1L197.9 157.6C197.9 157.9 197.6 158.1 197.3 158.1ZM171.9 156.8H196.8L206.9 117.6H187L171.9 156.8Z" fill="#231F20"/>
<path d="M207.7 116.9L197.3 157.5H223.7L228.9 116.9H207.7Z" fill="#388CE0"/>
<path d="M223.7 158.1H197.4C197.2 158.1 197 158 196.9 157.9C196.8 157.7 196.7 157.5 196.8 157.3L207.2 116.8C207.3 116.5 207.5 116.3 207.8 116.3H228.9C229.1 116.3 229.3 116.4 229.4 116.5C229.5 116.6 229.6 116.8 229.6 117L224.4 157.5C224.2 157.9 224 158.1 223.7 158.1ZM198.1 156.8H223.1L228.1 117.6H208.2L198.1 156.8Z" fill="#231F20"/>
<path d="M228.9 116.9L223.7 157.5H250V116.9H228.9Z" fill="white"/>
<path d="M250 158.1H223.7C223.5 158.1 223.3 158 223.2 157.9C223.1 157.8 223 157.6 223.1 157.4L228.3 116.9C228.3 116.6 228.6 116.3 228.9 116.3H250C250.4 116.3 250.6 116.6 250.6 116.9V157.4C250.6 157.8 250.4 158.1 250 158.1ZM224.4 156.8H249.4V117.6H229.4L224.4 156.8Z" fill="#231F20"/>
<path d="M250 116.9V157.5H276.3L271.1 116.9H250Z" fill="#388CE0"/>
<path d="M276.3 158.1H250C249.6 158.1 249.4 157.8 249.4 157.5V117C249.4 116.6 249.7 116.4 250 116.4H271.1C271.4 116.4 271.7 116.6 271.7 117L276.9 157.5C276.9 157.7 276.9 157.9 276.8 158C276.7 158 276.5 158.1 276.3 158.1ZM250.6 156.8H275.6L270.6 117.6H250.6V156.8Z" fill="#231F20"/>
<path d="M271.1 116.9L276.3 157.5H302.7L292.3 116.9H271.1Z" fill="white"/>
<path d="M302.7 158.1H276.4C276.1 158.1 275.8 157.9 275.8 157.5L270.6 116.9C270.6 116.7 270.6 116.5 270.8 116.4C270.9 116.3 271.1 116.2 271.3 116.2H292.4C292.7 116.2 293 116.4 293 116.7L303.4 157.2C303.4 157.4 303.4 157.6 303.3 157.8C303.1 158 302.9 158.1 302.7 158.1ZM276.9 156.8H301.9L291.8 117.6H271.8L276.9 156.8Z" fill="#231F20"/>
<path d="M292.3 116.9L302.7 157.5H329L313.4 116.9H292.3Z" fill="#388CE0"/>
<path d="M329 158.1H302.7C302.4 158.1 302.1 157.9 302.1 157.6L291.7 117.1C291.7 116.9 291.7 116.7 291.8 116.5C291.9 116.3 292.1 116.3 292.3 116.3H313.4C313.7 116.3 313.9 116.5 314 116.7L329.6 157.2C329.7 157.4 329.6 157.6 329.5 157.8C329.4 158 329.2 158.1 329 158.1ZM303.2 156.8H328.1L313 117.6H293.1L303.2 156.8Z" fill="#231F20"/>
<path d="M313.4 116.9L329 157.5H355.4L334.5 116.9H313.4Z" fill="white"/>
<path d="M355.4 158.1H329C328.7 158.1 328.5 157.9 328.4 157.7L312.8 117.2C312.7 116.9 312.8 116.5 313.2 116.4C313.3 116.4 313.4 116.4 313.4 116.4H334.5C334.7 116.4 335 116.5 335.1 116.7L355.9 157.2C356 157.4 356 157.6 355.9 157.8C355.8 158 355.6 158.1 355.4 158.1ZM329.5 156.8H354.4L334.2 117.6H314.4L329.5 156.8Z" fill="#231F20"/>
<path d="M334.5 116.9L355.4 157.5H381.7L355.7 116.9H334.5Z" fill="#388CE0"/>
<path d="M381.7 158.1H355.4C355.2 158.1 354.9 158 354.8 157.8L334 117.2C333.9 117 333.9 116.8 334 116.6C334.1 116.4 334.3 116.3 334.5 116.3H355.6C355.8 116.3 356 116.4 356.1 116.6L382.1 157.1C382.2 157.3 382.2 157.5 382.1 157.7C382.1 158 381.9 158.1 381.7 158.1ZM355.8 156.8H380.6L355.4 117.6H335.7L355.8 156.8Z" fill="#231F20"/>
<path d="M355.7 116.9L381.7 157.5H408L376.8 116.9H355.7Z" fill="white"/>
<path d="M408 158.1H381.7C381.5 158.1 381.3 158 381.2 157.8L355.2 117.3C355 117 355.1 116.6 355.3 116.4C355.4 116.3 355.6 116.3 355.7 116.3H376.8C377 116.3 377.2 116.4 377.3 116.5L408.5 157C408.6 157.2 408.7 157.5 408.6 157.7C408.5 158 408.3 158.1 408 158.1ZM382 156.8H406.7L376.5 117.6H356.9L382 156.8Z" fill="#231F20"/>
<path d="M376.8 116.9L408 157.5H434.4L397.9 116.9H376.8Z" fill="#388CE0"/>
<path d="M434.4 158.1H408C407.8 158.1 407.6 158 407.5 157.9L376.3 117.4C376.2 117.2 376.1 116.9 376.2 116.7C376.3 116.5 376.5 116.3 376.8 116.4H397.9C398.1 116.4 398.3 116.5 398.4 116.6L434.8 157.1C435 157.3 435 157.6 434.9 157.8C434.9 158 434.6 158.1 434.4 158.1ZM408.4 156.8H433L397.7 117.6H378.1L408.4 156.8Z" fill="#231F20"/>
<path d="M65.6001 157.5H92.0001V183.4C92.0001 188.5 87.9001 192.6 82.8001 192.6H74.8001C69.7001 192.6 65.6001 188.5 65.6001 183.4V157.5Z" fill="white"/>
<path d="M79.1 193.2H78.5C71 193.2 65 187.1 65 179.7V157.5C65 157.1 65.3 156.9 65.6 156.9H92C92.4 156.9 92.6 157.2 92.6 157.5V179.7C92.6 187.2 86.6 193.2 79.1 193.2ZM66.3 158.1V179.7C66.3 186.5 71.8 192 78.5 192H79.1C85.8 192 91.3 186.5 91.3 179.8V158.1H66.3Z" fill="#231F20"/>
<path d="M92 157.5H118.3V183.4C118.3 188.5 114.2 192.6 109.1 192.6H101.1C96.1 192.6 92 188.5 92 183.4V157.5Z" fill="#388CE0"/>
<path d="M105.4 193.2H104.8C97.3 193.2 91.3 187.1 91.3 179.7V157.4C91.3 157 91.6 156.8 91.9 156.8H118.2C118.6 156.8 118.8 157.1 118.8 157.4V179.6C118.9 187.2 112.9 193.2 105.4 193.2ZM92.6 158.1V179.7C92.6 186.5 98.1 192 104.8 192H105.4C112.1 192 117.6 186.5 117.6 179.8V158.1H92.6Z" fill="#231F20"/>
<path d="M118.3 157.5H144.6V183.4C144.6 188.5 140.5 192.6 135.4 192.6H127.4C122.3 192.6 118.2 188.5 118.2 183.4L118.3 157.5Z" fill="white"/>
<path d="M131.8 193.2H131.2C123.7 193.2 117.7 187.1 117.7 179.7V157.4C117.7 157 118 156.8 118.3 156.8H144.6C145 156.8 145.2 157.1 145.2 157.4V179.6C145.3 187.2 139.2 193.2 131.8 193.2ZM118.9 158.1V179.7C118.9 186.5 124.4 192 131.1 192H131.7C138.5 192 143.9 186.5 143.9 179.7V158.1H118.9Z" fill="#231F20"/>
<path d="M144.6 157.5H171V183.4C171 188.5 166.9 192.6 161.8 192.6H153.8C148.7 192.6 144.6 188.5 144.6 183.4V157.5Z" fill="#388CE0"/>
<path d="M158.1 193.2H157.5C150 193.2 144 187.1 144 179.7V157.5C144 157.1 144.3 156.9 144.6 156.9H171C171.4 156.9 171.6 157.2 171.6 157.5V179.7C171.6 187.2 165.6 193.2 158.1 193.2ZM145.3 158.1V179.7C145.3 186.5 150.8 192 157.5 192H158.1C164.8 192 170.3 186.5 170.3 179.8V158.1H145.3Z" fill="#231F20"/>
<path d="M171 157.5H197.3V183.4C197.3 188.5 193.2 192.6 188.1 192.6H180.1C175 192.6 170.9 188.5 170.9 183.4L171 157.5Z" fill="white"/>
<path d="M184.4 193.2H183.8C176.3 193.2 170.3 187.1 170.3 179.7V157.4C170.3 157 170.6 156.8 170.9 156.8H197.2C197.6 156.8 197.8 157.1 197.8 157.4V179.6C198 187.2 191.9 193.2 184.4 193.2ZM171.6 158.1V179.7C171.6 186.5 177.1 192 183.8 192H184.4C191.1 192 196.6 186.5 196.6 179.8V158.1H171.6Z" fill="#231F20"/>
<path d="M197.3 157.5H223.6V183.4C223.6 188.5 219.5 192.6 214.4 192.6H206.4C201.3 192.6 197.2 188.5 197.2 183.4L197.3 157.5Z" fill="#388CE0"/>
<path d="M210.8 193.2H210.2C202.7 193.2 196.7 187.1 196.7 179.7V157.4C196.7 157 197 156.8 197.3 156.8H223.6C224 156.8 224.2 157.1 224.2 157.4V179.6C224.3 187.2 218.2 193.2 210.8 193.2ZM198 158.1V179.7C198 186.4 203.4 191.9 210.2 192H210.8C217.6 192 223 186.5 223 179.7V158.1H198Z" fill="#231F20"/>
<path d="M223.7 157.5H250V183.4C250 188.5 245.9 192.6 240.8 192.6H232.8C227.7 192.6 223.6 188.5 223.6 183.4L223.7 157.5Z" fill="white"/>
<path d="M237.1 193.2H236.5C229 193.2 223 187.2 223 179.7V157.5C223 157.1 223.3 156.9 223.6 156.9H250C250.4 156.9 250.6 157.2 250.6 157.5V179.7C250.6 187.2 244.6 193.2 237.1 193.2ZM224.3 158.1V179.7C224.3 186.5 229.8 192 236.5 192H237.1C243.8 192 249.3 186.5 249.3 179.8V158.1H224.3Z" fill="#231F20"/>
<path d="M250 157.5H276.3V183.4C276.3 188.5 272.2 192.6 267.1 192.6H259.1C254 192.6 249.9 188.5 249.9 183.4L250 157.5Z" fill="#388CE0"/>
<path d="M263.5 193.2H262.9C255.4 193.2 249.4 187.1 249.4 179.7V157.4C249.4 157 249.7 156.8 250 156.8H276.3C276.7 156.8 276.9 157.1 276.9 157.4V179.6C277 187.2 270.9 193.2 263.5 193.2ZM250.6 158.1V179.7C250.6 186.5 256.1 192 262.8 192H263.4C270.1 192 275.6 186.5 275.6 179.8V158.1H250.6Z" fill="#231F20"/>
<path d="M276.3 157.5H302.6V183.4C302.6 188.5 298.5 192.6 293.4 192.6H285.4C280.3 192.6 276.2 188.5 276.2 183.4L276.3 157.5Z" fill="white"/>
<path d="M289.8 193.2H289.2C281.7 193.2 275.7 187.1 275.7 179.7V157.4C275.7 157 276 156.8 276.3 156.8H302.6C303 156.8 303.2 157.1 303.2 157.4V179.6C303.3 187.2 297.3 193.2 289.8 193.2ZM277 158.1V179.7C277 186.5 282.5 191.9 289.2 192H289.8C296.5 192 302 186.5 302 179.7V158.1H277Z" fill="#231F20"/>
<path d="M302.7 157.5H329V183.4C329 188.5 324.9 192.6 319.8 192.6H311.8C306.7 192.6 302.6 188.5 302.6 183.4L302.7 157.5Z" fill="#388CE0"/>
<path d="M316.1 193.2H315.5C308 193.2 302 187.2 302 179.7V157.5C302 157.1 302.3 156.9 302.6 156.9H329C329.4 156.9 329.6 157.2 329.6 157.5V179.7C329.6 187.2 323.6 193.2 316.1 193.2ZM303.3 158.1V179.7C303.3 186.5 308.8 192 315.5 192H316.1C322.8 192 328.3 186.5 328.3 179.8V158.1H303.3Z" fill="#231F20"/>
<path d="M329 157.5H355.3V183.4C355.3 188.5 351.2 192.6 346.1 192.6H338.1C333 192.6 328.9 188.5 328.9 183.4L329 157.5Z" fill="white"/>
<path d="M342.5 193.2H341.9C334.4 193.2 328.4 187.1 328.4 179.7V157.4C328.4 157 328.7 156.8 329 156.8H355.3C355.7 156.8 355.9 157.1 355.9 157.4V179.6C356 187.2 349.9 193.2 342.5 193.2ZM329.7 158.1V179.7C329.7 186.5 335.2 192 341.9 192H342.5C349.2 192 354.7 186.5 354.7 179.8V158.1H329.7Z" fill="#231F20"/>
<path d="M355.4 157.5H381.7V183.4C381.7 188.5 377.6 192.6 372.5 192.6H364.5C359.4 192.6 355.3 188.5 355.3 183.4L355.4 157.5Z" fill="#388CE0"/>
<path d="M368.8 193.2H368.2C360.7 193.2 354.7 187.1 354.7 179.7V157.4C354.7 157 355 156.8 355.3 156.8H381.6C382 156.8 382.2 157.1 382.2 157.4V179.6C382.3 187.2 376.3 193.2 368.8 193.2ZM356 158.1V179.7C356 186.5 361.5 192 368.2 192H368.8C375.5 192 381 186.5 381 179.8V158.1H356Z" fill="#231F20"/>
<path d="M381.7 157.5H408V183.4C408 188.5 403.9 192.6 398.8 192.6H390.8C385.7 192.6 381.6 188.5 381.6 183.4L381.7 157.5Z" fill="white"/>
<path d="M395.2 193.2H394.6C387.1 193.2 381.1 187.1 381.1 179.7V157.4C381.1 157 381.4 156.8 381.7 156.8H408C408.4 156.8 408.6 157.1 408.6 157.4V179.6C408.6 187.2 402.6 193.2 395.2 193.2ZM382.3 158.1V179.7C382.3 186.5 387.8 192 394.5 192H395.1C401.8 192 407.3 186.5 407.3 179.8V158.1H382.3Z" fill="#231F20"/>
<path d="M408 157.5H434.3V183.4C434.3 188.5 430.2 192.6 425.1 192.6H417.1C412 192.6 407.9 188.5 407.9 183.4L408 157.5Z" fill="#388CE0"/>
<path d="M421.5 193.2H420.9C413.4 193.2 407.4 187.1 407.4 179.7V157.4C407.4 157 407.7 156.8 408 156.8H434.3C434.7 156.8 434.9 157.1 434.9 157.4V179.6C435 187.2 429 193.2 421.5 193.2ZM408.7 158.1V179.7C408.7 186.5 414.2 192 420.9 192H421.5C428.2 192 433.7 186.5 433.7 179.8V158.1H408.7Z" fill="#231F20"/>
</svg>
