<svg width="103" height="53" viewBox="0 0 103 53" fill="none" xmlns="http://www.w3.org/2000/svg">
<path d="M41.145 18.2482C41.145 18.2482 47.3354 -0.206685 64.3886 0.494137C81.4418 1.19496 86.1137 14.9783 86.698 19.4163C87.2823 23.8543 87.4887 23.2397 87.4887 23.2397C87.4887 23.2397 104.606 24.304 102.654 39.647C100.703 54.99 87.9322 52.8646 87.9322 52.8646L41.1454 53V47.7537H87.9322C87.9322 47.7537 97.5172 48.5998 97.8582 39.6491C98.1992 30.6984 93.0165 28.5151 87.4887 28.0371C81.9609 27.5591 82.2354 23.2397 82.2354 23.2397C82.2354 23.2397 81.0422 5.68506 64.389 5.4319C47.7359 5.17873 44.338 23.8035 44.338 23.8035L41.145 18.2482Z" fill="#388CE0"/>
<path d="M27.477 25.7829C29.3775 25.7829 30.8523 26.2836 31.9013 27.285C32.9504 28.2863 33.5328 29.4239 33.6486 30.6977H31.6663C31.4415 29.7304 30.9919 28.9641 30.3176 28.3987C29.65 27.8333 28.71 27.5506 27.4974 27.5506C26.0193 27.5506 24.8238 28.0717 23.911 29.114C23.005 30.1494 22.552 31.74 22.552 33.8857C22.552 35.6432 22.9607 37.0703 23.7781 38.167C24.6024 39.2569 25.8285 39.8019 27.4566 39.8019C28.9552 39.8019 30.0962 39.2263 30.8795 38.075C31.2951 37.4688 31.605 36.6718 31.8094 35.6841H33.7916C33.6145 37.2644 33.0287 38.5893 32.0342 39.6588C30.8421 40.9463 29.2345 41.59 27.2113 41.59C25.4675 41.59 24.0029 41.0621 22.8177 40.0062C21.2577 38.6098 20.4778 36.4538 20.4778 33.5383C20.4778 31.3244 21.0636 29.5091 22.2352 28.0922C23.5022 26.5527 25.2495 25.7829 27.477 25.7829Z" fill="#FF3967"/>
<path d="M36.0804 26.1917H37.9197V41.2017H36.0804V26.1917Z" fill="#FF3967"/>
<path d="M45.0313 40.0164C46.2506 40.0164 47.0851 39.5566 47.5347 38.637C47.9911 37.7106 48.2193 36.682 48.2193 35.5512C48.2193 34.5294 48.0558 33.6984 47.7288 33.0581C47.2111 32.0499 46.3187 31.5458 45.0517 31.5458C43.9278 31.5458 43.1103 31.975 42.5994 32.8333C42.0885 33.6916 41.8331 34.727 41.8331 35.9395C41.8331 37.1043 42.0885 38.075 42.5994 38.8516C43.1103 39.6282 43.921 40.0164 45.0313 40.0164ZM45.1028 29.9416C46.5129 29.9416 47.705 30.4116 48.6791 31.3517C49.6532 32.2917 50.1402 33.6745 50.1402 35.5001C50.1402 37.2644 49.7111 38.7222 48.8528 39.8734C47.9945 41.0246 46.6627 41.6002 44.8576 41.6002C43.3522 41.6002 42.1567 41.0927 41.2711 40.0777C40.3856 39.056 39.9428 37.6868 39.9428 35.9702C39.9428 34.1309 40.4094 32.6664 41.3426 31.5765C42.2759 30.4866 43.5293 29.9416 45.1028 29.9416Z" fill="#FF3967"/>
<path d="M54.1763 30.2584V37.5233C54.1763 38.0819 54.2648 38.5383 54.4419 38.8925C54.7689 39.5464 55.3786 39.8734 56.2709 39.8734C57.5516 39.8734 58.4235 39.3012 58.8867 38.1568C59.1388 37.5437 59.2648 36.7024 59.2648 35.633V30.2584H61.104V41.2017H59.367L59.3874 39.5873C59.149 40.0028 58.8527 40.3536 58.4984 40.6397C57.7968 41.2119 56.9453 41.498 55.944 41.498C54.384 41.498 53.3214 40.9769 52.756 39.9347C52.4495 39.3761 52.2962 38.6302 52.2962 37.697V30.2584H54.1763Z" fill="#FF3967"/>
<path d="M65.1503 35.8578C65.1503 37.0294 65.3989 38.0103 65.8962 38.8005C66.3934 39.5907 67.1904 39.9858 68.2872 39.9858C69.1386 39.9858 69.8369 39.6213 70.3818 38.8925C70.9336 38.1568 71.2095 37.1043 71.2095 35.7351C71.2095 34.3523 70.9268 33.3305 70.3614 32.6698C69.796 32.0022 69.0978 31.6684 68.2667 31.6684C67.3403 31.6684 66.5876 32.0227 66.0086 32.7311C65.4364 33.4395 65.1503 34.4818 65.1503 35.8578ZM67.9193 30.0642C68.7572 30.0642 69.4588 30.2413 70.0242 30.5956C70.3512 30.7999 70.7224 31.1575 71.1379 31.6684V26.1406H72.9056V41.2017H71.2503V39.6792C70.8212 40.3536 70.3137 40.8407 69.7279 41.1404C69.142 41.4401 68.4711 41.59 67.715 41.59C66.4956 41.59 65.4398 41.0791 64.5474 40.0573C63.6551 39.0287 63.2089 37.6629 63.2089 35.9599C63.2089 34.366 63.6142 32.9865 64.4248 31.8217C65.2422 30.6501 66.4071 30.0642 67.9193 30.0642Z" fill="#FF3967"/>
<path d="M0.155884 28.4819V14.8922H10.5747C11.0528 14.8922 11.4869 15.0117 11.877 15.2508C12.2797 15.4898 12.6005 15.8107 12.8396 16.2134C13.0787 16.6034 13.1982 17.0376 13.1982 17.5157V20.177C13.1982 20.3406 13.1857 20.4979 13.1605 20.6489C13.1353 20.7999 13.0913 20.9446 13.0284 21.083C13.2423 21.3724 13.4121 21.6744 13.538 21.989C13.6764 22.3036 13.7456 22.6182 13.7456 22.9327V25.8583C13.7456 26.3365 13.6261 26.7769 13.387 27.1795C13.1479 27.5696 12.827 27.8842 12.4244 28.1232C12.0217 28.3623 11.5813 28.4819 11.1032 28.4819H0.155884ZM2.87383 25.9715H10.9899C11.0528 25.9715 11.1094 25.9527 11.1598 25.9149C11.2101 25.8646 11.2353 25.808 11.2353 25.745V23.046C11.2353 22.9831 11.2101 22.9327 11.1598 22.895C11.1094 22.8447 11.0528 22.8195 10.9899 22.8195H2.87383C2.81091 22.8195 2.75429 22.8447 2.70395 22.895C2.66621 22.9327 2.64733 22.9831 2.64733 23.046V25.745C2.64733 25.808 2.66621 25.8646 2.70395 25.9149C2.75429 25.9527 2.81091 25.9715 2.87383 25.9715ZM2.87383 20.3092H10.4614C10.5243 20.3092 10.5747 20.2903 10.6124 20.2525C10.6502 20.2022 10.669 20.1456 10.669 20.0827V17.629C10.669 17.5661 10.6502 17.5157 10.6124 17.478C10.5747 17.4276 10.5243 17.4025 10.4614 17.4025H2.87383C2.81091 17.4025 2.75429 17.4276 2.70395 17.478C2.66621 17.5157 2.64733 17.5661 2.64733 17.629V20.0827C2.64733 20.1456 2.66621 20.2022 2.70395 20.2525C2.75429 20.2903 2.81091 20.3092 2.87383 20.3092Z" fill="#394657"/>
<path d="M15.8035 28.4819V14.911H26.7508C27.2289 14.911 27.6693 15.0306 28.072 15.2696C28.4747 15.5087 28.7955 15.8296 29.0346 16.2322C29.2737 16.6223 29.3932 17.0564 29.3932 17.5346V21.1963C29.3932 21.6744 29.2737 22.1148 29.0346 22.5175C28.7955 22.9201 28.4747 23.241 28.072 23.4801C27.6693 23.7066 27.2289 23.8198 26.7508 23.8198L18.295 23.8387V28.4819H15.8035ZM18.5215 21.3095H26.6375C26.7005 21.3095 26.7571 21.2906 26.8074 21.2529C26.8577 21.2151 26.8829 21.1648 26.8829 21.1019V17.629C26.8829 17.5661 26.8577 17.5157 26.8074 17.478C26.7571 17.4276 26.7005 17.4025 26.6375 17.4025H18.5215C18.4585 17.4025 18.4019 17.4276 18.3516 17.478C18.3138 17.5157 18.295 17.5661 18.295 17.629V21.1019C18.295 21.1648 18.3138 21.2151 18.3516 21.2529C18.4019 21.2906 18.4585 21.3095 18.5215 21.3095Z" fill="#394657"/>
</svg>
