<svg width="144" height="47" viewBox="0 0 144 47" fill="none" xmlns="http://www.w3.org/2000/svg">
<g clip-path="url(#clip0_104_808)">
<mask id="mask0_104_808" style="mask-type:luminance" maskUnits="userSpaceOnUse" x="0" y="0" width="144" height="47">
<path d="M144 0H0V47H144V0Z" fill="white"/>
</mask>
<g mask="url(#mask0_104_808)">
<path d="M11.9877 46.8763C10.3957 46.8923 8.80623 46.7444 7.2434 46.4345C5.80791 46.1825 4.44569 45.6064 3.25622 44.7481C2.11722 43.8105 1.269 42.5559 0.814345 41.1362C0.344842 39.7261 0.0796516 38.2536 0.0271744 36.7652C-0.0549797 34.9827 0.051823 33.1964 0.345721 31.4372C0.778647 29.9585 1.50357 28.5861 2.47583 27.4043C3.38511 26.2769 4.5128 25.3535 5.78814 24.692C7.47002 23.8535 9.3224 23.4336 11.1938 23.4662C11.949 23.4688 12.7033 23.5223 13.4517 23.6263C16.733 24.077 19.1255 25.3809 20.5536 27.5012C21.0863 28.3035 21.4793 29.1937 21.7155 30.1324C21.9212 30.9401 22.034 31.7694 22.0515 32.6037C22.0781 33.4632 22.0073 34.3229 21.8405 35.1658H5.86947C5.80298 36.0531 5.86101 36.9455 6.04182 37.8159C6.20021 38.614 6.48819 39.3795 6.89387 40.0805C7.36512 40.8889 8.02764 41.5636 8.82065 42.0427C10.0915 42.6437 11.4895 42.9105 12.8872 42.8187C14.1788 42.8091 15.4679 42.6981 16.7427 42.4865C17.8064 42.3247 18.8556 42.0768 19.8807 41.7451L19.203 46.1933C16.8228 46.6254 14.411 46.8519 11.9935 46.8704L11.9877 46.8763ZM11.6566 27.2917C10.5935 27.2683 9.54656 27.5591 8.64152 28.1289C7.94277 28.5922 7.36065 29.217 6.94227 29.9526C6.47255 30.7689 6.16032 31.6695 6.02246 32.6057H16.3632C16.3836 32.139 16.3535 31.6716 16.2731 31.2119C16.1319 30.2603 15.729 29.3691 15.1113 28.6419C14.6645 28.1813 14.1271 27.8229 13.5345 27.5902C12.942 27.3575 12.3079 27.2557 11.674 27.2917H11.6566Z" fill="#26009C"/>
<path d="M22.0562 46.4868L31.1391 34.7921L23.9801 23.995H31.1391L34.9413 30.1522L39.5889 23.99H46.2387L38.0475 34.7871L45.8321 46.4868H38.8404L34.1261 39.4291L28.8657 46.4868H22.0562Z" fill="#26009C"/>
<path d="M60.0681 43.0151C59.9277 43.114 58.9468 46.8602 58.9468 46.8602C58.9468 46.8602 52.4316 47.6075 49.5414 45.6444C46.6512 43.6813 45.7294 37.3234 51.505 34.9057C57.2805 32.4878 62.4886 32.7943 62.6019 29.6518C62.7151 26.5095 58.543 27.1035 58.543 27.1035C55.6519 27.3058 52.8024 27.9183 50.0769 28.9233C50.4177 26.4749 50.7313 24.8025 50.7313 24.8025C50.7313 24.8025 62.2824 22.3856 66.1582 24.5059C70.0339 26.6261 68.5225 30.1135 68.5197 35.4463C68.5168 40.7792 68.085 46.4945 68.085 46.4945H61.9599L62.6019 34.9086C60.8722 35.8202 59.0308 36.4908 57.1266 36.9024C55.1407 37.2799 52.2951 38.7616 53.2246 42.2401C54.7408 44.3851 57.9136 43.54 60.0681 43.0151Z" fill="#26009C"/>
<path d="M116.252 43.0151C116.111 43.114 115.131 46.8602 115.131 46.8602C115.131 46.8602 108.615 47.6075 105.725 45.6444C102.835 43.6813 101.912 37.3224 107.689 34.9057C113.465 32.4888 118.672 32.7943 118.786 29.6518C118.899 26.5095 114.727 27.1035 114.727 27.1035C111.836 27.3058 108.986 27.9183 106.261 28.9233C106.601 26.4749 106.915 24.8025 106.915 24.8025C106.915 24.8025 118.466 22.3856 122.342 24.5059C126.218 26.6261 124.706 30.1135 124.703 35.4463C124.701 40.7792 124.269 46.4945 124.269 46.4945H118.143L118.784 34.9086C117.054 35.8204 115.213 36.4909 113.309 36.9024C111.323 37.2799 108.478 38.7616 109.407 42.2401C110.925 44.3851 114.097 43.54 116.252 43.0151Z" fill="#26009C"/>
<path d="M73.0074 46.486H79.2457C79.2457 46.486 79.1973 31.1836 80.4561 16.1666C78.2763 16.2994 76.0906 16.2994 73.9108 16.1666L73.0074 46.486Z" fill="#26009C"/>
<path d="M101.062 41.5838L100.543 46.2128C100.543 46.2128 91.7716 48.4438 86.8462 44.991C81.9208 41.5383 82.8165 33.8826 82.8532 33.667C82.89 33.4516 84.2475 27.1689 88.7895 24.7441C93.3315 22.3194 101.444 24.3863 101.444 24.3863V29.291C101.444 29.291 96.8287 27.5424 93.4224 28.5329C89.3442 29.5401 85.9516 38.7864 91.8336 41.5897C95.3812 43.3719 101.062 41.5838 101.062 41.5838Z" fill="#26009C"/>
<path d="M134.677 18.6728C134.684 18.6023 134.671 18.5313 134.64 18.4678C134.609 18.4044 134.562 18.3511 134.503 18.3139C134.395 18.271 134.279 18.2531 134.163 18.2616H133.811V19.0988H134.28C134.334 19.1003 134.387 19.0905 134.437 19.0702C134.487 19.0497 134.532 19.0191 134.57 18.9802C134.607 18.9383 134.635 18.8893 134.653 18.8362C134.671 18.783 134.678 18.7269 134.675 18.6708L134.677 18.6728ZM134.828 19.517L135.423 20.6221C135.431 20.636 135.436 20.6518 135.436 20.668C135.436 20.6842 135.431 20.7 135.423 20.7139C135.417 20.7291 135.405 20.7417 135.392 20.7502C135.378 20.7587 135.361 20.7626 135.345 20.7614H134.9C134.882 20.7632 134.864 20.7591 134.849 20.7499C134.834 20.7406 134.822 20.7267 134.815 20.71L134.252 19.6335H133.806V20.6704C133.806 20.683 133.805 20.6954 133.801 20.7073C133.797 20.7191 133.791 20.73 133.782 20.7393C133.774 20.7485 133.764 20.7559 133.753 20.7611C133.742 20.7662 133.73 20.7691 133.718 20.7693H133.322C133.31 20.7703 133.298 20.7688 133.286 20.7649C133.275 20.7609 133.264 20.7544 133.255 20.7459C133.246 20.7376 133.238 20.7273 133.233 20.7158C133.228 20.7044 133.226 20.692 133.226 20.6794V17.8236C133.224 17.7995 133.231 17.7754 133.247 17.7569C133.262 17.7384 133.284 17.7269 133.308 17.7247H134.174C134.36 17.7164 134.547 17.7408 134.725 17.7969C134.886 17.8571 135.023 17.971 135.113 18.1201C135.209 18.2807 135.258 18.466 135.254 18.654C135.257 18.8271 135.214 18.9978 135.13 19.1482C135.053 19.2882 134.936 19.4013 134.795 19.4724L134.822 19.5218L134.828 19.517ZM134.247 17.0655C133.962 17.0646 133.679 17.1234 133.416 17.2385C133.03 17.4076 132.701 17.6897 132.471 18.0495C132.241 18.4091 132.121 18.8302 132.125 19.2595C132.129 19.689 132.258 20.1075 132.495 20.4623C132.732 20.817 133.067 21.0924 133.456 21.2534C133.846 21.4144 134.274 21.454 134.686 21.3671C135.098 21.2802 135.476 21.0707 135.771 20.7652C136.067 20.4595 136.267 20.0716 136.347 19.6499C136.426 19.2283 136.382 18.7919 136.219 18.3959C136.057 17.9999 135.783 17.6621 135.432 17.4255C135.081 17.1888 134.668 17.063 134.247 17.0655ZM136.851 19.2401C136.849 19.7623 136.697 20.2724 136.415 20.7074C136.132 21.1424 135.73 21.4832 135.26 21.6876C134.865 21.858 134.434 21.9259 134.007 21.8852C133.58 21.8445 133.169 21.6965 132.812 21.4544C132.454 21.2123 132.161 20.8837 131.958 20.4977C131.755 20.1119 131.649 19.6806 131.649 19.2427C131.649 18.8047 131.755 18.3735 131.958 17.9875C132.161 17.6016 132.454 17.2729 132.812 17.0308C133.169 16.7887 133.58 16.6407 134.007 16.6001C134.434 16.5593 134.865 16.6272 135.26 16.7976C135.73 17.0012 136.132 17.3413 136.415 17.7755C136.699 18.2099 136.851 18.7193 136.854 19.2412L136.851 19.2401Z" fill="black"/>
<path d="M132.923 24.1233H127.705V29.4522H132.923V24.1233Z" fill="#1F009E"/>
<path d="M138.127 29.452H132.908V34.7809H138.127V29.452Z" fill="#1F009E"/>
<path d="M144 32.1171H138.78V37.446H144V32.1171Z" fill="url(#paint0_linear_104_808)"/>
<path d="M132.923 40.7755H127.705V46.1064H132.923V40.7755Z" fill="#4DB151"/>
<path d="M138.127 35.4469H132.908V40.7758H138.127V35.4469Z" fill="#4DB151"/>
<path d="M0 0.935309C0.787071 0.804801 1.58343 0.741475 2.3808 0.745988C3.34617 0.670975 4.30482 0.961265 5.07399 1.56152C5.35232 1.82023 5.57184 2.13795 5.71724 2.49241C5.86262 2.84687 5.93033 3.22948 5.91563 3.61347C5.93421 3.99553 5.8782 4.37755 5.75087 4.73731C5.62352 5.09709 5.42738 5.42741 5.17385 5.70909C4.78094 6.08145 4.31832 6.36886 3.81383 6.55406C3.30933 6.73925 2.77337 6.81841 2.23815 6.78675C1.9031 6.79775 1.56795 6.76841 1.23961 6.69938V10.6314H0V0.935309ZM1.23961 5.66831C1.5765 5.74567 1.92152 5.77991 2.26668 5.77025C3.76449 5.77025 4.67459 5.02754 4.67459 3.67463C4.67459 2.37997 3.77733 1.75375 2.40933 1.75375C2.0169 1.74261 1.6245 1.7768 1.23961 1.8557V5.66831Z" fill="#3F3F3F"/>
<path d="M13.4326 7.05083C13.4326 9.65471 11.6651 10.7906 9.99616 10.7906C8.12889 10.7906 6.68958 9.39259 6.68958 7.16588C6.68958 4.80957 8.20021 3.42609 10.1131 3.42609C12.0931 3.42463 13.4326 4.89403 13.4326 7.05083ZM7.95772 7.12365C7.95772 8.66733 8.82787 9.83093 10.0532 9.83093C11.2515 9.83093 12.1501 8.6819 12.1501 7.09453C12.1501 5.9018 11.5653 4.38871 10.0817 4.38871C8.5982 4.38871 7.95772 5.78239 7.95772 7.12365Z" fill="#3F3F3F"/>
<path d="M15.4152 3.5845L16.3281 7.16411C16.5279 7.95051 16.7118 8.67867 16.8402 9.40682H16.8831C17.04 8.69324 17.2681 7.93595 17.4964 7.18012L18.6247 3.5845H19.6803L20.7502 7.1073C21.007 7.95051 21.2067 8.69324 21.3636 9.40682H21.4063C21.5407 8.63531 21.717 7.87201 21.9342 7.12042L22.9185 3.5845H24.1581L21.9342 10.6287H20.793L19.7374 7.26604C19.4944 6.50636 19.2897 5.73448 19.1241 4.95343H19.0954C18.931 5.74197 18.7215 6.52 18.4678 7.28352L17.3566 10.633H16.2154L14.1313 3.5845H15.4152Z" fill="#3F3F3F"/>
<path d="M25.9724 7.3421C25.9451 7.66765 25.9874 7.99538 26.0963 8.30264C26.2052 8.6099 26.3781 8.88935 26.6031 9.12171C26.8281 9.35406 27.0999 9.53378 27.3996 9.64843C27.6993 9.7631 28.0197 9.80995 28.3389 9.78578C28.994 9.80667 29.6456 9.68247 30.249 9.42171L30.4631 10.3392C29.7366 10.6482 28.9545 10.797 28.1678 10.7761C26.0423 10.7761 24.7742 9.34889 24.7742 7.22413C24.7742 5.09938 26.001 3.42609 28.0109 3.42609C30.2633 3.42609 30.8639 5.44889 30.8639 6.74501C30.861 6.94472 30.8468 7.14409 30.8211 7.3421H25.9724ZM29.6499 6.42463C29.6642 5.60909 29.3219 4.34356 27.911 4.34356C26.6415 4.34356 26.0865 5.53627 25.9853 6.42463H29.6499Z" fill="#3F3F3F"/>
<path d="M32.4191 5.78251C32.4191 4.95387 32.4048 4.24029 32.3621 3.58494H33.459L33.5018 4.96844H33.5589C33.6765 4.53742 33.9251 4.15567 34.2689 3.87822C34.6127 3.60078 35.0339 3.44199 35.4719 3.42475C35.592 3.42309 35.712 3.43779 35.8284 3.46844V4.67718C35.6879 4.64596 35.5443 4.6313 35.4005 4.63348C34.9719 4.6511 34.5642 4.82788 34.2543 5.13064C33.9444 5.43339 33.7533 5.84128 33.7172 6.27766C33.6821 6.47473 33.6629 6.67445 33.6602 6.87474V10.6291H32.4191V5.78251Z" fill="#3F3F3F"/>
<path d="M37.6391 7.34209C37.6118 7.66764 37.6541 7.99537 37.763 8.30263C37.8719 8.60989 38.0448 8.88934 38.2698 9.1217C38.4948 9.35407 38.7666 9.53377 39.0663 9.64844C39.366 9.76309 39.6866 9.80995 40.0056 9.78578C40.6602 9.8068 41.3114 9.68258 41.9144 9.4217L42.1283 10.3392C41.4014 10.6483 40.6188 10.7972 39.8316 10.7761C37.7076 10.7761 36.4395 9.34888 36.4395 7.22413C36.4395 5.09937 37.6677 3.42462 39.6776 3.42462C41.93 3.42462 42.5306 5.44744 42.5306 6.74355C42.528 6.94333 42.5133 7.14275 42.4863 7.34063L37.6391 7.34209ZM41.3166 6.42462C41.3309 5.60909 40.9886 4.34355 39.5777 4.34355C38.3082 4.34355 37.7532 5.53627 37.652 6.42462H41.3166Z" fill="#3F3F3F"/>
<path d="M50.0445 0.296112V8.80969C50.0445 9.43591 50.0587 10.148 50.1016 10.6301H48.9747L48.919 9.40824H48.8905C48.6652 9.84137 48.3249 10.2009 47.9086 10.4456C47.4922 10.6903 47.0169 10.8103 46.5369 10.7917C44.8678 10.7917 43.5855 9.34999 43.5855 7.21213C43.5711 4.86747 44.9962 3.42572 46.678 3.42572C47.0877 3.40008 47.4966 3.48644 47.8627 3.67586C48.2287 3.86529 48.5388 4.15094 48.7606 4.50338H48.7893V0.296112H50.0445ZM48.7906 6.45484C48.7924 6.27349 48.7728 6.09257 48.7321 5.916C48.643 5.49419 48.4144 5.11649 48.0849 4.8463C47.7552 4.5761 47.3446 4.42983 46.9219 4.43203C45.6253 4.43203 44.8536 5.59707 44.8536 7.15386C44.8536 8.5796 45.5383 9.75775 46.8919 9.75775C47.3236 9.75618 47.7417 9.6035 48.0763 9.3252C48.411 9.0469 48.642 8.65983 48.7308 8.22863C48.7728 8.04739 48.7924 7.86147 48.7893 7.67523L48.7906 6.45484Z" fill="#3F3F3F"/>
<path d="M55.0971 10.6286C55.1258 10.148 55.1543 9.43591 55.1543 8.80823V0.296112H56.3939V4.72039H56.4224C56.6603 4.30445 57.0057 3.96344 57.4209 3.7348C57.8361 3.50616 58.305 3.39872 58.776 3.42426C60.4878 3.42426 61.7004 4.88058 61.6833 7.01843C61.6833 9.53713 60.1298 10.7888 58.5906 10.7888C58.122 10.8162 57.6557 10.7061 57.2463 10.4716C56.8371 10.237 56.5022 9.88772 56.2812 9.46504H56.2383L56.1813 10.6301L55.0971 10.6286ZM56.3939 7.80484C56.3979 7.96172 56.417 8.11779 56.4509 8.27086C56.5551 8.69898 56.7968 9.07915 57.1373 9.35075C57.4778 9.62235 57.8975 9.76973 58.3296 9.7694C59.6405 9.7694 60.4265 8.67716 60.4265 7.06358C60.4265 5.65096 59.7132 4.44222 58.3724 4.44222C57.9281 4.4508 57.4992 4.61042 57.1538 4.89583C56.8083 5.18123 56.5661 5.5761 56.4651 6.01795C56.4234 6.18968 56.3996 6.3654 56.3939 6.54223V7.80484Z" fill="#3F3F3F"/>
<path d="M63.6261 3.5845L65.1368 7.74663C65.2922 8.21265 65.4648 8.76604 65.579 9.18692H65.6075C65.7344 8.76604 65.8785 8.22721 66.0482 7.71896L67.4177 3.58523H68.7443L66.8613 8.6095C65.964 11.0255 65.3507 12.2619 64.4963 13.0192C64.0623 13.4279 63.5312 13.7136 62.9556 13.8478L62.6418 12.7716C63.0435 12.636 63.4163 12.4235 63.7401 12.1454C64.1957 11.7607 64.5567 11.2724 64.7943 10.7197C64.845 10.6245 64.8788 10.521 64.8942 10.4139C64.883 10.2983 64.854 10.1853 64.8086 10.0789L62.2581 3.5845H63.6261Z" fill="#3F3F3F"/>
</g>
</g>
<defs>
<linearGradient id="paint0_linear_104_808" x1="140.776" y1="31.6972" x2="140.776" y2="37.7089" gradientUnits="userSpaceOnUse">
<stop stop-color="#171891"/>
<stop offset="1" stop-color="#4FA94E"/>
</linearGradient>
<clipPath id="clip0_104_808">
<rect width="144" height="47" fill="white"/>
</clipPath>
</defs>
</svg>
